<?xml version="1.0" encoding="UTF-8"?>
<!DOCTYPE svg PUBLIC "-//W3C//DTD SVG 1.1//EN" "http://www.w3.org/Graphics/SVG/1.1/DTD/svg11.dtd">
<svg xmlns="http://www.w3.org/2000/svg" version="1.1" width="512px" height="165px" style="shape-rendering:geometricPrecision; text-rendering:geometricPrecision; image-rendering:optimizeQuality; fill-rule:evenodd; clip-rule:evenodd" xmlns:xlink="http://www.w3.org/1999/xlink">
<g><path style="opacity:0.979" fill="#9ac442" d="M 66.5,-0.5 C 75.8333,-0.5 85.1667,-0.5 94.5,-0.5C 109.845,2.6725 123.512,9.33916 135.5,19.5C 137.094,22.7642 139.427,25.4309 142.5,27.5C 147.727,32.2812 151.727,37.9478 154.5,44.5C 154.461,47.089 155.461,49.089 157.5,50.5C 158.899,53.6988 159.899,57.0321 160.5,60.5C 160.781,64.1879 161.281,67.8546 162,71.5C 162.417,72.756 163.25,73.4226 164.5,73.5C 164.5,74.1667 164.5,74.8333 164.5,75.5C 163.2,77.223 162.533,79.3897 162.5,82C 162.533,84.6103 163.2,86.777 164.5,88.5C 157.058,130.272 132.725,155.605 91.5,164.5C 84.5,164.5 77.5,164.5 70.5,164.5C 33.7857,157.12 10.119,135.454 -0.5,99.5C -0.5,87.8333 -0.5,76.1667 -0.5,64.5C 9.00919,29.658 31.3425,7.99136 66.5,-0.5 Z"/></g>
<g><path style="opacity:1" fill="#f6f9f8" d="M 4.5,88.5 C 4.52341,80.8166 4.85675,73.1499 5.5,65.5C 14.4407,31.7279 36.1074,11.5612 70.5,5C 110.149,2.56444 137.982,19.3978 154,55.5C 164.406,93.2839 153.906,123.784 122.5,147C 83.7531,167.348 49.5864,161.515 20,129.5C 10.9225,117.339 5.75582,103.673 4.5,88.5 Z"/></g>
<g><path style="opacity:1" fill="#147178" d="M 38.5,89.5 C 36.866,88.8389 35.0326,88.5056 33,88.5C 29.8502,88.3603 27.0169,89.027 24.5,90.5C 29.4317,105.638 39.765,111.471 55.5,108C 61.2567,113.043 65.9234,118.876 69.5,125.5C 68.7974,134.149 68.464,142.815 68.5,151.5C 39.7699,145.609 20.9366,128.609 12,100.5C 4.4541,61.0921 18.6208,32.5921 54.5,15C 88.2377,4.36082 116.404,12.5275 139,39.5C 157.739,69.5194 156.739,98.8527 136,127.5C 120.345,144.743 100.845,153.409 77.5,153.5C 77.1057,141.114 77.6057,128.78 79,116.5C 84.2281,111.553 90.2281,107.887 97,105.5C 100.369,106.527 103.536,108.027 106.5,110C 117.499,112.279 126.499,109.113 133.5,100.5C 121.585,90.745 110.252,91.245 99.5,102C 92.863,103.324 86.6963,105.824 81,109.5C 81.6943,102.382 83.1943,95.3819 85.5,88.5C 91.6117,86.6389 97.6117,84.4722 103.5,82C 113.129,74.2268 117.463,64.0601 116.5,51.5C 94.8549,52.9822 84.0216,64.6489 84,86.5C 81.064,91.3728 78.3973,96.3728 76,101.5C 72.4174,93.1755 70.7508,84.5088 71,75.5C 84.5244,63.3147 85.8578,49.9813 75,35.5C 60.1808,46.2593 57.5142,59.5926 67,75.5C 67.1144,87.4042 69.281,98.9042 73.5,110C 73.1003,112.9 72.4336,115.733 71.5,118.5C 66.4827,113.648 61.316,108.982 56,104.5C 52.7237,96.3818 46.8904,91.3818 38.5,89.5 Z"/></g>
<g><path style="opacity:0.412" fill="#b8d57a" d="M 135.5,19.5 C 138.573,21.5691 140.906,24.2358 142.5,27.5C 139.427,25.4309 137.094,22.7642 135.5,19.5 Z"/></g>
<g><path style="opacity:1" fill="#96c23e" d="M 103.5,21.5 C 104.496,21.4142 105.329,21.7476 106,22.5C 110.11,37.6742 104.943,48.3408 90.5,54.5C 84.5023,39.488 88.8356,28.488 103.5,21.5 Z"/></g>
<g><path style="opacity:0.913" fill="#fefffe" d="M 472.5,32.5 C 484.61,30.6005 495.61,33.1005 505.5,40C 506.687,41.0195 507.687,42.1861 508.5,43.5C 505.559,47.9441 502.059,51.9441 498,55.5C 489.608,46.8645 480.108,45.3645 469.5,51C 461.226,59.1849 459.393,68.6849 464,79.5C 471.025,89.5046 480.192,92.0046 491.5,87C 493.977,85.3573 496.31,83.524 498.5,81.5C 501.818,84.3172 504.985,87.3172 508,90.5C 508.269,93.2798 507.102,95.4464 504.5,97C 490.759,105.809 476.426,106.809 461.5,100C 443.642,86.6713 439.475,69.8379 449,49.5C 454.732,40.7361 462.566,35.0694 472.5,32.5 Z"/></g>
<g><path style="opacity:0.933" fill="#fefffe" d="M 198.5,33.5 C 203.833,33.5 209.167,33.5 214.5,33.5C 214.5,42.5 214.5,51.5 214.5,60.5C 223.5,60.5 232.5,60.5 241.5,60.5C 241.5,51.5 241.5,42.5 241.5,33.5C 246.833,33.5 252.167,33.5 257.5,33.5C 257.5,56.8333 257.5,80.1667 257.5,103.5C 252.167,103.5 246.833,103.5 241.5,103.5C 241.5,94.5 241.5,85.5 241.5,76.5C 232.5,76.5 223.5,76.5 214.5,76.5C 214.5,85.5 214.5,94.5 214.5,103.5C 209.167,103.5 203.833,103.5 198.5,103.5C 198.5,80.1667 198.5,56.8333 198.5,33.5 Z"/></g>
<g><path style="opacity:0.928" fill="#fefffe" d="M 284.5,33.5 C 299.225,33.0679 313.892,33.5679 328.5,35C 342.261,42.0367 346.427,52.8701 341,67.5C 338.233,72.809 334.067,76.6424 328.5,79C 334.412,86.8244 340.079,94.8244 345.5,103C 338.808,103.831 332.142,103.664 325.5,102.5C 321.029,95.5295 316.362,88.6962 311.5,82C 307.848,81.5014 304.182,81.3347 300.5,81.5C 300.5,88.8333 300.5,96.1667 300.5,103.5C 295.167,103.5 289.833,103.5 284.5,103.5C 284.5,80.1667 284.5,56.8333 284.5,33.5 Z M 300.5,48.5 C 307.921,48.1095 315.254,48.6095 322.5,50C 328.255,56.1367 327.588,61.47 320.5,66C 313.842,66.4996 307.175,66.6663 300.5,66.5C 300.5,60.5 300.5,54.5 300.5,48.5 Z"/></g>
<g><path style="opacity:0.927" fill="#fefffe" d="M 365.5,33.5 C 377.505,33.3335 389.505,33.5001 401.5,34C 424.005,40.4982 433.171,55.3316 429,78.5C 424.559,91.9394 415.392,100.106 401.5,103C 389.505,103.5 377.505,103.667 365.5,103.5C 365.5,80.1667 365.5,56.8333 365.5,33.5 Z M 381.5,48.5 C 387.176,48.3339 392.843,48.5006 398.5,49C 407.93,52.0023 412.93,58.5023 413.5,68.5C 412.93,78.4977 407.93,84.9977 398.5,88C 392.843,88.4994 387.176,88.6661 381.5,88.5C 381.5,75.1667 381.5,61.8333 381.5,48.5 Z"/></g>
<g><path style="opacity:0.016" fill="#bfd986" d="M 154.5,44.5 C 156.008,46.1815 157.008,48.1815 157.5,50.5C 155.461,49.089 154.461,47.089 154.5,44.5 Z"/></g>
<g><path style="opacity:1" fill="#97c33d" d="M 32.5,50.5 C 55.2214,54.9053 64.5548,68.5719 60.5,91.5C 38.7024,86.6559 29.3691,72.9893 32.5,50.5 Z"/></g>
<g><path style="opacity:0.251" fill="#bcd883" d="M 160.5,60.5 C 161.725,64.7922 163.058,69.1255 164.5,73.5C 163.25,73.4226 162.417,72.756 162,71.5C 161.281,67.8546 160.781,64.1879 160.5,60.5 Z"/></g>
<g><path style="opacity:1" fill="#98c33d" d="M 117.5,76.5 C 131.611,74.3717 133.611,77.8717 123.5,87C 107.411,90.8603 105.411,87.3603 117.5,76.5 Z"/></g>
<g><path style="opacity:0.376" fill="#bcd781" d="M 164.5,75.5 C 164.5,79.8333 164.5,84.1667 164.5,88.5C 163.2,86.777 162.533,84.6103 162.5,82C 162.533,79.3897 163.2,77.223 164.5,75.5 Z"/></g>
<g><path style="opacity:1" fill="#dbe9ba" d="M 5.5,65.5 C 4.85675,73.1499 4.52341,80.8166 4.5,88.5C 3.12816,80.7774 3.46149,73.1107 5.5,65.5 Z"/></g>
<g><path style="opacity:1" fill="#a1c4c6" d="M 38.5,89.5 C 33.7971,89.4372 29.1304,89.7705 24.5,90.5C 27.0169,89.027 29.8502,88.3603 33,88.5C 35.0326,88.5056 36.866,88.8389 38.5,89.5 Z"/></g>
<g><path style="opacity:1" fill="#97c33d" d="M 87.5,114.5 C 98.2457,112.707 106.246,116.54 111.5,126C 99.3767,132.693 89.71,130.193 82.5,118.5C 84.0147,116.918 85.6814,115.584 87.5,114.5 Z"/></g>
<g><path style="opacity:0.663" fill="#fefffe" d="M 198.5,122.5 C 201.187,122.336 203.854,122.503 206.5,123C 208.41,123.408 209.41,124.575 209.5,126.5C 209.385,129.09 209.052,131.757 208.5,134.5C 205.242,135.417 201.909,135.751 198.5,135.5C 198.5,131.167 198.5,126.833 198.5,122.5 Z M 202.5,130.5 C 203.675,130.281 204.675,130.614 205.5,131.5C 203.948,132.798 202.948,132.465 202.5,130.5 Z"/></g>
<g><path style="opacity:0.656" fill="#fefffe" d="M 211.5,122.5 C 212.5,122.5 213.5,122.5 214.5,122.5C 214.151,126.064 214.817,129.398 216.5,132.5C 217.086,132.291 217.586,131.957 218,131.5C 218.498,128.518 218.665,125.518 218.5,122.5C 219.833,122.5 221.167,122.5 222.5,122.5C 222.665,126.182 222.499,129.848 222,133.5C 218.595,136.077 215.262,136.077 212,133.5C 211.501,129.848 211.335,126.182 211.5,122.5 Z"/></g>
<g><path style="opacity:0.578" fill="#fefffe" d="M 225.5,122.5 C 226.833,122.5 228.167,122.5 229.5,122.5C 229.5,126.833 229.5,131.167 229.5,135.5C 228.167,135.5 226.833,135.5 225.5,135.5C 225.5,131.167 225.5,126.833 225.5,122.5 Z"/></g>
<g><path style="opacity:0.627" fill="#fefffe" d="M 232.5,122.5 C 233.833,122.5 235.167,122.5 236.5,122.5C 236.5,125.833 236.5,129.167 236.5,132.5C 238.5,132.5 240.5,132.5 242.5,132.5C 242.5,133.5 242.5,134.5 242.5,135.5C 239.167,135.5 235.833,135.5 232.5,135.5C 232.5,131.167 232.5,126.833 232.5,122.5 Z"/></g>
<g><path style="opacity:0.668" fill="#fefffe" d="M 244.5,122.5 C 254.037,121.514 257.371,125.347 254.5,134C 251.312,135.316 247.978,135.816 244.5,135.5C 244.5,131.167 244.5,126.833 244.5,122.5 Z M 248.5,126.5 C 253.394,127.54 253.727,129.54 249.5,132.5C 248.534,130.604 248.201,128.604 248.5,126.5 Z"/></g>
<g><path style="opacity:0.555" fill="#fefffe" d="M 257.5,122.5 C 258.833,122.5 260.167,122.5 261.5,122.5C 261.5,126.833 261.5,131.167 261.5,135.5C 260.167,135.5 258.833,135.5 257.5,135.5C 257.5,131.167 257.5,126.833 257.5,122.5 Z"/></g>
<g><path style="opacity:0.638" fill="#fefffe" d="M 264.5,122.5 C 267.997,123.06 270.497,125.06 272,128.5C 272.495,126.527 272.662,124.527 272.5,122.5C 273.833,122.5 275.167,122.5 276.5,122.5C 276.5,126.833 276.5,131.167 276.5,135.5C 275.127,135.657 273.793,135.49 272.5,135C 269.577,129.161 268.243,129.327 268.5,135.5C 267.167,135.5 265.833,135.5 264.5,135.5C 264.5,131.167 264.5,126.833 264.5,122.5 Z"/></g>
<g><path style="opacity:0.623" fill="#fefffe" d="M 282.5,122.5 C 285.482,122.104 288.149,122.771 290.5,124.5C 290.023,125.478 289.357,126.311 288.5,127C 292.12,134.301 289.786,136.967 281.5,135C 277.4,130.445 277.733,126.278 282.5,122.5 Z M 284.5,131.5 C 282.656,130.796 282.156,129.463 283,127.5C 284.388,126.446 285.888,126.28 287.5,127C 286.552,127.483 285.552,127.649 284.5,127.5C 284.5,128.833 284.5,130.167 284.5,131.5 Z"/></g>
<g><path style="opacity:0.629" fill="#fefffe" d="M 302.5,122.5 C 303.822,122.33 304.989,122.663 306,123.5C 308.002,127.342 309.502,131.342 310.5,135.5C 308.226,135.285 306.059,134.618 304,133.5C 301.941,134.618 299.774,135.285 297.5,135.5C 298.576,130.939 300.243,126.605 302.5,122.5 Z"/></g>
<g><path style="opacity:0.687" fill="#fefffe" d="M 317.5,122.5 C 320.579,122.26 323.579,122.593 326.5,123.5C 331.114,133.219 328.114,137.219 317.5,135.5C 317.5,131.167 317.5,126.833 317.5,122.5 Z M 321.5,130.5 C 322.675,130.281 323.675,130.614 324.5,131.5C 322.948,132.798 321.948,132.465 321.5,130.5 Z"/></g>
<g><path style="opacity:0.653" fill="#fefffe" d="M 330.5,122.5 C 333.833,122.5 337.167,122.5 340.5,122.5C 340.5,123.833 340.5,125.167 340.5,126.5C 338.473,126.338 336.473,126.505 334.5,127C 336.134,127.494 337.801,127.66 339.5,127.5C 339.5,128.5 339.5,129.5 339.5,130.5C 337.712,130.215 336.045,130.548 334.5,131.5C 336.396,132.466 338.396,132.799 340.5,132.5C 340.5,133.5 340.5,134.5 340.5,135.5C 337.167,135.5 333.833,135.5 330.5,135.5C 330.5,131.167 330.5,126.833 330.5,122.5 Z"/></g>
<g><path style="opacity:0.602" fill="#fefffe" d="M 342.5,122.5 C 349.833,122.5 357.167,122.5 364.5,122.5C 364.5,123.833 364.5,125.167 364.5,126.5C 363.5,126.5 362.5,126.5 361.5,126.5C 361.5,129.5 361.5,132.5 361.5,135.5C 360.167,135.5 358.833,135.5 357.5,135.5C 357.5,132.5 357.5,129.5 357.5,126.5C 354.833,126.5 352.167,126.5 349.5,126.5C 349.5,129.5 349.5,132.5 349.5,135.5C 348.167,135.5 346.833,135.5 345.5,135.5C 345.5,132.5 345.5,129.5 345.5,126.5C 344.5,126.5 343.5,126.5 342.5,126.5C 342.5,125.167 342.5,123.833 342.5,122.5 Z"/></g>
<g><path style="opacity:0.618" fill="#fefffe" d="M 365.5,122.5 C 368.833,122.5 372.167,122.5 375.5,122.5C 375.5,123.833 375.5,125.167 375.5,126.5C 367.5,126.833 367.5,127.167 375.5,127.5C 375.5,128.5 375.5,129.5 375.5,130.5C 373.396,130.201 371.396,130.534 369.5,131.5C 371.743,132.474 374.076,132.808 376.5,132.5C 376.5,133.5 376.5,134.5 376.5,135.5C 372.833,135.5 369.167,135.5 365.5,135.5C 365.5,131.167 365.5,126.833 365.5,122.5 Z"/></g>
<g><path style="opacity:0.634" fill="#fefffe" d="M 377.5,122.5 C 381.257,122.071 384.757,122.737 388,124.5C 388.918,127.063 388.418,129.23 386.5,131C 387.687,132.019 388.687,133.186 389.5,134.5C 388.667,134.833 387.833,135.167 387,135.5C 384.931,134.73 383.265,133.397 382,131.5C 381.51,132.793 381.343,134.127 381.5,135.5C 380.167,135.5 378.833,135.5 377.5,135.5C 377.5,131.167 377.5,126.833 377.5,122.5 Z M 381.5,126.5 C 385.588,126.218 386.088,126.885 383,128.5C 381.97,128.164 381.47,127.497 381.5,126.5 Z"/></g>
<g><path style="opacity:0.62" fill="#fefffe" d="M 400.5,122.5 C 403.38,122.033 405.713,122.866 407.5,125C 406.597,127.777 404.931,128.277 402.5,126.5C 398.831,128.257 398.831,130.257 402.5,132.5C 406.383,129.559 407.717,130.393 406.5,135C 398.149,136.65 394.982,133.484 397,125.5C 398.145,124.364 399.312,123.364 400.5,122.5 Z"/></g>
<g><path style="opacity:0.647" fill="#fefffe" d="M 412.5,122.5 C 421.049,122.521 423.716,126.354 420.5,134C 412.329,137.806 408.495,135.306 409,126.5C 410.102,125.051 411.269,123.718 412.5,122.5 Z M 413.5,126.5 C 419.175,126.86 419.842,128.86 415.5,132.5C 412.61,131.163 411.943,129.163 413.5,126.5 Z"/></g>
<g><path style="opacity:0.605" fill="#fefffe" d="M 423.5,122.5 C 426.857,122.106 429.19,123.439 430.5,126.5C 431.875,123.453 434.208,122.12 437.5,122.5C 437.5,126.833 437.5,131.167 437.5,135.5C 436.167,135.5 434.833,135.5 433.5,135.5C 433.662,133.473 433.495,131.473 433,129.5C 431.333,133.5 429.667,133.5 428,129.5C 427.505,131.473 427.338,133.473 427.5,135.5C 426.167,135.5 424.833,135.5 423.5,135.5C 423.5,131.167 423.5,126.833 423.5,122.5 Z"/></g>
<g><path style="opacity:0.605" fill="#fefffe" d="M 438.5,122.5 C 441.857,122.106 444.19,123.439 445.5,126.5C 446.875,123.453 449.208,122.12 452.5,122.5C 452.5,126.833 452.5,131.167 452.5,135.5C 451.167,135.5 449.833,135.5 448.5,135.5C 448.662,133.473 448.495,131.473 448,129.5C 446.333,133.5 444.667,133.5 443,129.5C 442.505,131.473 442.338,133.473 442.5,135.5C 441.167,135.5 439.833,135.5 438.5,135.5C 438.5,131.167 438.5,126.833 438.5,122.5 Z"/></g>
<g><path style="opacity:0.608" fill="#fefffe" d="M 454.5,122.5 C 455.833,122.5 457.167,122.5 458.5,122.5C 458.335,125.518 458.502,128.518 459,131.5C 459.414,131.957 459.914,132.291 460.5,132.5C 461.487,129.232 461.82,125.898 461.5,122.5C 462.833,122.5 464.167,122.5 465.5,122.5C 465.665,126.182 465.499,129.848 465,133.5C 461.667,136.167 458.333,136.167 455,133.5C 454.501,129.848 454.335,126.182 454.5,122.5 Z"/></g>
<g><path style="opacity:0.635" fill="#fefffe" d="M 467.5,122.5 C 468.873,122.343 470.207,122.51 471.5,123C 474.423,128.839 475.757,128.673 475.5,122.5C 476.833,122.5 478.167,122.5 479.5,122.5C 479.5,126.833 479.5,131.167 479.5,135.5C 476.003,134.94 473.503,132.94 472,129.5C 471.505,131.473 471.338,133.473 471.5,135.5C 470.167,135.5 468.833,135.5 467.5,135.5C 467.5,131.167 467.5,126.833 467.5,122.5 Z"/></g>
<g><path style="opacity:0.569" fill="#fefffe" d="M 482.5,122.5 C 483.833,122.5 485.167,122.5 486.5,122.5C 486.5,126.833 486.5,131.167 486.5,135.5C 485.167,135.5 483.833,135.5 482.5,135.5C 482.5,131.167 482.5,126.833 482.5,122.5 Z"/></g>
<g><path style="opacity:0.637" fill="#fefffe" d="M 488.5,122.5 C 491.833,122.5 495.167,122.5 498.5,122.5C 498.5,123.833 498.5,125.167 498.5,126.5C 497.5,126.5 496.5,126.5 495.5,126.5C 495.5,129.5 495.5,132.5 495.5,135.5C 494.167,135.5 492.833,135.5 491.5,135.5C 491.5,132.5 491.5,129.5 491.5,126.5C 490.5,126.5 489.5,126.5 488.5,126.5C 488.5,125.167 488.5,123.833 488.5,122.5 Z"/></g>
<g><path style="opacity:0.606" fill="#fefffe" d="M 511.5,122.5 C 511.5,123.5 511.5,124.5 511.5,125.5C 508.083,127.891 506.75,131.225 507.5,135.5C 506.167,135.5 504.833,135.5 503.5,135.5C 503.662,133.473 503.495,131.473 503,129.5C 501.121,127.473 499.954,125.14 499.5,122.5C 502.48,122.241 504.313,123.574 505,126.5C 506.324,123.756 508.491,122.423 511.5,122.5 Z"/></g>
<g><path style="opacity:1" fill="#a7c6c9" d="M 69.5,125.5 C 70.1582,126.793 70.4915,128.293 70.5,130C 70.0051,137.335 69.3384,144.502 68.5,151.5C 68.464,142.815 68.7974,134.149 69.5,125.5 Z"/></g>
</svg>
