<?xml version="1.0" encoding="UTF-8"?>
<!DOCTYPE svg PUBLIC "-//W3C//DTD SVG 1.1//EN" "http://www.w3.org/Graphics/SVG/1.1/DTD/svg11.dtd">
<svg xmlns="http://www.w3.org/2000/svg" version="1.1" width="1500px" height="1500px" style="shape-rendering:geometricPrecision; text-rendering:geometricPrecision; image-rendering:optimizeQuality; fill-rule:evenodd; clip-rule:evenodd" xmlns:xlink="http://www.w3.org/1999/xlink">
<g><path style="opacity:1" fill="#fefefe" d="M -0.5,-0.5 C 499.5,-0.5 999.5,-0.5 1499.5,-0.5C 1499.5,499.5 1499.5,999.5 1499.5,1499.5C 999.5,1499.5 499.5,1499.5 -0.5,1499.5C -0.5,999.5 -0.5,499.5 -0.5,-0.5 Z"/></g>
<g><path style="opacity:1" fill="#a4c14c" d="M 714.5,203.5 C 828.625,200.983 919.459,245.316 987,336.5C 1042.13,419.276 1056.13,508.609 1029,604.5C 992.37,712.131 919.536,781.965 810.5,814C 695.035,839.934 594.868,812.1 510,730.5C 434.352,648.422 407.685,552.422 430,442.5C 454.49,347.69 510.324,278.19 597.5,234C 634.694,216.453 673.694,206.286 714.5,203.5 Z"/></g>
<g><path style="opacity:1" fill="#fdfdfd" d="M 712.5,221.5 C 817.466,218.412 902.299,257.745 967,339.5C 1026.75,424.755 1039.75,516.755 1006,615.5C 974.943,693.891 920.777,750.058 843.5,784C 747,820.65 655.333,811.317 568.5,756C 493.023,702.758 450.523,629.925 441,537.5C 435.57,425.875 477.737,337.375 567.5,272C 611.476,242.509 659.81,225.675 712.5,221.5 Z"/></g>
<g><path style="opacity:1" fill="#437177" d="M 711.5,243.5 C 809.985,239.836 889.485,276.503 950,353.5C 1007.81,437.336 1017.81,526.67 980,621.5C 941.514,704.008 878.014,756.175 789.5,778C 765.732,782.804 741.732,784.637 717.5,783.5C 715.724,736.911 718.224,690.578 725,644.5C 746.067,626.147 769.734,611.813 796,601.5C 846.133,637.189 890.966,631.522 930.5,584.5C 882.883,547.052 838.216,550.219 796.5,594C 772.712,598.812 750.545,607.646 730,620.5C 733.708,591.671 740.874,563.671 751.5,536.5C 781.785,533.017 808.785,521.85 832.5,503C 853.39,480.358 864.557,453.525 866,422.5C 866.5,414.173 866.666,405.84 866.5,397.5C 785.846,404.651 745.346,448.651 745,529.5C 732.79,550.255 722.456,571.922 714,594.5C 700.876,561.761 693.543,527.761 692,492.5C 741.472,450.749 749.472,402.082 716,346.5C 714.062,343.61 711.895,340.944 709.5,338.5C 682.849,357.316 666.016,382.649 659,414.5C 657.776,442.601 665.109,468.267 681,491.5C 679.79,524.072 683.457,556.072 692,587.5C 694.972,598.439 699.305,608.772 705,618.5C 705.667,620.5 705.667,622.5 705,624.5C 701.928,635.053 699.261,645.72 697,656.5C 680.235,635.292 660.568,617.292 638,602.5C 614.576,547.546 574.076,528.879 516.5,546.5C 536.022,604.271 575.689,626.105 635.5,612C 654.261,630.082 670.761,649.915 685,671.5C 687.585,676.168 689.752,681.002 691.5,686C 686.602,716.966 684.602,748.133 685.5,779.5C 590.364,760.524 522.864,706.857 483,618.5C 447.639,527.421 456.639,441.087 510,359.5C 559.916,291.28 627.083,252.613 711.5,243.5 Z"/></g>
<g><path style="opacity:1" fill="#a2c04a" d="M 820.5,286.5 C 822.451,286.227 823.951,286.893 825,288.5C 842.834,347.495 823.167,388.162 766,410.5C 745.185,351.811 763.352,310.478 820.5,286.5 Z"/></g>
<g><path style="opacity:1" fill="#a2c04a" d="M 551.5,395.5 C 635.318,414.389 669.651,466.389 654.5,551.5C 570.628,532.462 536.295,480.462 551.5,395.5 Z"/></g>
<g><path style="opacity:1" fill="#a2c04a" d="M 880.5,492.5 C 893.573,491.334 906.24,493.001 918.5,497.5C 919.218,500.242 918.718,502.909 917,505.5C 899.211,537.932 873.045,547.265 838.5,533.5C 846.01,512.988 860.01,499.321 880.5,492.5 Z"/></g>
<g><path style="opacity:1" fill="#a2c04a" d="M 771.5,637.5 C 797.947,635.474 819.447,644.808 836,665.5C 840.582,670.991 844.415,676.991 847.5,683.5C 799.814,707.823 762.814,696.823 736.5,650.5C 740.017,647.572 744.017,645.406 748.5,644C 756.252,641.649 763.919,639.483 771.5,637.5 Z"/></g>
<g><path style="opacity:1" fill="#447177" d="M 1159.5,913.5 C 1188.96,911.185 1216.63,917.018 1242.5,931C 1251.34,936.739 1259.34,943.406 1266.5,951C 1255.7,963.969 1244.7,976.802 1233.5,989.5C 1218.58,975.372 1200.91,966.539 1180.5,963C 1146.15,961.365 1121.98,976.198 1108,1007.5C 1098.91,1033.23 1101.24,1057.9 1115,1081.5C 1135.74,1110.19 1163.24,1119.36 1197.5,1109C 1211.55,1103.56 1224.05,1095.73 1235,1085.5C 1246.82,1095.99 1257.99,1107.15 1268.5,1119C 1235.21,1154.99 1194.21,1168.65 1145.5,1160C 1102.82,1150.58 1072.98,1125.75 1056,1085.5C 1037.07,1030.73 1048.24,983.229 1089.5,943C 1109.95,926.271 1133.29,916.438 1159.5,913.5 Z"/></g>
<g><path style="opacity:1" fill="#437177" d="M 192.5,918.5 C 209.833,918.5 227.167,918.5 244.5,918.5C 244.168,950.004 244.502,981.338 245.5,1012.5C 277.5,1012.5 309.5,1012.5 341.5,1012.5C 342.498,981.338 342.832,950.004 342.5,918.5C 359.833,918.5 377.167,918.5 394.5,918.5C 394.5,998.167 394.5,1077.83 394.5,1157.5C 377.167,1157.5 359.833,1157.5 342.5,1157.5C 342.832,1125.33 342.498,1093.33 341.5,1061.5C 309.5,1061.5 277.5,1061.5 245.5,1061.5C 245.5,1093.5 245.5,1125.5 245.5,1157.5C 227.833,1157.5 210.167,1157.5 192.5,1157.5C 192.5,1077.83 192.5,998.167 192.5,918.5 Z"/></g>
<g><path style="opacity:1" fill="#738f96" d="M 192.5,918.5 C 209.992,917.503 227.659,917.17 245.5,917.5C 245.5,949.167 245.5,980.833 245.5,1012.5C 244.502,981.338 244.168,950.004 244.5,918.5C 227.167,918.5 209.833,918.5 192.5,918.5 Z"/></g>
<g><path style="opacity:1" fill="#92a6ab" d="M 395.5,1157.5 C 395.167,1157.5 394.833,1157.5 394.5,1157.5C 394.5,1077.83 394.5,998.167 394.5,918.5C 377.167,918.5 359.833,918.5 342.5,918.5C 342.832,950.004 342.498,981.338 341.5,1012.5C 341.5,980.833 341.5,949.167 341.5,917.5C 359.5,917.5 377.5,917.5 395.5,917.5C 395.5,997.5 395.5,1077.5 395.5,1157.5 Z"/></g>
<g><path style="opacity:1" fill="#738f96" d="M 613.5,918.5 C 573.167,918.5 532.833,918.5 492.5,918.5C 492.5,998.167 492.5,1077.83 492.5,1157.5C 491.501,1077.67 491.167,997.668 491.5,917.5C 532.337,917.168 573.003,917.501 613.5,918.5 Z"/></g>
<g><path style="opacity:1" fill="#437177" d="M 613.5,918.5 C 667.438,923.263 693.605,952.596 692,1006.5C 688.161,1038.5 671.327,1060.5 641.5,1072.5C 660.51,1100.53 679.51,1128.53 698.5,1156.5C 678.34,1157.5 658.007,1157.83 637.5,1157.5C 620.017,1132.55 603.017,1107.22 586.5,1081.5C 572.677,1080.5 558.677,1080.17 544.5,1080.5C 544.5,1106.17 544.5,1131.83 544.5,1157.5C 527.167,1157.5 509.833,1157.5 492.5,1157.5C 492.5,1077.83 492.5,998.167 492.5,918.5C 532.833,918.5 573.167,918.5 613.5,918.5 Z"/></g>
<g><path style="opacity:1" fill="#437177" d="M 773.5,917.5 C 808.835,917.333 844.168,917.5 879.5,918C 923.19,921.741 956.69,941.908 980,978.5C 996.305,1010.69 998.972,1044.02 988,1078.5C 970.474,1122.34 938.308,1148.17 891.5,1156C 852.19,1157.44 812.857,1157.94 773.5,1157.5C 773.5,1077.5 773.5,997.5 773.5,917.5 Z"/></g>
<g><path style="opacity:1" fill="#bfc9cd" d="M 601.5,966.5 C 582.833,966.5 564.167,966.5 545.5,966.5C 545.5,988.833 545.5,1011.17 545.5,1033.5C 564.5,1033.5 583.5,1033.5 602.5,1033.5C 583.341,1034.5 564.007,1034.83 544.5,1034.5C 544.5,1011.5 544.5,988.5 544.5,965.5C 563.674,965.17 582.674,965.503 601.5,966.5 Z"/></g>
<g><path style="opacity:1" fill="#fefefe" d="M 601.5,966.5 C 632.511,969.176 643.678,985.509 635,1015.5C 627.663,1027.59 616.829,1033.59 602.5,1033.5C 583.5,1033.5 564.5,1033.5 545.5,1033.5C 545.5,1011.17 545.5,988.833 545.5,966.5C 564.167,966.5 582.833,966.5 601.5,966.5 Z"/></g>
<g><path style="opacity:1" fill="#fefefe" d="M 826.5,965.5 C 841.837,965.333 857.17,965.5 872.5,966C 915.189,971.024 937.523,995.024 939.5,1038C 938.284,1078.82 917.618,1102.48 877.5,1109C 860.503,1109.5 843.503,1109.67 826.5,1109.5C 826.5,1061.5 826.5,1013.5 826.5,965.5 Z"/></g>
<g><path style="opacity:1" fill="#b3c0c4" d="M 586.5,1081.5 C 572.833,1081.5 559.167,1081.5 545.5,1081.5C 545.831,1107.01 545.498,1132.34 544.5,1157.5C 544.5,1131.83 544.5,1106.17 544.5,1080.5C 558.677,1080.17 572.677,1080.5 586.5,1081.5 Z"/></g>
<g><path style="opacity:1" fill="#aebcc0" d="M 341.5,1061.5 C 342.498,1093.33 342.832,1125.33 342.5,1157.5C 359.833,1157.5 377.167,1157.5 394.5,1157.5C 394.833,1157.5 395.167,1157.5 395.5,1157.5C 377.674,1158.5 359.674,1158.83 341.5,1158.5C 341.5,1126.17 341.5,1093.83 341.5,1061.5 Z"/></g>
<g><path style="opacity:1" fill="#c0cace" d="M 698.5,1156.5 C 699.043,1156.56 699.376,1156.89 699.5,1157.5C 678.671,1158.83 658.004,1158.83 637.5,1157.5C 658.007,1157.83 678.34,1157.5 698.5,1156.5 Z"/></g>
<g><path style="opacity:1" fill="#759097" d="M 195.5,1228.5 C 195.5,1241.83 195.5,1255.17 195.5,1268.5C 203.167,1268.5 210.833,1268.5 218.5,1268.5C 210.684,1269.49 202.684,1269.83 194.5,1269.5C 194.171,1255.66 194.504,1241.99 195.5,1228.5 Z"/></g>
<g><path style="opacity:1" fill="#477379" d="M 195.5,1228.5 C 203.507,1228.33 211.507,1228.5 219.5,1229C 228.721,1233.93 229.721,1240.09 222.5,1247.5C 230.45,1252.66 231.45,1258.82 225.5,1266C 223.559,1267.9 221.226,1268.74 218.5,1268.5C 210.833,1268.5 203.167,1268.5 195.5,1268.5C 195.5,1255.17 195.5,1241.83 195.5,1228.5 Z"/></g>
<g><path style="opacity:1" fill="#4b767c" d="M 238.5,1228.5 C 241.833,1228.5 245.167,1228.5 248.5,1228.5C 248.334,1237.84 248.5,1247.17 249,1256.5C 252.013,1261.54 256.18,1262.7 261.5,1260C 263.049,1258.79 264.215,1257.29 265,1255.5C 265.5,1246.51 265.666,1237.51 265.5,1228.5C 268.5,1228.5 271.5,1228.5 274.5,1228.5C 274.929,1239.24 274.429,1249.91 273,1260.5C 269.2,1267.32 263.367,1270.32 255.5,1269.5C 245.757,1269.26 240.257,1264.26 239,1254.5C 238.5,1245.84 238.334,1237.17 238.5,1228.5 Z"/></g>
<g><path style="opacity:1" fill="#92a6ab" d="M 289.5,1228.5 C 289.5,1241.83 289.5,1255.17 289.5,1268.5C 292.167,1268.5 294.833,1268.5 297.5,1268.5C 297.5,1255.17 297.5,1241.83 297.5,1228.5C 298.496,1241.99 298.829,1255.66 298.5,1269.5C 295.167,1269.5 291.833,1269.5 288.5,1269.5C 288.171,1255.66 288.504,1241.99 289.5,1228.5 Z"/></g>
<g><path style="opacity:1" fill="#437176" d="M 289.5,1228.5 C 292.167,1228.5 294.833,1228.5 297.5,1228.5C 297.5,1241.83 297.5,1255.17 297.5,1268.5C 294.833,1268.5 292.167,1268.5 289.5,1268.5C 289.5,1255.17 289.5,1241.83 289.5,1228.5 Z"/></g>
<g><path style="opacity:1" fill="#b2bfc3" d="M 314.5,1228.5 C 314.5,1241.83 314.5,1255.17 314.5,1268.5C 324.167,1268.5 333.833,1268.5 343.5,1268.5C 333.681,1269.49 323.681,1269.83 313.5,1269.5C 313.171,1255.66 313.504,1241.99 314.5,1228.5 Z"/></g>
<g><path style="opacity:1" fill="#437176" d="M 314.5,1228.5 C 317.167,1228.5 319.833,1228.5 322.5,1228.5C 322.5,1239.5 322.5,1250.5 322.5,1261.5C 329.5,1261.5 336.5,1261.5 343.5,1261.5C 343.5,1263.83 343.5,1266.17 343.5,1268.5C 333.833,1268.5 324.167,1268.5 314.5,1268.5C 314.5,1255.17 314.5,1241.83 314.5,1228.5 Z"/></g>
<g><path style="opacity:1" fill="#738f96" d="M 322.5,1228.5 C 323.494,1238.99 323.828,1249.65 323.5,1260.5C 330.354,1260.18 337.021,1260.51 343.5,1261.5C 336.5,1261.5 329.5,1261.5 322.5,1261.5C 322.5,1250.5 322.5,1239.5 322.5,1228.5 Z"/></g>
<g><path style="opacity:1" fill="#93a7ac" d="M 353.5,1228.5 C 353.5,1241.83 353.5,1255.17 353.5,1268.5C 360.167,1268.5 366.833,1268.5 373.5,1268.5C 366.687,1269.49 359.687,1269.82 352.5,1269.5C 352.171,1255.66 352.504,1241.99 353.5,1228.5 Z"/></g>
<g><path style="opacity:1" fill="#48747a" d="M 353.5,1228.5 C 361.571,1228.14 369.571,1228.64 377.5,1230C 389.111,1235.39 392.944,1244.23 389,1256.5C 386.013,1263.32 380.846,1267.32 373.5,1268.5C 366.833,1268.5 360.167,1268.5 353.5,1268.5C 353.5,1255.17 353.5,1241.83 353.5,1228.5 Z"/></g>
<g><path style="opacity:1" fill="#6f8c93" d="M 402.5,1228.5 C 402.5,1241.83 402.5,1255.17 402.5,1268.5C 405.167,1268.5 407.833,1268.5 410.5,1268.5C 407.713,1269.48 404.713,1269.81 401.5,1269.5C 401.171,1255.66 401.504,1241.99 402.5,1228.5 Z"/></g>
<g><path style="opacity:1" fill="#437176" d="M 402.5,1228.5 C 405.167,1228.5 407.833,1228.5 410.5,1228.5C 410.5,1241.83 410.5,1255.17 410.5,1268.5C 407.833,1268.5 405.167,1268.5 402.5,1268.5C 402.5,1255.17 402.5,1241.83 402.5,1228.5 Z"/></g>
<g><path style="opacity:1" fill="#467278" d="M 450.5,1251.5 C 450.56,1252.04 450.893,1252.38 451.5,1252.5C 452.498,1244.53 452.831,1236.53 452.5,1228.5C 455.167,1228.5 457.833,1228.5 460.5,1228.5C 460.5,1241.83 460.5,1255.17 460.5,1268.5C 458.167,1268.5 455.833,1268.5 453.5,1268.5C 447.27,1261.05 441.27,1253.39 435.5,1245.5C 435.217,1244.71 434.717,1244.04 434,1243.5C 433.5,1251.83 433.334,1260.16 433.5,1268.5C 430.5,1268.5 427.5,1268.5 424.5,1268.5C 424.5,1255.17 424.5,1241.83 424.5,1228.5C 427.518,1228.34 430.518,1228.5 433.5,1229C 439.054,1236.62 444.721,1244.12 450.5,1251.5 Z"/></g>
<g><path style="opacity:1" fill="#91a6aa" d="M 452.5,1228.5 C 452.831,1236.53 452.498,1244.53 451.5,1252.5C 450.893,1252.38 450.56,1252.04 450.5,1251.5C 451.167,1243.83 451.833,1236.17 452.5,1228.5 Z"/></g>
<g><path style="opacity:1" fill="#92a6ab" d="M 460.5,1228.5 C 461.496,1241.99 461.829,1255.66 461.5,1269.5C 458.615,1269.81 455.948,1269.47 453.5,1268.5C 455.833,1268.5 458.167,1268.5 460.5,1268.5C 460.5,1255.17 460.5,1241.83 460.5,1228.5 Z"/></g>
<g><path style="opacity:1" fill="#4a757b" d="M 487.5,1227.5 C 495.492,1226.35 502.492,1228.35 508.5,1233.5C 506.828,1235.67 504.995,1237.67 503,1239.5C 498.201,1236.73 493.034,1235.9 487.5,1237C 481.341,1242.31 479.841,1248.81 483,1256.5C 488.033,1261.48 493.866,1262.65 500.5,1260C 501.423,1257.96 501.756,1255.79 501.5,1253.5C 498.5,1253.5 495.5,1253.5 492.5,1253.5C 492.5,1250.83 492.5,1248.17 492.5,1245.5C 498.5,1245.5 504.5,1245.5 510.5,1245.5C 510.666,1251.51 510.499,1257.51 510,1263.5C 499.806,1270.85 489.306,1271.35 478.5,1265C 468.867,1253.67 469.201,1242.67 479.5,1232C 482.099,1230.2 484.766,1228.7 487.5,1227.5 Z"/></g>
<g><path style="opacity:1" fill="#4c767c" d="M 554.5,1228.5 C 557.572,1228.18 560.572,1228.52 563.5,1229.5C 569.361,1242.42 575.028,1255.42 580.5,1268.5C 577.232,1269.49 573.898,1269.82 570.5,1269.5C 570.55,1261.22 566.55,1258.22 558.5,1260.5C 555.5,1260.83 552.5,1261.17 549.5,1261.5C 548.438,1268.75 544.438,1271.08 537.5,1268.5C 543.174,1255.14 548.841,1241.8 554.5,1228.5 Z"/></g>
<g><path style="opacity:1" fill="#48747a" d="M 608.5,1228.5 C 617.568,1228.12 626.568,1228.62 635.5,1230C 641.759,1235.5 642.093,1241.33 636.5,1247.5C 646.02,1254.86 645.687,1261.7 635.5,1268C 626.582,1269.41 617.582,1269.91 608.5,1269.5C 608.5,1255.83 608.5,1242.17 608.5,1228.5 Z"/></g>
<g><path style="opacity:1" fill="#477379" d="M 653.5,1228.5 C 663.833,1228.5 674.167,1228.5 684.5,1228.5C 684.5,1231.17 684.5,1233.83 684.5,1236.5C 677.167,1236.5 669.833,1236.5 662.5,1236.5C 662.5,1239.17 662.5,1241.83 662.5,1244.5C 668.833,1244.5 675.167,1244.5 681.5,1244.5C 681.5,1247.17 681.5,1249.83 681.5,1252.5C 675.167,1252.5 668.833,1252.5 662.5,1252.5C 662.5,1255.17 662.5,1257.83 662.5,1260.5C 669.833,1260.5 677.167,1260.5 684.5,1260.5C 684.5,1263.17 684.5,1265.83 684.5,1268.5C 674.167,1268.5 663.833,1268.5 653.5,1268.5C 653.5,1255.17 653.5,1241.83 653.5,1228.5 Z"/></g>
<g><path style="opacity:1" fill="#447177" d="M 693.5,1228.5 C 704.5,1228.5 715.5,1228.5 726.5,1228.5C 726.5,1231.17 726.5,1233.83 726.5,1236.5C 722.5,1236.5 718.5,1236.5 714.5,1236.5C 714.5,1247.5 714.5,1258.5 714.5,1269.5C 711.5,1269.5 708.5,1269.5 705.5,1269.5C 705.5,1258.5 705.5,1247.5 705.5,1236.5C 701.5,1236.5 697.5,1236.5 693.5,1236.5C 693.5,1233.83 693.5,1231.17 693.5,1228.5 Z"/></g>
<g><path style="opacity:1" fill="#447177" d="M 767.5,1236.5 C 763.167,1236.5 758.833,1236.5 754.5,1236.5C 754.5,1247.17 754.5,1257.83 754.5,1268.5C 751.833,1268.5 749.167,1268.5 746.5,1268.5C 746.5,1257.83 746.5,1247.17 746.5,1236.5C 742.167,1236.5 737.833,1236.5 733.5,1236.5C 733.5,1233.83 733.5,1231.17 733.5,1228.5C 744.833,1228.5 756.167,1228.5 767.5,1228.5C 767.5,1231.17 767.5,1233.83 767.5,1236.5 Z"/></g>
<g><path style="opacity:1" fill="#447278" d="M 785.5,1252.5 C 784.523,1255.29 784.19,1258.29 784.5,1261.5C 791.833,1261.5 799.167,1261.5 806.5,1261.5C 806.5,1263.83 806.5,1266.17 806.5,1268.5C 796.167,1268.5 785.833,1268.5 775.5,1268.5C 775.5,1255.17 775.5,1241.83 775.5,1228.5C 785.833,1228.5 796.167,1228.5 806.5,1228.5C 806.5,1231.17 806.5,1233.83 806.5,1236.5C 799.167,1236.5 791.833,1236.5 784.5,1236.5C 784.5,1239.17 784.5,1241.83 784.5,1244.5C 790.833,1244.5 797.167,1244.5 803.5,1244.5C 803.5,1247.17 803.5,1249.83 803.5,1252.5C 797.5,1252.5 791.5,1252.5 785.5,1252.5 Z"/></g>
<g><path style="opacity:1" fill="#b9c5c9" d="M 817.5,1228.5 C 817.5,1241.83 817.5,1255.17 817.5,1268.5C 820.5,1268.5 823.5,1268.5 826.5,1268.5C 823.375,1269.48 820.042,1269.81 816.5,1269.5C 816.171,1255.66 816.504,1241.99 817.5,1228.5 Z"/></g>
<g><path style="opacity:1" fill="#477379" d="M 817.5,1228.5 C 825.507,1228.33 833.507,1228.5 841.5,1229C 851.447,1233.07 853.947,1239.9 849,1249.5C 847.127,1251.71 844.96,1253.54 842.5,1255C 845.877,1258.93 848.877,1263.1 851.5,1267.5C 848.375,1268.48 845.042,1268.81 841.5,1268.5C 838.966,1264.61 836.3,1260.78 833.5,1257C 831.19,1256.5 828.857,1256.34 826.5,1256.5C 826.5,1260.5 826.5,1264.5 826.5,1268.5C 823.5,1268.5 820.5,1268.5 817.5,1268.5C 817.5,1255.17 817.5,1241.83 817.5,1228.5 Z"/></g>
<g><path style="opacity:1" fill="#4a757b" d="M 895.5,1227.5 C 903.624,1226.24 910.624,1228.41 916.5,1234C 915.042,1236.46 913.209,1238.63 911,1240.5C 905.587,1236.18 899.754,1235.51 893.5,1238.5C 888.194,1245.3 888.194,1252.13 893.5,1259C 899.66,1262.55 905.493,1262.05 911,1257.5C 916.424,1259.45 917.258,1262.28 913.5,1266C 904.234,1270.98 895.234,1270.64 886.5,1265C 874.692,1248.78 877.692,1236.28 895.5,1227.5 Z"/></g>
<g><path style="opacity:1" fill="#49757b" d="M 940.5,1227.5 C 962.038,1227.52 970.205,1237.85 965,1258.5C 956.41,1270.21 945.577,1272.71 932.5,1266C 924.066,1257.84 922.232,1248.34 927,1237.5C 930.579,1232.73 935.079,1229.4 940.5,1227.5 Z"/></g>
<g><path style="opacity:1" fill="#6f8c93" d="M 978.5,1228.5 C 978.5,1241.83 978.5,1255.17 978.5,1268.5C 981.167,1268.5 983.833,1268.5 986.5,1268.5C 983.713,1269.48 980.713,1269.81 977.5,1269.5C 977.171,1255.66 977.504,1241.99 978.5,1228.5 Z"/></g>
<g><path style="opacity:1" fill="#457278" d="M 978.5,1228.5 C 981.518,1228.34 984.518,1228.5 987.5,1229C 991.125,1234.42 994.625,1239.92 998,1245.5C 1001.38,1239.92 1004.88,1234.42 1008.5,1229C 1011.82,1228.5 1015.15,1228.33 1018.5,1228.5C 1018.5,1242.17 1018.5,1255.83 1018.5,1269.5C 1015.5,1269.5 1012.5,1269.5 1009.5,1269.5C 1009.67,1260.83 1009.5,1252.16 1009,1243.5C 1005.72,1249.11 1002.06,1254.44 998,1259.5C 993.943,1254.44 990.276,1249.11 987,1243.5C 986.5,1251.83 986.334,1260.16 986.5,1268.5C 983.833,1268.5 981.167,1268.5 978.5,1268.5C 978.5,1255.17 978.5,1241.83 978.5,1228.5 Z"/></g>
<g><path style="opacity:1" fill="#9eb0b4" d="M 1031.5,1228.5 C 1031.5,1241.83 1031.5,1255.17 1031.5,1268.5C 1034.17,1268.5 1036.83,1268.5 1039.5,1268.5C 1039.33,1260.16 1039.5,1251.83 1040,1243.5C 1040.72,1244.04 1041.22,1244.71 1041.5,1245.5C 1040.51,1253.32 1040.17,1261.32 1040.5,1269.5C 1037.17,1269.5 1033.83,1269.5 1030.5,1269.5C 1030.17,1255.66 1030.5,1241.99 1031.5,1228.5 Z"/></g>
<g><path style="opacity:1" fill="#457278" d="M 1031.5,1228.5 C 1034.9,1228.18 1038.23,1228.51 1041.5,1229.5C 1044.6,1234.71 1047.93,1239.71 1051.5,1244.5C 1055.03,1239.47 1058.36,1234.3 1061.5,1229C 1064.82,1228.5 1068.15,1228.33 1071.5,1228.5C 1071.5,1241.83 1071.5,1255.17 1071.5,1268.5C 1068.83,1268.5 1066.17,1268.5 1063.5,1268.5C 1063.67,1259.83 1063.5,1251.16 1063,1242.5C 1062.28,1243.04 1061.78,1243.71 1061.5,1244.5C 1058.42,1249.64 1055.09,1254.64 1051.5,1259.5C 1047.79,1255.12 1044.45,1250.45 1041.5,1245.5C 1041.22,1244.71 1040.72,1244.04 1040,1243.5C 1039.5,1251.83 1039.33,1260.16 1039.5,1268.5C 1036.83,1268.5 1034.17,1268.5 1031.5,1268.5C 1031.5,1255.17 1031.5,1241.83 1031.5,1228.5 Z"/></g>
<g><path style="opacity:1" fill="#477379" d="M 1083.5,1228.5 C 1086.5,1228.5 1089.5,1228.5 1092.5,1228.5C 1092.33,1237.17 1092.5,1245.84 1093,1254.5C 1095.28,1261.46 1099.78,1263.3 1106.5,1260C 1107.89,1258.83 1108.73,1257.33 1109,1255.5C 1109.5,1246.51 1109.67,1237.51 1109.5,1228.5C 1112.5,1228.5 1115.5,1228.5 1118.5,1228.5C 1118.93,1239.24 1118.43,1249.91 1117,1260.5C 1113.65,1266.85 1108.31,1269.85 1101,1269.5C 1093.76,1269.88 1088.43,1266.88 1085,1260.5C 1083.57,1249.91 1083.07,1239.24 1083.5,1228.5 Z"/></g>
<g><path style="opacity:1" fill="#467278" d="M 1156.5,1251.5 C 1156.56,1252.04 1156.89,1252.38 1157.5,1252.5C 1158.5,1244.53 1158.83,1236.53 1158.5,1228.5C 1161.17,1228.5 1163.83,1228.5 1166.5,1228.5C 1166.5,1241.83 1166.5,1255.17 1166.5,1268.5C 1164.17,1268.5 1161.83,1268.5 1159.5,1268.5C 1153.27,1261.05 1147.27,1253.39 1141.5,1245.5C 1141.22,1244.71 1140.72,1244.04 1140,1243.5C 1139.5,1251.83 1139.33,1260.16 1139.5,1268.5C 1136.5,1268.5 1133.5,1268.5 1130.5,1268.5C 1130.5,1255.17 1130.5,1241.83 1130.5,1228.5C 1133.52,1228.34 1136.52,1228.5 1139.5,1229C 1145.05,1236.62 1150.72,1244.12 1156.5,1251.5 Z"/></g>
<g><path style="opacity:1" fill="#91a6aa" d="M 1158.5,1228.5 C 1158.83,1236.53 1158.5,1244.53 1157.5,1252.5C 1156.89,1252.38 1156.56,1252.04 1156.5,1251.5C 1157.17,1243.83 1157.83,1236.17 1158.5,1228.5 Z"/></g>
<g><path style="opacity:1" fill="#92a6ab" d="M 1166.5,1228.5 C 1167.5,1241.99 1167.83,1255.66 1167.5,1269.5C 1164.61,1269.81 1161.95,1269.47 1159.5,1268.5C 1161.83,1268.5 1164.17,1268.5 1166.5,1268.5C 1166.5,1255.17 1166.5,1241.83 1166.5,1228.5 Z"/></g>
<g><path style="opacity:1" fill="#437176" d="M 1190.5,1228.5 C 1190.5,1241.83 1190.5,1255.17 1190.5,1268.5C 1187.83,1268.5 1185.17,1268.5 1182.5,1268.5C 1182.5,1255.17 1182.5,1241.83 1182.5,1228.5C 1185.17,1228.5 1187.83,1228.5 1190.5,1228.5 Z"/></g>
<g><path style="opacity:1" fill="#6f8c93" d="M 1190.5,1228.5 C 1191.5,1241.99 1191.83,1255.66 1191.5,1269.5C 1188.29,1269.81 1185.29,1269.48 1182.5,1268.5C 1185.17,1268.5 1187.83,1268.5 1190.5,1268.5C 1190.5,1255.17 1190.5,1241.83 1190.5,1228.5 Z"/></g>
<g><path style="opacity:1" fill="#447177" d="M 1200.5,1228.5 C 1211.5,1228.5 1222.5,1228.5 1233.5,1228.5C 1233.5,1231.17 1233.5,1233.83 1233.5,1236.5C 1229.5,1236.5 1225.5,1236.5 1221.5,1236.5C 1221.5,1247.5 1221.5,1258.5 1221.5,1269.5C 1218.5,1269.5 1215.5,1269.5 1212.5,1269.5C 1212.5,1258.5 1212.5,1247.5 1212.5,1236.5C 1208.5,1236.5 1204.5,1236.5 1200.5,1236.5C 1200.5,1233.83 1200.5,1231.17 1200.5,1228.5 Z"/></g>
<g><path style="opacity:1" fill="#49747a" d="M 1239.5,1229.5 C 1243.02,1228.19 1246.69,1228.19 1250.5,1229.5C 1253.01,1234.54 1256.01,1239.21 1259.5,1243.5C 1262.5,1238.83 1265.5,1234.17 1268.5,1229.5C 1272.12,1228.34 1275.79,1228.17 1279.5,1229C 1274.33,1236.83 1269.17,1244.67 1264,1252.5C 1263.5,1258.16 1263.33,1263.82 1263.5,1269.5C 1260.5,1269.5 1257.5,1269.5 1254.5,1269.5C 1254.67,1263.49 1254.5,1257.49 1254,1251.5C 1249.3,1243.99 1244.47,1236.66 1239.5,1229.5 Z"/></g>
<g><path style="opacity:1" fill="#fcfdfd" d="M 203.5,1236.5 C 207.514,1236.33 211.514,1236.5 215.5,1237C 217.725,1239.02 218.059,1241.36 216.5,1244C 212.179,1244.5 207.846,1244.67 203.5,1244.5C 203.5,1241.83 203.5,1239.17 203.5,1236.5 Z"/></g>
<g><path style="opacity:1" fill="#fdfefe" d="M 362.5,1236.5 C 379.197,1235.68 384.197,1242.85 377.5,1258C 372.777,1260.24 367.777,1261.07 362.5,1260.5C 362.5,1252.5 362.5,1244.5 362.5,1236.5 Z"/></g>
<g><path style="opacity:1" fill="#fdfdfd" d="M 617.5,1236.5 C 621.514,1236.33 625.514,1236.5 629.5,1237C 632.054,1239.4 632.054,1241.73 629.5,1244C 625.514,1244.5 621.514,1244.67 617.5,1244.5C 617.5,1241.83 617.5,1239.17 617.5,1236.5 Z"/></g>
<g><path style="opacity:1" fill="#f7f9f9" d="M 826.5,1236.5 C 830.514,1236.33 834.514,1236.5 838.5,1237C 840.91,1237.76 841.91,1239.42 841.5,1242C 841.833,1244.67 840.833,1246.67 838.5,1248C 834.514,1248.5 830.514,1248.67 826.5,1248.5C 826.5,1244.5 826.5,1240.5 826.5,1236.5 Z"/></g>
<g><path style="opacity:1" fill="#fcfcfc" d="M 940.5,1236.5 C 954.656,1235.49 959.822,1241.82 956,1255.5C 952.366,1260.29 947.533,1262.12 941.5,1261C 935.15,1257.29 932.65,1251.79 934,1244.5C 935.305,1241.04 937.471,1238.37 940.5,1236.5 Z"/></g>
<g><path style="opacity:1" fill="#9badb2" d="M 733.5,1236.5 C 737.833,1236.5 742.167,1236.5 746.5,1236.5C 746.5,1247.17 746.5,1257.83 746.5,1268.5C 749.167,1268.5 751.833,1268.5 754.5,1268.5C 754.5,1257.83 754.5,1247.17 754.5,1236.5C 758.833,1236.5 763.167,1236.5 767.5,1236.5C 763.702,1237.48 759.702,1237.82 755.5,1237.5C 755.5,1248.17 755.5,1258.83 755.5,1269.5C 752.167,1269.5 748.833,1269.5 745.5,1269.5C 745.5,1258.83 745.5,1248.17 745.5,1237.5C 741.298,1237.82 737.298,1237.48 733.5,1236.5 Z"/></g>
<g><path style="opacity:1" fill="#f5f6f7" d="M 558.5,1239.5 C 560.391,1242.96 562.058,1246.62 563.5,1250.5C 560.572,1251.48 557.572,1251.82 554.5,1251.5C 555.26,1247.31 556.593,1243.31 558.5,1239.5 Z"/></g>
<g><path style="opacity:1" fill="#738f96" d="M 1071.5,1268.5 C 1068.71,1269.48 1065.71,1269.81 1062.5,1269.5C 1062.83,1260.98 1062.49,1252.65 1061.5,1244.5C 1061.78,1243.71 1062.28,1243.04 1063,1242.5C 1063.5,1251.16 1063.67,1259.83 1063.5,1268.5C 1066.17,1268.5 1068.83,1268.5 1071.5,1268.5 Z"/></g>
<g><path style="opacity:1" fill="#b5c1c5" d="M 435.5,1245.5 C 434.508,1253.32 434.174,1261.32 434.5,1269.5C 430.958,1269.81 427.625,1269.48 424.5,1268.5C 427.5,1268.5 430.5,1268.5 433.5,1268.5C 433.334,1260.16 433.5,1251.83 434,1243.5C 434.717,1244.04 435.217,1244.71 435.5,1245.5 Z"/></g>
<g><path style="opacity:1" fill="#b5c1c5" d="M 1141.5,1245.5 C 1140.51,1253.32 1140.17,1261.32 1140.5,1269.5C 1136.96,1269.81 1133.62,1269.48 1130.5,1268.5C 1133.5,1268.5 1136.5,1268.5 1139.5,1268.5C 1139.33,1260.16 1139.5,1251.83 1140,1243.5C 1140.72,1244.04 1141.22,1244.71 1141.5,1245.5 Z"/></g>
<g><path style="opacity:1" fill="#f6f8f8" d="M 203.5,1252.5 C 208.179,1252.33 212.845,1252.5 217.5,1253C 221.405,1255.48 221.405,1258.14 217.5,1261C 212.845,1261.5 208.179,1261.67 203.5,1261.5C 203.5,1258.5 203.5,1255.5 203.5,1252.5 Z"/></g>
<g><path style="opacity:1" fill="#f5f7f7" d="M 617.5,1252.5 C 622.179,1252.33 626.845,1252.5 631.5,1253C 635.765,1256.61 635.098,1259.28 629.5,1261C 625.514,1261.5 621.514,1261.67 617.5,1261.5C 617.5,1258.5 617.5,1255.5 617.5,1252.5 Z"/></g>
<g><path style="opacity:1" fill="#a3b3b8" d="M 653.5,1228.5 C 653.5,1241.83 653.5,1255.17 653.5,1268.5C 663.833,1268.5 674.167,1268.5 684.5,1268.5C 674.013,1269.49 663.346,1269.83 652.5,1269.5C 652.171,1255.66 652.504,1241.99 653.5,1228.5 Z"/></g>
<g><path style="opacity:1" fill="#98abaf" d="M 785.5,1252.5 C 785.5,1255.17 785.5,1257.83 785.5,1260.5C 792.833,1260.5 800.167,1260.5 807.5,1260.5C 807.5,1263.5 807.5,1266.5 807.5,1269.5C 796.654,1269.83 785.987,1269.49 775.5,1268.5C 785.833,1268.5 796.167,1268.5 806.5,1268.5C 806.5,1266.17 806.5,1263.83 806.5,1261.5C 799.167,1261.5 791.833,1261.5 784.5,1261.5C 784.19,1258.29 784.523,1255.29 785.5,1252.5 Z"/></g>
<g><path style="opacity:1" fill="#98abaf" d="M 851.5,1267.5 C 852.043,1267.56 852.376,1267.89 852.5,1268.5C 848.685,1269.81 845.019,1269.81 841.5,1268.5C 845.042,1268.81 848.375,1268.48 851.5,1267.5 Z"/></g>
</svg>
