<svg version="1.1" id="Layer_1" xmlns="http://www.w3.org/2000/svg" xmlns:xlink="http://www.w3.org/1999/xlink" x="0px" y="0px"
	 width="100%" viewBox="0 0 174 174" enable-background="new 0 0 174 174" xml:space="preserve">
<path fill="#FFFFFF" opacity="1.000000" stroke="none" 
	d="
M84.000000,175.000000 
	C56.000000,175.000000 28.500004,175.000000 1.000004,175.000000 
	C1.000002,117.000008 1.000002,59.000011 1.000001,1.000011 
	C58.999989,1.000008 116.999977,1.000008 174.999969,1.000004 
	C174.999985,58.999989 174.999985,116.999977 175.000000,174.999985 
	C144.833328,175.000000 114.666664,175.000000 84.000000,175.000000 
M71.239700,65.240356 
	C72.043983,62.363503 72.848259,59.486649 73.730820,56.329758 
	C69.314590,56.329758 66.284271,56.329758 63.183350,56.329758 
	C63.183350,61.893353 63.183350,67.079758 63.183350,72.557571 
	C64.086685,71.972710 64.635597,71.617325 65.916847,72.134186 
	C64.804321,73.544373 63.812885,75.074913 62.554939,76.340561 
	C59.619778,79.293701 56.286709,81.900383 53.681709,85.107811 
	C52.680058,86.341103 53.218273,88.825027 53.054855,90.739113 
	C55.005890,90.821053 57.481663,91.696938 58.801857,90.824394 
	C61.816841,88.831718 64.168007,85.866112 66.972549,83.514862 
	C69.848419,81.103821 72.943024,78.953682 75.732849,77.742188 
	C71.136909,82.421753 66.540962,87.101318 61.276291,92.357124 
	C61.183388,100.097046 61.013851,107.837296 61.046513,115.576691 
	C61.055740,117.762993 61.656475,119.946808 62.526981,122.786674 
	C67.181236,122.858368 71.839996,122.828957 76.488205,123.036102 
	C79.776703,123.182640 80.961411,121.671089 80.918915,118.569077 
	C80.843681,113.077179 80.986542,107.581657 80.869713,102.091232 
	C80.807144,99.151054 81.858749,97.806656 84.934555,97.926025 
	C88.923424,98.080826 92.929817,98.109421 96.915596,97.918922 
	C100.322670,97.756065 101.220497,99.359123 101.137512,102.441757 
	C100.994240,107.764366 100.935722,113.102066 101.206024,118.414894 
	C101.283463,119.937096 102.584312,122.660675 103.376228,122.679794 
	C108.914536,122.813583 114.466499,122.382210 120.703239,121.592995 
	C120.791008,112.240799 120.893959,102.888649 120.922493,93.536270 
	C120.923943,93.059647 120.285332,92.581078 119.383827,91.732513 
	C114.938400,86.723640 110.492973,81.714775 107.253052,76.865967 
	C112.328705,81.400520 117.227089,86.164696 122.600578,90.313492 
	C124.001678,91.395256 126.883186,90.559608 129.084763,90.604607 
	C128.708679,88.576859 129.048904,85.823471 127.844643,84.634674 
	C116.944641,73.874641 105.763130,63.400146 94.692108,52.812698 
	C92.171249,50.401943 89.801994,50.399414 87.298332,52.823139 
	C83.470238,56.529003 79.666718,60.269199 75.667435,63.783955 
	C74.428864,64.872475 72.588020,65.275703 71.239700,65.240356 
z"/>
<path fill="#96C33F" opacity="1.000000" stroke="none" 
	d="
M61.945015,91.780876 
	C66.540962,87.101318 71.136909,82.421753 75.855820,77.209457 
	C76.630081,75.929810 77.281372,75.182884 78.295494,74.601669 
	C81.109711,72.532623 83.561104,70.297882 86.331299,67.919052 
	C89.902641,63.347977 92.961929,65.170059 96.140060,68.360138 
	C98.883911,70.583153 101.475792,72.509766 104.307541,74.501564 
	C105.047455,75.279800 105.547501,75.992851 106.047546,76.705902 
	C110.492973,81.714775 114.938400,86.723640 119.683777,92.378845 
	C119.993858,102.727364 120.003975,112.429543 120.014091,122.131729 
	C114.466499,122.382210 108.914536,122.813583 103.376228,122.679794 
	C102.584312,122.660675 101.283463,119.937096 101.206024,118.414894 
	C100.935722,113.102066 100.994240,107.764366 101.137512,102.441757 
	C101.220497,99.359123 100.322670,97.756065 96.915596,97.918922 
	C92.929817,98.109421 88.923424,98.080826 84.934555,97.926025 
	C81.858749,97.806656 80.807144,99.151054 80.869713,102.091232 
	C80.986542,107.581657 80.843681,113.077179 80.918915,118.569077 
	C80.961411,121.671089 79.776703,123.182640 76.488205,123.036102 
	C71.839996,122.828957 67.181236,122.858368 62.260441,121.979820 
	C61.977604,111.375603 61.961308,101.578239 61.945015,91.780876 
z"/>
<path fill="#18777C" opacity="1.000000" stroke="none" 
	d="
M106.650299,76.785934 
	C105.547501,75.992851 105.047455,75.279800 104.468826,74.144905 
	C101.985809,71.452217 99.581375,69.181374 97.036743,66.603577 
	C90.696991,60.282978 90.696991,60.282978 84.518478,67.051201 
	C82.122017,69.605026 80.027336,72.020493 77.932663,74.435959 
	C77.281372,75.182884 76.630081,75.929810 75.960350,76.683044 
	C72.943024,78.953682 69.848419,81.103821 66.972549,83.514862 
	C64.168007,85.866112 61.816841,88.831718 58.801857,90.824394 
	C57.481663,91.696938 55.005890,90.821053 53.054855,90.739113 
	C53.218273,88.825027 52.680058,86.341103 53.681709,85.107811 
	C56.286709,81.900383 59.619778,79.293701 62.554939,76.340561 
	C63.812885,75.074913 64.804321,73.544373 65.523727,71.729713 
	C65.130615,71.325241 65.438271,70.990669 65.671600,71.431900 
	C66.269211,71.145218 66.633492,70.417305 67.047997,69.366348 
	C68.406448,68.026428 69.714684,67.009552 71.022919,65.992676 
	C72.588020,65.275703 74.428864,64.872475 75.667435,63.783955 
	C79.666718,60.269199 83.470238,56.529003 87.298332,52.823139 
	C89.801994,50.399414 92.171249,50.401943 94.692108,52.812698 
	C105.763130,63.400146 116.944641,73.874641 127.844643,84.634674 
	C129.048904,85.823471 128.708679,88.576859 129.084763,90.604599 
	C126.883186,90.559608 124.001678,91.395256 122.600578,90.313492 
	C117.227089,86.164696 112.328705,81.400520 106.650299,76.785934 
z"/>
<path fill="#15757B" opacity="1.000000" stroke="none" 
	d="
M71.131310,65.616516 
	C69.714684,67.009552 68.406448,68.026428 66.748901,69.531769 
	C66.079147,70.343712 65.758713,70.667191 65.438278,70.990677 
	C65.438271,70.990669 65.130615,71.325241 65.157562,71.293587 
	C64.635597,71.617325 64.086685,71.972710 63.183350,72.557571 
	C63.183350,67.079758 63.183350,61.893353 63.183350,56.329758 
	C66.284271,56.329758 69.314590,56.329758 73.730820,56.329758 
	C72.848259,59.486649 72.043983,62.363503 71.131310,65.616516 
z"/>
<path fill="#7DB34A" opacity="1.000000" stroke="none" 
	d="
M61.610653,92.069000 
	C61.961308,101.578239 61.977604,111.375603 61.989914,121.652359 
	C61.656475,119.946808 61.055740,117.762993 61.046513,115.576691 
	C61.013851,107.837296 61.183388,100.097046 61.610653,92.069000 
z"/>
<path fill="#7DB34A" opacity="1.000000" stroke="none" 
	d="
M120.358665,121.862366 
	C120.003975,112.429543 119.993858,102.727364 119.964233,92.564301 
	C120.285332,92.581078 120.923943,93.059647 120.922493,93.536270 
	C120.893959,102.888649 120.791008,112.240799 120.358665,121.862366 
z"/>
<path fill="#EBF3F3" opacity="1.000000" stroke="none" 
	d="
M84.820274,66.912842 
	C90.696991,60.282978 90.696991,60.282978 96.782806,66.733170 
	C96.442078,67.467720 96.215080,67.765724 95.988083,68.063736 
	C92.961929,65.170059 89.902641,63.347977 86.198212,67.666809 
	C85.437637,67.343376 85.128960,67.128105 84.820274,66.912842 
z"/>
<path fill="#FFFFFF" opacity="1.000000" stroke="none" 
	d="
M84.518478,67.051201 
	C85.128960,67.128105 85.437637,67.343376 85.879410,67.810883 
	C83.561104,70.297882 81.109711,72.532623 78.295494,74.601669 
	C80.027336,72.020493 82.122017,69.605026 84.518478,67.051201 
z"/>
<path fill="#FFFFFF" opacity="1.000000" stroke="none" 
	d="
M96.140060,68.360138 
	C96.215080,67.765724 96.442078,67.467720 96.923004,67.040123 
	C99.581375,69.181374 101.985809,71.452217 104.228958,74.079727 
	C101.475792,72.509766 98.883911,70.583153 96.140060,68.360138 
z"/>
<path fill="#FFFFFF" opacity="1.000000" stroke="none" 
	d="
M65.671600,71.431908 
	C65.758713,70.667191 66.079147,70.343712 66.698685,69.854813 
	C66.633492,70.417305 66.269211,71.145218 65.671600,71.431908 
z"/>
</svg>