<?xml version="1.0" encoding="UTF-8"?>
<!DOCTYPE svg PUBLIC "-//W3C//DTD SVG 1.1//EN" "http://www.w3.org/Graphics/SVG/1.1/DTD/svg11.dtd">
<svg xmlns="http://www.w3.org/2000/svg" version="1.1" width="137px" height="164px" style="shape-rendering:geometricPrecision; text-rendering:geometricPrecision; image-rendering:optimizeQuality; fill-rule:evenodd; clip-rule:evenodd" xmlns:xlink="http://www.w3.org/1999/xlink">
<g><path style="opacity:0.914" fill="#fefffe" d="M 97.5,-0.5 C 99.1667,-0.5 100.833,-0.5 102.5,-0.5C 108.723,19.7182 102.057,33.7182 82.5,41.5C 74.0478,22.623 79.0478,8.62299 97.5,-0.5 Z"/></g>
<g><path style="opacity:0.911" fill="#fefffe" d="M 136.5,96.5 C 136.5,97.5 136.5,98.5 136.5,99.5C 123.683,113.165 109.35,114.999 93.5,105C 92.1667,104.333 90.8333,104.333 89.5,105C 82.5018,108.497 75.8352,112.497 69.5,117C 67.0779,132.352 66.0779,147.852 66.5,163.5C 63.1667,163.5 59.8333,163.5 56.5,163.5C 55.2703,160.769 54.6036,157.769 54.5,154.5C 55.4086,145.834 55.9086,137.167 56,128.5C 50.7564,120.586 44.7564,113.252 38,106.5C 19.9267,111.377 7.09332,105.377 -0.5,88.5C -0.5,87.1667 -0.5,85.8333 -0.5,84.5C 18.6775,78.1784 32.1775,84.1784 40,102.5C 47.5762,106.741 53.9095,112.408 59,119.5C 59.5213,116.081 60.3546,112.748 61.5,109.5C 54.8001,95.9746 51.9667,81.6413 53,66.5C 41.0733,46.635 44.5733,29.9684 63.5,16.5C 77.8939,34.8032 76.3939,51.8032 59,67.5C 58.9364,78.5176 60.9364,89.1843 65,99.5C 68.194,92.9171 71.194,86.2505 74,79.5C 74.3288,52.0064 88.1621,37.3397 115.5,35.5C 117.807,62.8544 105.307,78.5211 78,82.5C 74.5534,90.2748 72.72,98.2748 72.5,106.5C 78.5197,103.438 84.853,101.271 91.5,100C 105.566,86.0432 120.566,84.8765 136.5,96.5 Z"/></g>
<g><path style="opacity:0.935" fill="#fefffe" d="M 10.5,34.5 C 40.1145,40.3991 51.6145,58.0657 45,87.5C 16.4676,81.1039 4.96764,63.4372 10.5,34.5 Z"/></g>
<g><path style="opacity:0.879" fill="#fefffe" d="M 118.5,66.5 C 135.583,64.6051 137.916,69.4385 125.5,81C 118.511,84.2526 111.511,84.2526 104.5,81C 107.38,74.2888 112.047,69.4554 118.5,66.5 Z"/></g>
<g><path style="opacity:0.907" fill="#fefffe" d="M 79.5,114.5 C 93.7678,111.635 103.768,116.802 109.5,130C 93.4102,138.875 80.7436,135.375 71.5,119.5C 73.8915,117.309 76.5582,115.642 79.5,114.5 Z"/></g>
</svg>
