<?xml version="1.0" encoding="UTF-8"?>
<!DOCTYPE svg PUBLIC "-//W3C//DTD SVG 1.1//EN" "http://www.w3.org/Graphics/SVG/1.1/DTD/svg11.dtd">
<svg xmlns="http://www.w3.org/2000/svg" version="1.1" width="600px" height="348px" style="shape-rendering:geometricPrecision; text-rendering:geometricPrecision; image-rendering:optimizeQuality; fill-rule:evenodd; clip-rule:evenodd" xmlns:xlink="http://www.w3.org/1999/xlink">
<g><path style="opacity:0.681" fill="#5fbe00" d="M 265.5,-0.5 C 272.167,-0.5 278.833,-0.5 285.5,-0.5C 318.066,9.9366 330.566,31.9366 323,65.5C 311.732,89.7179 292.899,99.5512 266.5,95C 246.665,87.1627 239.832,72.9961 246,52.5C 254.956,39.2429 266.456,36.4095 280.5,44C 285.696,49.6589 286.696,55.8255 283.5,62.5C 285.818,49.9834 280.651,42.9834 268,41.5C 252.267,43.5724 244.934,52.5724 246,68.5C 250.488,84.6463 261.154,92.9796 278,93.5C 300.959,91.2082 315.293,78.8748 321,56.5C 322.562,24.5571 307.395,6.89039 275.5,3.5C 248.185,6.64422 231.352,21.6442 225,48.5C 224.833,52.3333 224.667,56.1667 224.5,60C 225.629,75.5299 227.129,91.0299 229,106.5C 229.667,120.167 229.667,133.833 229,147.5C 228.558,155.492 227.392,163.325 225.5,171C 227.337,189.141 225.503,206.975 220,224.5C 215.394,236.698 210.06,248.365 204,259.5C 220.242,249.6 236.742,240.1 253.5,231C 277.442,210.619 289.609,184.786 290,153.5C 290.881,150.398 292.714,148.064 295.5,146.5C 297.466,149.549 297.966,152.882 297,156.5C 296.027,158.64 294.527,160.307 292.5,161.5C 290.721,187.217 280.721,209.05 262.5,227C 277.661,221.836 292.994,216.836 308.5,212C 324.651,207.77 340.984,204.437 357.5,202C 382.217,193.606 402.05,178.773 417,157.5C 419.914,152.346 422.248,147.012 424,141.5C 425.734,137.927 428.568,136.26 432.5,136.5C 432.665,143.844 429.165,148.511 422,150.5C 411.386,173.382 394.553,189.882 371.5,200C 398.841,199.623 426.174,198.623 453.5,197C 484.714,195.302 511.214,183.469 533,161.5C 547.75,143.669 551.75,123.669 545,101.5C 533.733,76.9499 514.9,67.4499 488.5,73C 464.715,84.3583 457.881,102.192 468,126.5C 479.855,141.784 494.688,145.617 512.5,138C 491.602,147.568 475.436,142.402 464,122.5C 457.081,93.8331 467.914,75.9998 496.5,69C 528.094,68.585 546.261,84.085 551,115.5C 552.029,138.606 543.862,157.773 526.5,173C 517.528,180.623 507.528,186.623 496.5,191C 534.366,195.867 552.199,217.367 550,255.5C 541.71,288.415 520.543,303.249 486.5,300C 460.628,293.798 446.628,277.464 444.5,251C 447.947,225.532 462.28,214.532 487.5,218C 504.753,226.086 509.586,238.919 502,256.5C 496.753,261.674 496.419,261.341 501,255.5C 507.539,234.836 500.039,222.503 478.5,218.5C 462.811,220.585 452.978,229.252 449,244.5C 447.12,267.959 456.953,284.459 478.5,294C 501.613,301.296 521.113,295.796 537,277.5C 552.993,251.121 549.827,227.288 527.5,206C 513.653,196.296 498.32,192.962 481.5,196C 468.687,199.191 455.687,201.191 442.5,202C 409.673,202.246 377.007,204.58 344.5,209C 333.044,211.158 321.711,213.824 310.5,217C 353.613,224.778 377.28,250.445 381.5,294C 381.561,311.495 375.561,326.495 363.5,339C 358.517,342.656 353.184,345.489 347.5,347.5C 342.167,347.5 336.833,347.5 331.5,347.5C 312.057,340.018 306.557,326.685 315,307.5C 324.518,295.969 336.018,293.469 349.5,300C 356.992,306.452 358.326,313.952 353.5,322.5C 346.628,329.113 339.795,329.113 333,322.5C 330.065,318.107 329.898,313.773 332.5,309.5C 330.628,320.595 335.295,325.762 346.5,325C 355.985,318.933 356.985,311.6 349.5,303C 338.273,297.283 328.107,298.783 319,307.5C 310.594,321.712 313.428,333.212 327.5,342C 345.162,347.332 358.996,342.166 369,326.5C 381.9,299.464 379.567,273.798 362,249.5C 336.868,221.54 307.034,215.04 272.5,230C 259.768,235.199 247.435,241.199 235.5,248C 254.579,245.484 273.579,246.151 292.5,250C 302.019,252.833 310.852,257 319,262.5C 324.996,260.33 329.496,261.997 332.5,267.5C 329.554,268.655 326.554,268.821 323.5,268C 316.014,261.255 307.347,256.588 297.5,254C 273.503,246.718 249.503,246.718 225.5,254C 187.97,275.854 155.637,303.854 128.5,338C 126.583,337.973 124.916,337.139 123.5,335.5C 122.417,334.635 122.251,333.635 123,332.5C 140.571,311.594 160.071,292.761 181.5,276C 217.434,238.771 229.267,194.937 217,144.5C 212.415,126.145 202.915,110.978 188.5,99C 171.241,86.7491 153.241,85.4158 134.5,95C 119.381,106.356 115.215,120.856 122,138.5C 134.058,156.102 149.225,159.269 167.5,148C 176.223,139.567 179.223,129.4 176.5,117.5C 181.169,134.95 175.169,147.45 158.5,155C 137.039,159.526 123.205,151.359 117,130.5C 115.982,102.012 129.815,87.0123 158.5,85.5C 177.931,86.6305 193.431,94.9639 205,110.5C 214.233,123.851 220.567,138.518 224,154.5C 226.519,128.623 225.186,102.956 220,77.5C 210.237,50.9048 193.071,30.5715 168.5,16.5C 170.5,17.1667 172.5,17.8333 174.5,18.5C 193.856,29.694 208.689,45.3607 219,65.5C 217.458,39.7901 227.292,19.9568 248.5,6C 254.058,3.20742 259.725,1.04075 265.5,-0.5 Z"/></g>
<g><path style="opacity:0.779" fill="#5ebf00" d="M 171.5,-0.5 C 172.167,-0.5 172.833,-0.5 173.5,-0.5C 178.248,3.29839 179.748,8.29839 178,14.5C 177.34,16.3237 176.173,17.657 174.5,18.5C 169.205,12.8508 168.205,6.51752 171.5,-0.5 Z"/></g>
<g><path style="opacity:0.745" fill="#5fbd00" d="M 168.5,16.5 C 162.765,16.3837 158.265,14.0504 155,9.5C 154.51,8.20677 154.343,6.87344 154.5,5.5C 162.071,5.39895 166.738,9.06562 168.5,16.5 Z"/></g>
<g><path style="opacity:0.754" fill="#5fbf00" d="M 166.5,20.5 C 173.371,19.9532 174.704,22.1199 170.5,27C 166.21,30.0741 161.543,30.9074 156.5,29.5C 156.081,26.6755 157.081,24.5088 159.5,23C 161.927,22.0977 164.26,21.2644 166.5,20.5 Z"/></g>
<g><path style="opacity:0.576" fill="#5fbe00" d="M 24.5,37.5 C 26.8333,37.5 29.1667,37.5 31.5,37.5C 31.6633,39.8568 31.4966,42.1902 31,44.5C 29.5557,46.1554 27.7224,46.822 25.5,46.5C 25.4802,44.857 26.1468,43.5237 27.5,42.5C 26.675,41.6143 25.675,41.281 24.5,41.5C 24.5,40.1667 24.5,38.8333 24.5,37.5 Z"/></g>
<g><path style="opacity:0.335" fill="#5ebe00" d="M 20.5,37.5 C 21.5,37.5 22.5,37.5 23.5,37.5C 23.5,38.8333 23.5,40.1667 23.5,41.5C 22.5,41.5 21.5,41.5 20.5,41.5C 20.5,40.1667 20.5,38.8333 20.5,37.5 Z"/></g>
<g><path style="opacity:0.455" fill="#60bd00" d="M 19.5,43.5 C 20.5676,42.5655 21.901,42.2322 23.5,42.5C 23.6567,43.8734 23.49,45.2068 23,46.5C 22.3333,45.1667 21.6667,45.1667 21,46.5C 19.8437,45.4982 19.3437,44.4982 19.5,43.5 Z"/></g>
<g><path style="opacity:0.888" fill="#5fbe00" d="M -0.5,50.5 C -0.5,48.5 -0.5,46.5 -0.5,44.5C 2.16667,44.5 4.83333,44.5 7.5,44.5C 7.5,42.8333 7.5,41.1667 7.5,39.5C 8.83333,39.5 10.1667,39.5 11.5,39.5C 10.6275,43.1211 9.96081,46.7878 9.5,50.5C 6.16667,50.5 2.83333,50.5 -0.5,50.5 Z"/></g>
<g><path style="opacity:0.257" fill="#5ebf00" d="M 11.5,45.5 C 12.8333,45.5 14.1667,45.5 15.5,45.5C 15.5,46.8333 15.5,48.1667 15.5,49.5C 14.1667,49.5 12.8333,49.5 11.5,49.5C 11.5,48.1667 11.5,46.8333 11.5,45.5 Z"/></g>
<g><path style="opacity:0.719" fill="#5ebe00" d="M 599.5,93.5 C 599.5,96.1667 599.5,98.8333 599.5,101.5C 595.458,107.311 589.791,110.311 582.5,110.5C 579.829,120.683 574.162,128.85 565.5,135C 562.923,136.25 560.257,136.584 557.5,136C 575.106,125.628 583.439,110.128 582.5,89.5C 572.808,90.6225 566.475,86.6225 563.5,77.5C 564.348,76.0089 565.681,75.3422 567.5,75.5C 572.89,76.2771 577.057,78.9438 580,83.5C 580.325,81.4473 579.991,79.4473 579,77.5C 576.667,73.8333 574.333,70.1667 572,66.5C 571.064,63.208 571.564,60.208 573.5,57.5C 577.894,59.3059 579.894,62.6393 579.5,67.5C 579.37,69.3749 579.037,71.2082 578.5,73C 580.422,76.6758 581.922,80.5092 583,84.5C 583.173,80.2815 584.173,76.2815 586,72.5C 588.408,69.3799 591.574,68.0466 595.5,68.5C 596.913,78.1744 592.913,84.3411 583.5,87C 584.291,91.1333 585.124,95.3 586,99.5C 589.315,94.8929 593.815,92.8929 599.5,93.5 Z"/></g>
<g><path style="opacity:0.004" fill="#5ebf00" d="M 283.5,62.5 C 282.833,63.1667 282.833,63.1667 283.5,62.5 Z"/></g>
<g><path style="opacity:0.413" fill="#5ebf00" d="M 443.5,62.5 C 445.942,62.3537 446.609,63.187 445.5,65C 448.254,66.5797 448.088,67.7464 445,68.5C 443.56,67.8524 442.06,67.5191 440.5,67.5C 440.5,66.5 440.5,65.5 440.5,64.5C 442.179,64.7148 443.179,64.0481 443.5,62.5 Z"/></g>
<g><path style="opacity:0.776" fill="#5ebe00" d="M 368.5,56.5 C 371.263,56.7438 373.429,58.0771 375,60.5C 376.19,64.3808 376.857,68.3808 377,72.5C 378.912,74.6572 380.579,76.9906 382,79.5C 381.989,74.9005 382.989,70.5672 385,66.5C 387.958,62.7953 390.624,62.7953 393,66.5C 394.458,74.7 391.291,80.2 383.5,83C 385.679,87.9078 386.846,93.0745 387,98.5C 388.98,91.4971 393.48,87.9971 400.5,88C 402.318,94.0565 400.651,99.0565 395.5,103C 392.338,105.035 389.172,106.201 386,106.5C 385.121,111.136 383.455,115.469 381,119.5C 379.291,122.116 377.124,123.116 374.5,122.5C 376.898,119.429 378.898,116.095 380.5,112.5C 373.363,111.188 367.863,107.522 364,101.5C 361.421,93.4216 363.921,90.9216 371.5,94C 377.558,96.9376 381.058,101.771 382,108.5C 383.786,101.211 383.953,93.8773 382.5,86.5C 375.438,88.1926 369.271,86.5259 364,81.5C 363.187,79.5643 362.687,77.5643 362.5,75.5C 368.971,74.3446 374.471,76.0112 379,80.5C 377.769,75.0678 374.769,70.7345 370,67.5C 367.532,64.0365 367.032,60.3698 368.5,56.5 Z"/></g>
<g><path style="opacity:0.425" fill="#60be00" d="M 155.5,67.5 C 157.048,67.8212 157.715,68.8212 157.5,70.5C 154.752,70.5983 154.086,69.5983 155.5,67.5 Z"/></g>
<g><path style="opacity:0.564" fill="#5fbd00" d="M 153.5,71.5 C 150.043,71.3328 149.71,70.3328 152.5,68.5C 153.386,69.325 153.719,70.325 153.5,71.5 Z"/></g>
<g><path style="opacity:0.501" fill="#5ebf00" d="M 153.5,71.5 C 156.957,71.6672 157.29,72.6672 154.5,74.5C 153.614,73.675 153.281,72.675 153.5,71.5 Z"/></g>
<g><path style="opacity:0.824" fill="#5ebe00" d="M 563.5,92.5 C 574.374,95.7529 578.708,102.92 576.5,114C 568.182,112.349 563.182,107.349 561.5,99C 561.338,96.498 562.005,94.3313 563.5,92.5 Z"/></g>
<g><path style="opacity:0.605" fill="#5ebb00" d="M 249.5,102.5 C 248.833,102.5 248.167,102.5 247.5,102.5C 246.147,101.133 246.481,100.133 248.5,99.5C 249.386,100.325 249.719,101.325 249.5,102.5 Z"/></g>
<g><path style="opacity:0.621" fill="#5dbe00" d="M 247.5,102.5 C 248.914,104.598 248.248,105.598 245.5,105.5C 245.285,103.821 245.952,102.821 247.5,102.5 Z"/></g>
<g><path style="opacity:0.586" fill="#5ebf00" d="M 249.5,102.5 C 251.465,102.948 251.798,103.948 250.5,105.5C 249.614,104.675 249.281,103.675 249.5,102.5 Z"/></g>
<g><path style="opacity:0.026" fill="#5ebf00" d="M 176.5,117.5 C 174.901,116.201 174.401,114.535 175,112.5C 176.009,114.025 176.509,115.692 176.5,117.5 Z"/></g>
<g><path style="opacity:0.765" fill="#5fbd00" d="M 407.5,139.5 C 415.647,141.973 418.647,147.306 416.5,155.5C 407.802,153.442 404.802,148.109 407.5,139.5 Z"/></g>
<g><path style="opacity:0.493" fill="#5dc300" d="M 331.5,150.5 C 330.842,151.398 330.176,152.398 329.5,153.5C 328.5,153.167 327.833,152.5 327.5,151.5C 328.906,149.974 330.072,148.307 331,146.5C 332.768,147.682 332.935,149.015 331.5,150.5 Z"/></g>
<g><path style="opacity:0.484" fill="#5fbe00" d="M 331.5,150.5 C 334.957,150.667 335.29,151.667 332.5,153.5C 331.614,152.675 331.281,151.675 331.5,150.5 Z"/></g>
<g><path style="opacity:0.759" fill="#5ebf00" d="M 428.5,150.5 C 431.518,150.335 434.518,150.502 437.5,151C 439.283,152.067 439.783,153.567 439,155.5C 433.681,159.645 427.848,160.478 421.5,158C 420.549,157.282 420.383,156.449 421,155.5C 423.17,153.177 425.67,151.51 428.5,150.5 Z"/></g>
<g><path style="opacity:0.748" fill="#5ebf00" d="M 274.5,157.5 C 282.334,157.502 287,161.335 288.5,169C 287.892,169.87 287.059,170.37 286,170.5C 277.795,169.49 273.961,165.157 274.5,157.5 Z"/></g>
<g><path style="opacity:0.622" fill="#60bb00" d="M 510.5,157.5 C 511.5,157.5 512.5,157.5 513.5,157.5C 514.167,159.5 514.833,161.5 515.5,163.5C 514.5,163.5 513.5,163.5 512.5,163.5C 512.404,159.689 511.738,159.689 510.5,163.5C 509.692,163.192 509.025,162.692 508.5,162C 510.037,160.89 510.703,159.39 510.5,157.5 Z"/></g>
<g><path style="opacity:0.754" fill="#5fbd00" d="M 302.5,158.5 C 304.833,158.5 307.167,158.5 309.5,158.5C 309.559,162.548 307.892,165.715 304.5,168C 300.687,169.772 296.687,170.605 292.5,170.5C 294.037,164.966 297.37,160.966 302.5,158.5 Z"/></g>
<g><path style="opacity:0.68" fill="#60bf00" d="M 590.5,163.5 C 592.5,164.167 594.5,164.833 596.5,165.5C 596.649,166.552 596.483,167.552 596,168.5C 594.434,167.939 593.101,168.606 592,170.5C 589.713,168.763 589.213,166.43 590.5,163.5 Z"/></g>
<g><path style="opacity:0.507" fill="#65b600" d="M 160.5,214.5 C 161.5,214.5 162.5,214.5 163.5,214.5C 162.754,218.31 161.754,218.31 160.5,214.5 Z"/></g>
<g><path style="opacity:0.435" fill="#5dc200" d="M 164.5,218.5 C 164.272,216.645 164.939,215.812 166.5,216C 167.86,218.808 167.193,219.641 164.5,218.5 Z"/></g>
<g><path style="opacity:0.442" fill="#5fbe00" d="M 164.5,218.5 C 164.333,221.957 163.333,222.29 161.5,219.5C 162.325,218.614 163.325,218.281 164.5,218.5 Z"/></g>
<g><path style="opacity:0.629" fill="#5bbe00" d="M 418.5,242.5 C 418.167,242.5 417.833,242.5 417.5,242.5C 416.065,241.015 416.232,239.682 418,238.5C 419.768,239.682 419.935,241.015 418.5,242.5 Z"/></g>
<g><path style="opacity:0.564" fill="#5ebf00" d="M 417.5,242.5 C 417.333,245.957 416.333,246.29 414.5,243.5C 415.325,242.614 416.325,242.281 417.5,242.5 Z"/></g>
<g><path style="opacity:0.491" fill="#5bc500" d="M 418.5,242.5 C 419.5,242.5 420.5,242.5 421.5,242.5C 421.5,243.5 421.5,244.5 421.5,245.5C 420.5,245.5 419.5,245.5 418.5,245.5C 418.5,244.5 418.5,243.5 418.5,242.5 Z"/></g>
<g><path style="opacity:0.656" fill="#5ebf00" d="M 324.5,251.5 C 327.807,251.063 330.807,251.73 333.5,253.5C 330.149,257.405 325.816,259.405 320.5,259.5C 318.192,259.635 316.192,258.969 314.5,257.5C 317.275,254.451 320.608,252.451 324.5,251.5 Z"/></g>
<g><path style="opacity:0.743" fill="#5fbe00" d="M 309.5,260.5 C 312.636,261.434 314.302,263.601 314.5,267C 314.201,270.632 312.368,273.132 309,274.5C 306.232,273.725 305.066,271.892 305.5,269C 305.635,265.564 306.969,262.731 309.5,260.5 Z"/></g>
<g><path style="opacity:0.733" fill="#5ebf00" d="M 236.5,278.5 C 239.146,280.398 240.48,283.065 240.5,286.5C 239.533,290.604 238.366,294.604 237,298.5C 236.333,301.833 236.333,305.167 237,308.5C 237.793,299.538 242.627,294.872 251.5,294.5C 251.92,304.259 247.254,310.093 237.5,312C 239.127,318.42 241.96,324.253 246,329.5C 245.393,321.047 248.726,314.713 256,310.5C 260.693,314.652 261.693,319.652 259,325.5C 256.754,329.415 253.588,332.248 249.5,334C 252.99,336.911 256.656,339.578 260.5,342C 258.5,342.667 256.5,342.667 254.5,342C 249.776,338.73 245.609,334.897 242,330.5C 234.606,332.861 228.272,331.194 223,325.5C 221.798,323.323 221.298,320.989 221.5,318.5C 227.157,317.425 232.324,318.758 237,322.5C 236.146,317.903 235.146,313.237 234,308.5C 228.423,308.722 223.756,306.389 220,301.5C 218.921,298.937 218.421,296.271 218.5,293.5C 226.556,293.051 231.722,296.718 234,304.5C 234.897,301.51 235.731,298.51 236.5,295.5C 231.266,289.676 231.266,284.01 236.5,278.5 Z"/></g>
<g><path style="opacity:0.552" fill="#5bbf00" d="M 271.5,303.5 C 270.5,303.5 269.5,303.5 268.5,303.5C 268.5,302.5 268.5,301.5 268.5,300.5C 269.5,300.5 270.5,300.5 271.5,300.5C 271.5,301.5 271.5,302.5 271.5,303.5 Z"/></g>
<g><path style="opacity:0.571" fill="#5fbd00" d="M 271.5,303.5 C 272.158,302.602 272.824,301.602 273.5,300.5C 274.5,300.833 275.167,301.5 275.5,302.5C 274.354,303.719 273.354,305.052 272.5,306.5C 270.481,305.867 270.147,304.867 271.5,303.5 Z"/></g>
<g><path style="opacity:0.66" fill="#5ebe00" d="M 556.5,303.5 C 554.402,304.914 553.402,304.248 553.5,301.5C 555.179,301.285 556.179,301.952 556.5,303.5 Z"/></g>
<g><path style="opacity:0.697" fill="#5fbe00" d="M 466.5,296.5 C 468.441,298.011 468.941,300.011 468,302.5C 465.974,306.026 463.141,308.693 459.5,310.5C 456.05,316.482 457.05,317.648 462.5,314C 465.5,313.333 468.5,313.333 471.5,314C 473.158,314.725 473.658,315.892 473,317.5C 468.464,322.152 462.964,323.652 456.5,322C 455.584,321.626 454.75,321.126 454,320.5C 451.5,324.333 448.333,327.5 444.5,330C 450.069,328.631 455.069,329.797 459.5,333.5C 458.687,334.814 457.687,335.981 456.5,337C 451.953,338.545 447.287,338.879 442.5,338C 439.943,337.315 438.109,335.815 437,333.5C 430.285,337.324 423.451,337.824 416.5,335C 420.872,334.579 425.205,333.912 429.5,333C 425.291,326.163 425.958,319.83 431.5,314C 434.474,311.55 436.641,312.05 438,315.5C 439.164,320.726 438.331,325.559 435.5,330C 441.147,329 445.813,326.167 449.5,321.5C 443.305,315.118 443.138,308.785 449,302.5C 453.667,306.172 455.334,310.838 454,316.5C 457.972,311.889 460.305,306.555 461,300.5C 462.5,298.531 464.333,297.198 466.5,296.5 Z"/></g>
<g><path style="opacity:0.591" fill="#5ac300" d="M 557.5,305.5 C 557.167,304.833 556.833,304.167 556.5,303.5C 557.68,300.796 558.68,300.963 559.5,304C 559.164,305.03 558.497,305.53 557.5,305.5 Z"/></g>
<g><path style="opacity:0.492" fill="#65b700" d="M 557.5,305.5 C 557.333,308.957 556.333,309.29 554.5,306.5C 555.325,305.614 556.325,305.281 557.5,305.5 Z"/></g>
<g><path style="opacity:0.016" fill="#5ebf00" d="M 332.5,308.5 C 333.833,309.167 333.833,309.167 332.5,308.5 Z"/></g>
<g><path style="opacity:0.563" fill="#5ebc00" d="M 168.5,319.5 C 169.5,319.5 170.5,319.5 171.5,319.5C 171.626,321.2 172.293,322.7 173.5,324C 171.786,324.128 170.119,324.962 168.5,326.5C 167.637,324.229 167.637,321.895 168.5,319.5 Z"/></g>
</svg>
