<?xml version="1.0"?><svg width="1052.3622" height="744.09448" xmlns="http://www.w3.org/2000/svg" xmlns:xlink="http://www.w3.org/1999/xlink">
 <title>red vines</title>
 <defs>
  <filter id="filter5500">
   <feGaussianBlur stdDeviation="0.028007" id="feGaussianBlur5502"/>
  </filter>
  <pattern xlink:href="#pattern5504" id="pattern5523" patternTransform="translate(-84.1377, 510.395)"/>
  <pattern xlink:href="#pattern5504" id="pattern5519" patternTransform="matrix(0.880062, 0, 0, 0.880062, -58.8481, 577.678)"/>
  <pattern xlink:href="#pattern5504" id="pattern5517" patternTransform="matrix(0.880062, 0, 0, 0.880062, -58.8481, 577.678)"/>
  <pattern xlink:href="#pattern5504" id="pattern5515" patternTransform="matrix(0.880062, 0, 0, 0.880062, -58.8481, 577.678)"/>
  <pattern xlink:href="#pattern5504" id="pattern5513" patternTransform="matrix(0.880062, 0, 0, 0.880062, -58.8481, 577.678)"/>
  <pattern xlink:href="#pattern5504" id="pattern5511" patternTransform="matrix(0.880062, 0, 0, 0.880062, -58.8481, 577.678)"/>
  <pattern xlink:href="#pattern5490" id="pattern5507" patternTransform="translate(0.0672191, 0.0671756)"/>
  <pattern xlink:href="#pattern5478" id="pattern5490" patternTransform="translate(-79.9494, 517.532)"/>
  <pattern xlink:href="#pattern5310" id="pattern5322" patternTransform="translate(-212.763, 474.817)"/>
  <pattern xlink:href="#pattern5263" id="pattern5276" patternTransform="matrix(0.893653, 0, 0, 0.815661, -53.4473, 517.427)"/>
  <pattern xlink:href="#pattern5254" id="pattern5263" patternTransform="matrix(0.893653, 0, 0, 0.815661, -50.3653, 517.419)"/>
  <pattern xlink:href="#pattern5244" id="pattern5254" patternTransform="matrix(0.692326, 0, 0, 0.69244, 3.54248e-07, -1.90234e-05)"/>
  <pattern xlink:href="#pattern5233" id="pattern5247" patternTransform="matrix(0.73209, 0, 0, 0.714954, -6.45752e-07, 1.75391e-05)"/>
  <pattern patternUnits="userSpaceOnUse" width="3.551382" height="3.635903" patternTransform="matrix(0.73209, 0, 0, 0.714954, -50.3262, 517.536)" id="pattern5233">
   <path id="path5214" d="m2.19848,0.29226a0.34491,0.57741 0 1 1 -0.68982,0.9054a0.34491,0.57741 0 1 1 0.68982,-0.9054z" fill="#800000"/>
   <path d="m1.25988,2.07843a0.44533,0.67647 0 1 1 -0.89065,-0.61168a0.44533,0.67647 0 1 1 0.89065,0.61168z" id="path5216" fill="#800000"/>
   <path id="path5218" d="m2.09614,3.11829a0.12093,0.2397 0 1 1 -0.24186,-1.23446a0.12093,0.2397 0 1 1 0.24186,1.23446z" fill="#800000"/>
   <path id="path5225" d="m0.90537,0.59997a0.43971,0.62202 0 1 1 -0.87942,0.04494a0.43971,0.62202 0 1 1 0.87942,-0.04494z" fill="#800000"/>
   <path d="m3.12962,1.48655a0.08931,0.2397 0 1 1 -0.17862,-1.23446a0.08931,0.2397 0 1 1 0.17862,1.23446z" id="path5227" fill="#800000"/>
   <path d="m3.51902,2.71921a0.40631,0.63562 0 1 1 -0.81262,0.37696a0.40631,0.63562 0 1 1 0.81262,-0.37696z" id="path5229" fill="#800000"/>
   <path d="m0.48139,3.62674a0.11387,0.09242 0 1 1 0.22773,-0.93088a0.11387,0.09242 0 1 1 -0.22773,0.93088z" id="path5231" fill="#800000"/>
  </pattern>
  <pattern patternUnits="userSpaceOnUse" width="2.599932" height="2.599502" patternTransform="matrix(0.692326, 0, 0, 0.69244, -50.3262, 517.536)" id="pattern5244">
   <rect id="rect5242" y="0" x="0" height="2.599502" width="2.599932" fill="url(#pattern5247)"/>
  </pattern>
  <pattern patternUnits="userSpaceOnUse" width="1.8" height="1.8" patternTransform="translate(-50.3262, 517.536)" id="pattern5251">
   <rect id="rect5249" y="0" x="0" height="1.8" width="1.8" fill="url(#pattern5254)"/>
  </pattern>
  <pattern patternUnits="userSpaceOnUse" width="2.341234" height="2.175213" patternTransform="translate(-50.4178, 517.402)" id="pattern5310">
   <path d="m0.64745,0.54334a0.28042,0.33013 0 1 1 -0.56083,-0.30654a0.28042,0.33013 0 1 1 0.56083,0.30654z" id="path5266" fill="#333333"/>
   <path id="path5268" d="m0.80062,1.02685a0.30273,0.35473 0 1 1 -0.60546,0.28894a0.30273,0.35473 0 1 1 0.60546,-0.28894z" fill="#333333"/>
   <path d="m1.50426,0.31446a0.31302,0.4232 0 1 1 -0.62603,0.43628a0.31302,0.4232 0 1 1 0.62603,-0.43628z" id="path5270" fill="#333333"/>
   <path id="path5272" d="m0.41983,2.17522a0.00009,0.00012 0 1 1 -0.00018,-0.5586a0.00009,0.00012 0 1 1 0.00018,0.5586z" fill="#333333"/>
   <path id="path5274" d="m1.53943,1.83098a0.2134,0.28644 0 1 1 -0.42681,-0.56541a0.2134,0.28644 0 1 1 0.42681,0.56541z" fill="#333333"/>
   <path id="path5278" d="m2.21877,0.54952a0.22871,0.32438 0 1 1 -0.45741,-0.35793a0.22871,0.32438 0 1 1 0.45741,0.35793z" fill="#333333"/>
   <path d="m2.30187,1.87822a0.25125,0.36041 0 1 1 -0.5025,-0.23021a0.25125,0.36041 0 1 1 0.5025,0.23021z" id="path5280" fill="#333333"/>
   <path d="m2.03204,0.80549a0.01462,0.01981 0 1 1 -0.02924,0.46605a0.01462,0.01981 0 1 1 0.02924,-0.46605z" id="path5282" fill="#333333"/>
  </pattern>
  <pattern patternUnits="userSpaceOnUse" width="4" height="4" patternTransform="translate(-50.3935, 512.782)" id="pattern5342">
   <g transform="matrix(1.71954, 0.0532923, -0.0494765, 1.85216, 117.386, -950.24)" id="g5324" fill="#800000">
    <path id="path5326" d="m-52.7938,515.085754c-0.130779,0.182373 -0.362331,0.261536 -0.517208,0.17688c-0.154881,-0.084656 -0.174412,-0.301086 -0.043633,-0.483398c0.130779,-0.182312 0.362331,-0.261536 0.517212,-0.17688c0.154881,0.084656 0.174408,0.301086 0.043629,0.483398z" fill="#800000"/>
    <path d="m-52.640629,515.569275c0.123848,0.195923 0.088718,0.419434 -0.07848,0.499207c-0.167202,0.079834 -0.403122,-0.014343 -0.52697,-0.210266c-0.123852,-0.195923 -0.088711,-0.419373 0.07848,-0.499146c0.16721,-0.079834 0.40313,0.014343 0.52697,0.210205z" id="path5328" fill="#800000"/>
    <path id="path5330" d="m-51.936981,514.856934c0.162071,0.233704 0.15332,0.520813 -0.019558,0.641296c-0.172882,0.120483 -0.444401,0.028687 -0.606472,-0.205017c-0.162067,-0.233765 -0.15332,-0.520874 0.019562,-0.641357c0.172878,-0.120483 0.444401,-0.028687 0.606468,0.205078z" fill="#800000"/>
    <path d="m-53.021412,516.717651c-0.212498,0.000061 -0.3848,-0.124939 -0.38485,-0.279175c-0.00005,-0.154236 0.172173,-0.279358 0.38467,-0.279419c0.212513,-0.000061 0.384811,0.124939 0.384861,0.279175c0.00005,0.154297 -0.172169,0.279358 -0.384682,0.279419z" id="path5332" fill="#800000"/>
    <path d="m-51.901821,516.373413c-0.211571,0.158203 -0.478619,0.159912 -0.596478,0.003723c-0.11787,-0.156128 -0.041901,-0.41095 0.16967,-0.569153c0.211567,-0.158203 0.478619,-0.159851 0.596478,-0.003723c0.11787,0.156128 0.041901,0.41095 -0.16967,0.569153z" id="path5334" fill="#800000"/>
    <path d="m-51.222469,515.09198c-0.12674,0.179138 -0.331871,0.244263 -0.458191,0.145386c-0.12632,-0.098816 -0.125961,-0.324158 0.00079,-0.503357c0.12674,-0.179138 0.331871,-0.244263 0.458191,-0.145386c0.12632,0.098816 0.125961,0.324158 -0.00079,0.503357z" id="path5336" fill="#800000"/>
    <path id="path5338" d="m-51.13937,516.420654c-0.080601,0.199097 -0.25843,0.308899 -0.39719,0.2453c-0.138771,-0.063538 -0.185921,-0.276428 -0.105309,-0.475525c0.080597,-0.199036 0.258419,-0.308838 0.39719,-0.2453c0.13876,0.063599 0.185909,0.276489 0.105309,0.475525z" fill="#800000"/>
    <path id="path5340" d="m-51.409222,515.347961c0.173553,0.010925 0.307682,0.124084 0.29961,0.252808c-0.008068,0.128723 -0.1553,0.224182 -0.32885,0.213196c-0.173538,-0.010925 -0.307678,-0.124146 -0.299599,-0.252808c0.008072,-0.128723 0.1553,-0.224182 0.328838,-0.213196z" fill="#800000"/>
   </g>
  </pattern>
  <pattern patternUnits="userSpaceOnUse" width="4.531986" height="4.508552" patternTransform="translate(-50.6334, 507.297)" id="pattern5426">
   <g id="g5395">
    <path d="m0.79011,2.82555c-0.43625,0.00012 -0.78997,-0.23455 -0.79008,-0.52419c-0.0001,-0.28965 0.35346,-0.52452 0.78971,-0.52464c0.43626,-0.00012 0.78998,0.23455 0.79008,0.52419c0.0001,0.28965 -0.35345,0.52452 -0.78971,0.52464z" id="path5363" fill="#800000"/>
    <path d="m3.82612,1.48102c-0.45448,0.31616 -0.8984,0.29682 -0.99157,-0.04324c-0.09316,-0.34005 0.19974,-0.87197 0.65422,-1.18813c0.45448,-0.31616 0.89841,-0.29682 0.99157,0.04324c0.09316,0.34005 -0.19974,0.87197 -0.65422,1.18813z" id="path5367" fill="#800000"/>
    <path id="path5371" d="m2.31354,1.64748c0.32662,0.02919 0.57908,0.33112 0.56388,0.67444c-0.0152,0.34329 -0.29229,0.59792 -0.61891,0.56873c-0.32663,-0.02919 -0.57908,-0.33115 -0.56388,-0.67444c0.01519,-0.34332 0.29228,-0.59793 0.61891,-0.56873z" fill="#800000"/>
    <path id="path5383" d="m3.74226,2.77867c-0.43625,0.00013 -0.78998,-0.23454 -0.79008,-0.52419c-0.0001,-0.28964 0.35346,-0.52451 0.78971,-0.52463c0.43626,-0.00013 0.78998,0.23454 0.79008,0.52419c0.0001,0.28964 -0.35346,0.52451 -0.78971,0.52463z" fill="#800000"/>
    <path d="m2.7904,0.78969c0.00013,0.43626 -0.23455,0.78998 -0.52419,0.79008c-0.28963,0.0001 -0.52451,-0.35345 -0.52463,-0.78971c-0.00013,-0.43625 0.23455,-0.78997 0.52418,-0.79007c0.28964,-0.00011 0.52452,0.35345 0.52464,0.7897z" id="path5385" fill="#800000"/>
    <path id="path5387" d="m2.81383,3.71846c0.00013,0.43625 -0.23455,0.78997 -0.52419,0.79008c-0.28963,0.0001 -0.52451,-0.35346 -0.52463,-0.78971c-0.00013,-0.43626 0.23455,-0.78998 0.52419,-0.79008c0.28963,-0.0001 0.52451,0.35345 0.52463,0.78971z" fill="#800000"/>
    <path id="path5389" d="m1.04969,4.28093c-0.45448,0.31616 -0.8984,0.29682 -0.99156,-0.04324c-0.09317,-0.34005 0.19973,-0.87197 0.65421,-1.18813c0.45448,-0.31616 0.89841,-0.29682 0.99157,0.04324c0.09316,0.34005 -0.19974,0.87197 -0.65422,1.18813z" fill="#800000"/>
    <path d="m1.49665,0.72006c0.31616,0.45448 0.2968,0.89841 -0.04324,0.99156c-0.34005,0.09317 -0.87197,-0.19973 -1.18813,-0.65421c-0.31616,-0.45448 -0.29681,-0.89841 0.04324,-0.99157c0.34003,-0.09316 0.87197,0.19974 1.18813,0.65422z" id="path5391" fill="#800000"/>
    <path id="path5393" d="m4.2497,3.44967c0.31616,0.45448 0.2968,0.89841 -0.04323,0.99157c-0.34006,0.09316 -0.87197,-0.19974 -1.18813,-0.65422c-0.31616,-0.45448 -0.29682,-0.8984 0.04323,-0.99157c0.34004,-0.09315 0.87197,0.19974 1.18813,0.65422z" fill="#800000"/>
   </g>
  </pattern>
  <pattern patternUnits="userSpaceOnUse" width="5.599999" height="5.602892" patternTransform="translate(-82.2386, 518.899)" id="pattern5478">
   <path d="m1.54862,1.40172a0.67073,0.8499 0 1 1 -1.34147,-0.78918a0.67073,0.8499 0 1 1 1.34147,0.78918z" id="path5442" fill="#800000"/>
   <path id="path5444" d="m1.98906,2.64649a0.7241,0.91324 0 1 1 -1.4482,0.74385a0.7241,0.91324 0 1 1 1.4482,-0.74385z" fill="#800000"/>
   <path d="m3.59807,0.66437a0.7487,1.08952 0 1 1 -1.49741,1.12318a0.7487,1.08952 0 1 1 1.49741,-1.12318z" id="path5446" fill="#740000"/>
   <path id="path5448" d="m1.00429,5.60289a0.00022,0.00031 0 1 1 -0.00043,-1.43808a0.00022,0.00031 0 1 1 0.00043,1.43808z" fill="#7b0000"/>
   <path id="path5450" d="m3.68215,4.71667a0.51044,0.73744 0 1 1 -1.02089,-1.45565a0.51044,0.73744 0 1 1 1.02089,1.45565z" fill="#800000"/>
   <path id="path5452" d="m5.30719,1.4176a0.54704,0.83512 0 1 1 -1.09409,-0.92147a0.54704,0.83512 0 1 1 1.09409,0.92147z" fill="#800000"/>
   <path d="m5.50587,4.8383a0.60096,0.92787 0 1 1 -1.20193,-0.59266a0.60096,0.92787 0 1 1 1.20193,0.59266z" id="path5454" fill="#800000"/>
   <path d="m4.86044,2.07661a0.03497,0.05101 0 1 1 -0.06993,1.19983a0.03497,0.05101 0 1 1 0.06993,-1.19983z" id="path5456" fill="#800000"/>
  </pattern>
  <pattern patternUnits="userSpaceOnUse" width="5.734434" height="5.737327" patternTransform="translate(-80.0166, 517.465)" id="pattern5504">
   <rect id="rect5488" y="0.067217" x="0.067217" height="5.602892" width="5.599999" filter="url(#filter5500)" fill="url(#pattern5507)"/>
  </pattern>
 </defs>
 <metadata id="metadata2827">image/svg+xml</metadata>
 <g>
  <title>Layer 1</title>
  <g id="layer1">
   <rect id="rect5521" width="15.038038" height="9.410776" x="-97.865372" y="209.5495" fill="#7fff00"/>
   <rect id="rect5381" width="4.6" height="4.6" x="-56.372898" y="198.71533" fill="#7fff00"/>
   <path d="m106.389,689.27002l7.828003,6.221985c50.605995,-64.231995 115.439995,-117.185974 188.009987,-155.304993c72.572998,-38.112 153.095001,-61.502014 235.007996,-66.732025c0,0 0,0 0,0c28.244995,-1.807983 56.715027,-1.600983 85.218018,-2.97699c28.302002,-1.355011 56.817017,-4.359985 84.151001,-12.464996c27.440002,-8.127991 53.731018,-21.700012 74.044983,-42.01001c20.325989,-20.319 34.145996,-47.832001 35.062988,-76.595001c0.780029,-24.988983 -8.698975,-50.415985 -26.744995,-67.671997c0,0 0,0 0,0c-9.029968,-8.625 -20.07196,-15.14798 -32.033997,-18.690994c-11.963013,-3.541992 -24.81897,-4.063995 -36.969971,-1.304993c-12.151001,2.759995 -23.548035,8.82399 -32.470032,17.494003c0,0 0,0 0,0c-8.921997,8.671997 -15.307983,19.940002 -17.960999,32.071991c0,0 0,0 0,0c-2.651001,12.132996 -1.519958,25.07901 3.372009,36.463989c4.893005,11.384003 13.55603,21.130005 24.359009,27.134003c8.702026,4.835999 18.729004,7.233002 28.653992,6.864014c9.924988,-0.369995 19.723022,-3.505005 28.002014,-8.947998c-8.325012,5.372986 -18.129028,8.414001 -28.01001,8.697998c-9.882019,0.285004 -19.822021,-2.187012 -28.401001,-7.050018c-10.653015,-6.03598 -19.130981,-15.754974 -23.859009,-27.014984c-4.729004,-11.261017 -5.724976,-24.019989 -3.023987,-35.903015c2.700989,-11.884979 9.067993,-22.880981 17.861023,-31.28598c0,0 0,0 0,0c8.792969,-8.407013 19.98999,-14.233002 31.855957,-16.825012c11.867004,-2.593994 24.39801,-1.970001 36.001038,1.570007c11.60498,3.540009 22.289978,9.984009 30.985962,18.427002c17.386047,16.860992 26.345032,41.699982 25.403015,65.867981c-1.067017,27.857025 -14.810974,54.476013 -34.687012,74.077026c-19.901001,19.623993 -45.724976,32.617981 -72.678955,40.399994c-26.872009,7.748993 -55.021057,10.447998 -83.139038,11.579987c-28.323975,1.128998 -56.804016,0.684998 -85.339966,2.265015c0,0 0,0 0,0c-82.815033,4.597992 -164.466034,27.53299 -238.313019,65.533966c-73.850006,37.994019 -140.105011,91.161011 -192.185005,156.110046l0,0l0,0z" id="path2832" fill-rule="evenodd" fill="#7fff00"/>
   <path d="m683.739319,462.65509c9.582581,-2.867493 19.362976,-4.007507 28.79834,-3.598083c6.851074,-0.988647 13.819336,-1.159546 20.7005,-0.474243c16.109314,1.599915 31.774963,7.895813 44.519043,17.898865c12.746765,9.999695 22.597168,23.726501 27.990479,39.016663c0,0 0,0 0,0.000061c5.397339,15.288757 6.347473,32.169434 2.694031,47.978699c-3.504211,15.177673 -11.249756,29.400269 -22.138733,40.54895c-10.885925,11.150635 -24.935669,19.245117 -40.061523,23.023743c-15.124451,3.781982 -31.350464,3.252136 -46.188049,-1.557678c-14.838135,-4.806091 -28.310059,-13.901917 -38.281067,-25.905823c0,0 0,0 0,0c-11.265564,-13.588257 -18.091614,-31.200256 -17.220398,-48.719543c0.423889,-8.766541 2.718262,-17.464172 6.861694,-25.169922c1.872498,-3.483765 4.125122,-6.769775 6.704346,-9.768311c3.050232,-3.695862 6.596802,-6.989624 10.553894,-9.716492c7.220276,-4.977844 15.832642,-8.07782 24.670105,-8.603455c8.834656,-0.527344 17.908813,1.533264 25.614929,6.090515c0,0 0,0 0,0c7.705139,4.555115 14.021545,11.625244 17.502563,20.003479c3.480774,8.377502 4.073364,18.038757 1.362854,26.84375c-1.848083,5.99646 -5.195007,11.554382 -9.68689,16.027466c4.592407,-4.367859 8.092285,-9.870789 10.101501,-15.890259c2.945374,-8.841125 2.599976,-18.685608 -0.773743,-27.373596c-3.376099,-8.684509 -9.694641,-16.142883 -17.600464,-21.071594c0,-0.000061 0,-0.000061 0,-0.000061c-7.905273,-4.925232 -17.307068,-7.322571 -26.611206,-6.987976c-9.301941,0.336548 -18.448853,3.358643 -26.229919,8.455017c-7.778748,5.096497 -14.175903,12.209961 -18.601746,20.378601c-4.424194,8.167542 -6.891968,17.345093 -7.37085,26.609985c-0.940796,18.52832 6.081848,37.001892 17.858765,51.266174c10.386169,12.59668 24.404297,22.148499 39.936035,27.248718c15.532288,5.097351 32.490784,5.723389 48.385864,1.816772c15.894104,-3.909363 30.639954,-12.321655 42.135254,-24.001953c11.49292,-11.682068 19.678467,-26.562073 23.433899,-42.534058c0,0 0,-0.000061 0,-0.000061c3.909485,-16.639343 2.985779,-34.374023 -2.645935,-50.539124c-5.635254,-16.163757 -15.942688,-30.655151 -29.387085,-41.292297c0,0 0,0 0,0c-13.446899,-10.633911 -29.942261,-17.343628 -47.020081,-19.111206c-17.078247,-1.763306 -34.622742,1.427368 -50.006409,9.108276z" id="path2838" fill-rule="evenodd" fill="#7fff00"/>
   <path d="m190.451019,605.923035l4.999634,6.089905c34.007263,-28.158875 59.440903,-66.388733 72.269592,-108.522217c12.822418,-42.135376 12.971008,-87.947876 0.481537,-130.069458c-5.886597,-19.910889 -14.709854,-39.22937 -27.713867,-55.617065c-13.009842,-16.402161 -30.46344,-29.653442 -50.560745,-35.913757c-20.121475,-6.263184 -42.862244,-4.916382 -61.303299,5.425781c-9.214218,5.184998 -17.21479,12.552734 -22.936272,21.459839c-5.721581,8.910889 -9.086319,19.340271 -9.402466,29.933716c-0.360634,12.31897 3.496239,24.702332 10.885353,34.54071c7.395386,9.836487 18.265007,16.97821 30.23735,19.725159c0,0 0.000015,0 0.000031,0c11.975845,2.741028 24.901062,1.006042 35.643875,-4.90094c0.000015,0 0.000031,0 0.000031,0c10.741211,-5.91394 19.11937,-15.953308 22.881561,-27.593445c4.055908,-12.583374 2.572891,-26.789307 -3.956421,-38.231018c6.401001,11.514282 7.693573,25.679382 3.536102,38.093506c-3.853226,11.48584 -12.255753,21.295593 -22.868851,26.983276c0,0 -0.000015,0 -0.000031,0c-10.61409,5.685242 -23.31102,7.224121 -34.949875,4.420593c-11.638779,-2.804626 -22.13765,-9.896729 -29.18457,-19.495361c-7.047256,-9.599121 -10.62767,-21.634094 -10.145996,-33.473145c0,0 0,0 0,0c0.41362,-10.187927 3.781433,-20.191772 9.365417,-28.681396c5.58429,-8.490906 13.363686,-15.476379 22.251114,-20.349976c17.758133,-9.749695 39.681015,-10.718628 58.900284,-4.529541c19.243378,6.194336 35.904007,19.221741 48.314606,35.181824c12.417191,15.972839 20.7444,34.869141 26.305496,54.394348c0.000031,0 0.000031,0 0.000031,0.000061c11.742371,41.319214 11.041748,86.0448 -1.884216,126.810791c-12.920456,40.767639 -38.056122,77.54895 -71.165405,104.31781c0,0 0,0 0,0z" id="path2844" fill-rule="evenodd" fill="#7fff00"/>
   <path d="m273.891174,405.61499c1.271179,3.770325 2.4953,7.576111 3.670868,11.416382c6.673126,-43.117615 7.196228,-87.153564 1.561401,-130.373108c-1.561218,-11.979309 -3.558472,-23.788574 -4.696869,-35.592102c-1.119141,-11.706238 -1.419495,-23.463135 0.421234,-34.867981c2.692413,-16.805267 10.046143,-32.930817 21.227325,-45.766815c0,0 0.000031,0 0.000031,-0.000031c11.174255,-12.835236 26.21344,-22.399597 42.673187,-26.755707c16.453003,-4.360321 34.365875,-3.499756 50.218781,2.734711c15.850006,6.226044 29.654724,17.863159 38.195618,32.617401c10.830322,18.666077 12.933899,42.355438 5.600464,62.738129c-7.31781,20.390869 -24.012573,37.370239 -44.326324,45.125793c-0.000031,0.000061 -0.000031,0.000061 -0.000031,0.000061c-12.915405,4.92395 -27.357849,6.258179 -40.678833,2.733948c-13.303833,-3.515381 -25.476379,-12.030334 -32.436737,-23.873169c-3.489624,-5.92334 -5.694794,-12.625671 -6.262817,-19.472778c0,0 0,0 0,-0.000061c-0.568787,-6.845459 0.499786,-13.849243 3.213287,-20.157349c2.711761,-6.307007 7.077148,-11.930054 12.599915,-16.008362c5.520294,-4.07843 12.212677,-6.615997 19.062531,-7.083221c8.088226,-0.546722 16.507507,1.886444 22.572968,7.222809c3.039307,2.666504 5.490448,6.023132 7.011719,9.762939c1.521393,3.73822 2.117249,7.870117 1.616516,11.870483c-0.385315,3.092896 -1.420013,6.110901 -3.016785,8.793457c1.64679,-2.660645 2.737183,-5.670715 3.179016,-8.772583c0.57605,-4.030884 0.047516,-8.218323 -1.427246,-12.032959c-1.481171,-3.832397 -3.914581,-7.294373 -6.967194,-10.06958c-6.127472,-5.575745 -14.698914,-8.238281 -23.03656,-7.817108c-0.000031,0 -0.000031,0 -0.000031,0c-7.072479,0.357056 -14.029144,2.840485 -19.839203,6.974213c-0.000031,0 -0.000031,0 -0.000031,0c-5.807495,4.132507 -10.4617,9.884827 -13.417969,16.438049c-2.945923,6.531921 -4.212524,13.829773 -3.738617,21.053101c0.47168,7.17926 2.642426,14.262878 6.230499,20.59613c7.086761,12.480713 19.594604,21.780151 33.805237,25.758606c13.822327,3.864624 29.024261,2.886902 42.930145,-2.211548c10.456421,-3.826111 20.194916,-9.995483 28.40683,-18.031189c8.211914,-8.035767 14.900574,-17.940979 19.081238,-29.140808c3.894379,-10.471619 5.526428,-21.947876 4.701355,-33.489319c-0.825104,-11.541382 -4.107544,-23.152313 -10.070557,-33.660858c-4.409393,-7.743652 -10.201691,-14.809204 -17.104492,-20.831909c-6.902802,-6.022675 -14.917114,-11.003235 -23.707275,-14.512909c-8.270447,-3.296661 -17.167603,-5.286194 -26.301117,-5.855774c-9.133545,-0.56958 -18.504425,0.280853 -27.641968,2.672791c-8.594818,2.254089 -16.940948,5.844727 -24.698486,10.653229c-7.757538,4.808472 -14.927063,10.835327 -21.107941,17.925751c-5.818878,6.67984 -10.746948,14.264496 -14.592773,22.502106c-3.845856,8.23761 -6.609619,17.128754 -8.074768,26.36673c-1.876617,11.928467 -1.62738,24.207092 -0.396271,36.438049c1.183685,11.859924 3.223267,23.728271 4.848297,35.778503c2.483429,18.421997 3.927277,37.547485 4.121887,57.286987c0.194611,19.739441 -0.859772,40.093994 -3.409454,60.91687z" id="path2850" fill-rule="evenodd" fill="#7fff00"/>
   <path id="path2862" d="m334.045319,520.911926c9.10498,-4.459778 18.569366,-7.679871 28.08548,-9.708374c12.98526,-5.355103 26.899536,-8.482178 40.9245,-9.092712c23.583282,-1.031555 47.492706,5.052246 67.727997,17.243652c20.237793,12.187317 36.809937,30.487549 46.940155,51.84967c0,0 0,0 0,0c10.13446,21.360107 13.829773,45.788452 10.45929,69.207764c-1.951965,13.473022 -6.20813,26.691467 -13.548523,38.000977c0,0 0,0 0,0c-7.332123,11.293823 -17.82254,20.720703 -30.24765,25.5896c-12.392609,4.862488 -26.843231,5.079346 -38.802765,-0.517578c0,0 -0.000031,0 -0.000031,0c-5.9935,-2.789307 -11.363129,-6.966614 -15.392517,-12.171997c0,0 -0.000031,0 -0.000031,0c-4.028778,-5.201538 -6.744171,-11.453491 -7.626495,-17.946167c-1.403748,-10.154297 1.844452,-20.945129 8.466736,-28.823303c1.800201,-2.147766 3.851257,-4.084656 6.090912,-5.783997c5.901215,-4.668213 13.222229,-7.688782 20.799744,-8.48053c7.254822,-0.742615 14.856201,0.495667 21.099976,4.283325c0,0 0,0 0.000031,0c6.22644,3.772644 11.080475,10.218506 12.169769,17.504883c0.951721,6.293396 -0.993103,13.123413 -5.430084,17.850281c-2.220276,2.366943 -5.027039,4.210632 -8.12616,5.278015c-3.099091,1.067322 -6.487305,1.353333 -9.749054,0.771362c-6.137543,-1.097168 -11.681183,-5.413025 -14.25708,-11.236389c-2.567719,-5.826782 -2.074768,-12.953796 1.386169,-18.456177c-3.579559,5.424377 -4.270538,12.599854 -1.779236,18.620483c2.505493,6.014709 8.082001,10.606384 14.483459,11.907715c3.394775,0.684143 6.950043,0.471558 10.246002,-0.580261c3.294952,-1.052551 6.308075,-2.927246 8.729156,-5.392395c4.838257,-4.94397 7.113098,-12.140625 6.23999,-18.988953c-1.031281,-7.904175 -6.014099,-14.96936 -12.692505,-19.205994c-6.666504,-4.224365 -14.762756,-5.791931 -22.552643,-5.151428c-11.180969,0.901062 -21.965912,6.29126 -29.248199,14.878174c-7.277344,8.596069 -10.835724,20.266296 -9.356537,31.476318c0,0 0,0.000061 0,0.000061c0.952911,7.142212 3.878052,13.971252 8.265076,19.671448c4.386841,5.697693 10.184845,10.254395 16.681885,13.302246c13.002808,6.076782 28.441498,5.957092 41.753632,0.756287c13.296204,-5.199219 24.445923,-15.085815 32.194763,-26.982727c7.744385,-11.887817 12.260132,-25.634644 14.308167,-39.577393c3.577515,-24.230774 -0.137024,-49.490723 -10.563721,-71.695374c-0.000061,-0.000061 -0.000061,-0.000061 -0.000061,-0.000061c-10.430359,-22.202942 -27.513977,-41.225159 -48.509705,-53.983643c-20.998016,-12.7547 -45.784393,-19.170532 -70.370636,-18.193787c-24.58606,0.981445 -48.821167,9.349426 -68.799255,23.776978z" fill-rule="evenodd" fill="#7fff00"/>
   <g id="g2911" transform="matrix(0.811768, 0, 0, 0.746578, 34.8018, 174.903)" fill="url(#pattern5504)">
    <path id="path2856" d="m602.629211,220.3237c3.274231,-1.508972 6.519348,-3.265991 9.702759,-5.264343c7.67688,-12.559998 12.370667,-26.795227 13.623718,-41.247559c0,0 0,0 0,0c1.541016,-17.810059 -2.151978,-35.849304 -10.3255,-51.358887c0,0 0,0 0,0c-3.406677,-6.464294 -7.572815,-12.494812 -12.369385,-17.929085c4.305176,5.839241 7.88324,12.157234 10.650513,18.762337c3.127197,7.462524 5.196655,15.303467 6.206299,23.221619c1.819641,8.762024 2.341614,17.825562 1.469238,26.780029c-1.644897,16.932007 -8.280762,33.506775 -18.957642,47.035889c0,0 0,0 0,0z" fill-rule="evenodd" fill="#7fff00"/>
    <g id="g2872" fill="url(#pattern5504)">
     <path d="m629.915833,182.357025c0,0 17.40918,-18.470764 25.052246,-39.276855c6.369263,19.532288 -11.252258,36.092224 -25.052246,39.276855z" id="path2868" fill="#7fff00"/>
     <path id="path2870" d="m627.939758,181.386444c0,0 13.592102,-13.279846 26.078491,-39.464966c-19.991455,1.53833 -28.603333,25.541504 -26.078491,39.464966z" fill="#7fff00"/>
    </g>
    <g transform="matrix(0.885611, -0.227989, 0.230144, 0.893982, -71.6548, 154.768)" id="g2876" fill="url(#pattern5504)">
     <path id="path2878" d="m742.482788,162.097687c0,0 17.409119,-18.470764 25.052246,-39.276855c6.369263,19.532288 -11.252319,36.092224 -25.052246,39.276855z" fill="#7fff00"/>
     <path d="m740.506653,161.127106c0,0 13.592102,-13.279846 26.078491,-39.464966c-19.991394,1.53833 -28.603271,25.541504 -26.078491,39.464966z" id="path2880" fill="#7fff00"/>
    </g>
    <g id="g2882" transform="matrix(0.337716, -0.595287, 0.555737, 0.372105, 61.1315, 669.572)" fill="url(#pattern5504)">
     <path d="m1132.596313,289.790436c0,0 17.40918,-18.470764 25.052246,-39.276855c6.369263,19.532288 -11.252319,36.092224 -25.052246,39.276855z" id="path2884" fill="#7fff00"/>
     <path id="path2886" d="m1130.620239,288.819855c0,0 13.592041,-13.279846 26.078491,-39.464966c-19.991455,1.53833 -28.603394,25.541504 -26.078491,39.464966z" fill="#7fff00"/>
    </g>
    <g id="g2888" transform="matrix(-0.805265, 0.444524, 0.443882, 0.809814, 859.103, -210.147)" fill="url(#pattern5504)">
     <path d="m414.145203,203.82605c0,0 17.40918,-18.470764 25.052246,-39.276855c6.369263,19.532288 -11.252258,36.092224 -25.052246,39.276855z" id="path2890" fill="#7fff00"/>
     <path id="path2892" d="m412.169128,202.855469c0,0 13.592102,-13.279846 26.078491,-39.464966c-19.991455,1.53833 -28.603333,25.541504 -26.078491,39.464966z" fill="#7fff00"/>
    </g>
    <g transform="matrix(-1.24472, 0, 0, 1, 1397.08, 12.5261)" id="g2894" fill="url(#pattern5504)">
     <path id="path2896" d="m629.915833,182.357025c0,0 17.40918,-18.470764 25.052246,-39.276855c6.369263,19.532288 -11.252258,36.092224 -25.052246,39.276855z" fill="#7fff00"/>
     <path d="m627.939758,181.386444c0,0 13.592102,-13.279846 26.078491,-39.464966c-19.991455,1.53833 -28.603333,25.541504 -26.078491,39.464966z" id="path2898" fill="#7fff00"/>
    </g>
   </g>
   <g id="g2906" transform="matrix(0.811768, 0, 0, 0.746578, 46.5212, 269.371)" fill="url(#pattern5504)">
    <path d="m500.620697,150.772568c0,1.43428 -0.855469,2.597 -1.910767,2.597c-1.055298,0 -1.910767,-1.16272 -1.910767,-2.597c0,-1.43428 0.855469,-2.596985 1.910767,-2.596985c1.055298,0 1.910767,1.162704 1.910767,2.596985z" id="path2900" fill="#7fff00"/>
    <path id="path2902" d="m497.113281,157.450195c0.389404,1.594711 -0.126007,3.090393 -1.151184,3.340714c-1.025177,0.25032 -2.171875,-0.839523 -2.561279,-2.434235c-0.389374,-1.594696 0.126038,-3.090393 1.151215,-3.340714c1.025177,-0.25032 2.171875,0.839523 2.561249,2.434235z" fill="#7fff00"/>
    <path d="m504.732574,158.48793c-0.502136,1.562881 -1.723663,2.568161 -2.728394,2.245361c-1.0047,-0.3228 -1.412109,-1.85144 -0.909973,-3.414307c0.502106,-1.562866 1.723633,-2.568161 2.728363,-2.245361c1.0047,0.3228 1.412109,1.85144 0.910004,3.414307z" id="path2904" fill="#7fff00"/>
   </g>
   <g id="g2981" transform="matrix(0.811768, 0, 0, 0.746578, 46.5212, 269.371)" fill="url(#pattern5504)">
    <path d="m510.817444,280.738068c6.029968,0.906433 12.165527,1.53595 18.38031,1.886047c28.233276,-6.194031 55.048035,-18.162292 78.595032,-34.550415c28.459045,-19.800598 52.277893,-46.151855 68.257446,-76.577515c0,0 0,0 0,-0.000061c3.384338,-6.443481 6.43866,-13.052551 9.148438,-19.792603c-3.035278,6.602051 -6.40094,13.040161 -10.077881,19.282043c-10.426208,17.703064 -23.520813,33.678589 -38.5177,47.494385c-9.560425,9.589844 -20.03717,18.302307 -31.223877,25.984131c-28.030212,19.237671 -60.653259,32.103333 -94.561768,36.273987c0,0 0,0 0,0z" id="path2931" fill-rule="evenodd" fill="#7fff00"/>
    <g id="g2939" transform="matrix(0.592237, 0.562086, -0.579772, 0.585076, 654.794, -119.361)" fill="url(#pattern5504)">
     <path d="m273.881317,231.575714c0,0 17.40918,-18.470764 25.052246,-39.276855c6.369263,19.532288 -11.252258,36.092224 -25.052246,39.276855z" id="path2941" fill="#7fff00"/>
     <path id="path2943" d="m271.905243,230.605133c0,0 13.592102,-13.279846 26.078491,-39.464966c-19.991455,1.53833 -28.603333,25.541504 -26.078491,39.464966z" fill="#7fff00"/>
    </g>
    <g transform="matrix(0.684044, -0.022396, -0.0275744, 0.668241, 272.585, 181.492)" id="g2945" fill="url(#pattern5504)">
     <path id="path2947" d="m604.973999,-23.473631c0,0 17.40918,-18.47077 25.052246,-39.276857c6.369263,19.532288 -11.252258,36.092228 -25.052246,39.276857z" fill="#7fff00"/>
     <path d="m602.997925,-24.44421c0,0 13.592102,-13.27985 26.078491,-39.46497c-19.991455,1.53833 -28.603333,25.5415 -26.078491,39.46497z" id="path2949" fill="#7fff00"/>
    </g>
    <g transform="matrix(-0.763035, -0.109248, -0.103385, 0.772581, 1213.09, 187.606)" id="g2951" fill="url(#pattern5504)">
     <path id="path2953" d="m700.968262,70.859619c0,0 17.40918,-18.470768 25.052246,-39.276859c6.369263,19.532291 -11.252258,36.092228 -25.052246,39.276859z" fill="#7fff00"/>
     <path d="m698.992188,69.889038c0,0 13.592102,-13.279846 26.078491,-39.464968c-19.991455,1.53833 -28.603333,25.54151 -26.078491,39.464968z" id="path2955" fill="#7fff00"/>
    </g>
   </g>
   <g id="g2993" transform="matrix(0.737842, -0.311282, -0.261482, -0.524249, 73.1939, 1388.74)" fill="url(#pattern5504)">
    <path id="path2995" d="m682.977051,1179.440796c6.029968,0.906494 12.165527,1.536011 18.38031,1.886108c28.233276,-6.194092 55.048035,-18.162354 78.595032,-34.550415c28.459045,-19.800659 52.277893,-46.151855 68.257446,-76.577515c0,0 0,0 0,-0.000122c3.384338,-6.443481 6.43866,-13.05249 9.148438,-19.792603c-3.035278,6.602051 -6.40094,13.040161 -10.077881,19.282104c-10.426208,17.703003 -23.520813,33.678589 -38.5177,47.494385c-9.560425,9.589844 -20.03717,18.302246 -31.223877,25.984131c-28.030212,19.237671 -60.653259,32.103271 -94.561768,36.273926c0,0 0,0 0,0z" fill-rule="evenodd" fill="#7fff00"/>
    <g transform="matrix(0.592237, 0.562086, -0.579772, 0.585076, 654.794, -119.361)" id="g2997" fill="url(#pattern5504)">
     <path id="path2999" d="m1198.603394,879.234558c0,0 17.40918,-18.470703 25.052246,-39.276794c6.369263,19.532227 -11.252319,36.092224 -25.052246,39.276794z" fill="#7fff00"/>
     <path d="m1196.627319,878.264038c0,0 13.592163,-13.279846 26.078491,-39.464966c-19.991455,1.53833 -28.603271,25.541504 -26.078491,39.464966z" id="path3001" fill="#7fff00"/>
    </g>
    <g id="g3003" transform="matrix(0.684044, -0.022396, -0.0275744, 0.668241, 272.585, 181.492)" fill="url(#pattern5504)">
     <path d="m911.279968,1331.670898c0,0 17.409241,-18.470825 25.052307,-39.276855c6.369202,19.532227 -11.252319,36.092163 -25.052307,39.276855z" id="path3005" fill="#7fff00"/>
     <path id="path3007" d="m909.303955,1330.700195c0,0 13.592102,-13.279785 26.078491,-39.464844c-19.991455,1.53833 -28.603394,25.541504 -26.078491,39.464844z" fill="#7fff00"/>
    </g>
    <g id="g3009" transform="matrix(-0.763035, -0.109248, -0.103385, 0.772581, 1213.09, 187.606)" fill="url(#pattern5504)">
     <path d="m324.937744,1180.934204c0,0 17.40918,-18.470825 25.052246,-39.276978c6.369263,19.532349 -11.252258,36.092285 -25.052246,39.276978z" id="path3011" fill="#7fff00"/>
     <path id="path3013" d="m322.96167,1179.963623c0,0 13.592102,-13.279907 26.078491,-39.465088c-19.991455,1.538452 -28.603333,25.541626 -26.078491,39.465088z" fill="#7fff00"/>
    </g>
   </g>
   <g id="g3015" transform="matrix(0.758492, -0.266008, 0.289235, 0.697581, -297.442, 500.184)" fill="url(#pattern5504)">
    <path id="path3017" d="m657.937439,307.837036c6.029968,0.906433 12.165527,1.53595 18.38031,1.886047c28.233276,-6.194031 55.048035,-18.162292 78.595032,-34.550415c28.459045,-19.800598 52.277893,-46.151855 68.257446,-76.577515c0,0 0,0 0,-0.000061c3.384338,-6.443481 6.43866,-13.052551 9.148438,-19.792603c-3.035278,6.602051 -6.40094,13.040161 -10.077881,19.282043c-10.426208,17.703064 -23.520813,33.678589 -38.5177,47.494385c-9.560425,9.589844 -20.03717,18.302307 -31.223877,25.984131c-28.030212,19.237671 -60.653259,32.103333 -94.561768,36.273987c0,0 0,0 0,0z" fill-rule="evenodd" fill="#7fff00"/>
    <g transform="matrix(0.592237, 0.562086, -0.579772, 0.585076, 654.794, -119.361)" id="g3019" fill="url(#pattern5504)">
     <path id="path3021" d="m425.26416,132.458313c0,0 17.40918,-18.470764 25.052246,-39.276855c6.369232,19.532295 -11.252258,36.092224 -25.052246,39.276855z" fill="#7fff00"/>
     <path d="m423.288055,131.487732c0,0 13.592133,-13.279839 26.078522,-39.464958c-19.991486,1.538322 -28.603333,25.541496 -26.078522,39.464958z" id="path3023" fill="#7fff00"/>
    </g>
    <g id="g3025" transform="matrix(0.684044, -0.022396, -0.0275744, 0.668241, 272.585, 181.492)" fill="url(#pattern5504)">
     <path d="m821.975708,24.35187c0,0 17.40918,-18.470769 25.052246,-39.276859c6.369263,19.53229 -11.252258,36.09223 -25.052246,39.276859z" id="path3027" fill="#7fff00"/>
     <path id="path3029" d="m819.999634,23.38129c0,0 13.592102,-13.27985 26.078491,-39.46497c-19.991455,1.538329 -28.603333,25.541499 -26.078491,39.46497z" fill="#7fff00"/>
    </g>
    <g id="g3031" transform="matrix(-0.763035, -0.109248, -0.103385, 0.772581, 1213.09, 187.606)" fill="url(#pattern5504)">
     <path d="m507.120819,78.524231c0,0 17.40921,-18.47076 25.052277,-39.276852c6.369263,19.53228 -11.252258,36.09222 -25.052277,39.276852z" id="path3033" fill="#7fff00"/>
     <path id="path3035" d="m505.144745,77.55365c0,0 13.592133,-13.279846 26.078522,-39.46497c-19.991486,1.53833 -28.603363,25.541512 -26.078522,39.46497z" fill="#7fff00"/>
    </g>
   </g>
   <g transform="matrix(0.0545054, -0.744893, 0.809936, 0.0501283, -314.623, 952.299)" id="g3037" fill="url(#pattern5504)">
    <path d="m922.79303,665.921204c6.029968,0.906433 12.165527,1.53595 18.38031,1.886047c28.233276,-6.194031 55.048035,-18.162292 78.595032,-34.550415c28.459045,-19.800598 52.277893,-46.151855 68.257507,-76.577515c0,0 0,0 0,-0.000061c3.384277,-6.443481 6.438599,-13.052551 9.148438,-19.792603c-3.035278,6.602051 -6.401001,13.040161 -10.078003,19.282043c-10.426147,17.703064 -23.520752,33.678589 -38.5177,47.494385c-9.560303,9.589844 -20.037109,18.302307 -31.223816,25.984131c-28.030212,19.237671 -60.653259,32.103333 -94.561768,36.273987c0,0 0,0 0,0z" id="path3039" fill-rule="evenodd" fill="#7fff00"/>
    <g id="g3041" transform="matrix(0.592237, 0.562086, -0.579772, 0.585076, 654.794, -119.361)" fill="url(#pattern5504)">
     <path d="m964.49054,226.450562c0,0 17.40918,-18.470764 25.052246,-39.276855c6.369263,19.532288 -11.252258,36.092224 -25.052246,39.276855z" id="path3043" fill="#7fff00"/>
     <path id="path3045" d="m962.514465,225.47998c0,0 13.592102,-13.279846 26.078491,-39.464966c-19.991455,1.53833 -28.603333,25.541504 -26.078491,39.464966z" fill="#7fff00"/>
    </g>
    <g transform="matrix(0.684044, -0.022396, -0.0275744, 0.668241, 272.585, 181.492)" id="g3047" fill="url(#pattern5504)">
     <path id="path3049" d="m1231.320435,573.932068c0,0 17.409058,-18.470764 25.052246,-39.276855c6.369263,19.532288 -11.252319,36.092224 -25.052246,39.276855z" fill="#7fff00"/>
     <path d="m1229.344238,572.961487c0,0 13.592163,-13.279846 26.078613,-39.464966c-19.991577,1.53833 -28.603394,25.541504 -26.078613,39.464966z" id="path3051" fill="#7fff00"/>
    </g>
    <g transform="matrix(-0.763035, -0.109248, -0.103385, 0.772581, 1213.09, 187.606)" id="g3053" fill="url(#pattern5504)">
     <path id="path3055" d="m104.919678,485.141327c0,0 17.40918,-18.470764 25.052246,-39.276855c6.369263,19.532288 -11.252251,36.092224 -25.052246,39.276855z" fill="#7fff00"/>
     <path d="m102.943604,484.170746c0,0 13.59211,-13.279846 26.078491,-39.464966c-19.991455,1.53833 -28.603333,25.541504 -26.078491,39.464966z" id="path3057" fill="#7fff00"/>
    </g>
   </g>
   <g id="g3059" transform="matrix(0.810715, -0.0380084, 0.0413273, 0.74561, -113.084, 209.498)" fill="url(#pattern5504)">
    <path id="path3061" d="m521.641907,151.308075c0,1.434265 -0.855469,2.596985 -1.910767,2.596985c-1.055298,0 -1.910767,-1.16272 -1.910767,-2.596985c0,-1.43428 0.855469,-2.597 1.910767,-2.597c1.055298,0 1.910767,1.16272 1.910767,2.597z" fill="#7fff00"/>
    <path d="m518.134521,157.985672c0.389404,1.594711 -0.126038,3.090393 -1.151184,3.340729c-1.025208,0.25032 -2.171936,-0.839539 -2.561279,-2.434235c-0.389404,-1.594711 0.125977,-3.090408 1.151184,-3.340729c1.025146,-0.25032 2.171875,0.839539 2.561279,2.434235z" id="path3063" fill="#7fff00"/>
    <path id="path3065" d="m525.753784,159.023438c-0.502136,1.562866 -1.723633,2.568161 -2.728394,2.245361c-1.0047,-0.3228 -1.412109,-1.85144 -0.909973,-3.414322c0.502136,-1.562866 1.723633,-2.568161 2.728333,-2.245361c1.004761,0.3228 1.41217,1.85144 0.910034,3.414322z" fill="#7fff00"/>
   </g>
   <g transform="matrix(0.534279, 0.562078, -0.611158, 0.491373, 239.728, 1.31734)" id="g3067" fill="url(#pattern5504)">
    <path d="m189.754089,291.918182c0,1.434265 -0.855469,2.596985 -1.910767,2.596985c-1.055298,0 -1.910767,-1.16272 -1.910767,-2.596985c0,-1.434296 0.855469,-2.597015 1.910767,-2.597015c1.055298,0 1.910767,1.16272 1.910767,2.597015z" id="path3069" fill="#7fff00"/>
    <path id="path3071" d="m186.246689,298.595795c0.389389,1.594696 -0.126007,3.090393 -1.151184,3.340729c-1.025192,0.250305 -2.17189,-0.839539 -2.561279,-2.434235c-0.389389,-1.594727 0.126007,-3.090393 1.151184,-3.340729c1.025177,-0.250305 2.17189,0.839539 2.561279,2.434235z" fill="#7fff00"/>
    <path d="m193.865967,299.633545c-0.502121,1.562866 -1.723648,2.568146 -2.728363,2.245361c-1.004715,-0.322815 -1.412125,-1.85144 -0.910004,-3.414307c0.502136,-1.562897 1.723663,-2.568176 2.728378,-2.245361c1.004715,0.322784 1.412125,1.85144 0.909988,3.414307z" id="path3073" fill="#7fff00"/>
   </g>
   <g id="g3075" transform="matrix(0.651855, -0.444938, 0.483789, 0.599507, -425.851, 686.043)" fill="url(#pattern5504)">
    <path id="path3077" d="m746.701111,232.11264c0,1.43428 -0.855469,2.596985 -1.910767,2.596985c-1.055298,0 -1.910767,-1.162704 -1.910767,-2.596985c0,-1.43428 0.855469,-2.597 1.910767,-2.597c1.055298,0 1.910767,1.16272 1.910767,2.597z" fill="#7fff00"/>
    <path d="m743.193726,238.790253c0.389343,1.594711 -0.126038,3.090393 -1.151184,3.340714c-1.025208,0.250336 -2.171936,-0.839523 -2.561279,-2.434219c-0.389404,-1.594711 0.125977,-3.090408 1.151184,-3.340729c1.025146,-0.25032 2.171875,0.839539 2.561279,2.434235z" id="path3079" fill="#7fff00"/>
    <path id="path3081" d="m750.812988,239.828003c-0.502136,1.562866 -1.723633,2.568161 -2.728333,2.245361c-1.004761,-0.3228 -1.41217,-1.85144 -0.910034,-3.414322c0.502136,-1.562866 1.723694,-2.568161 2.728394,-2.245361c1.0047,0.3228 1.412109,1.85144 0.909973,3.414322z" fill="#7fff00"/>
   </g>
   <g id="g3083" transform="matrix(0.75983, 0.262758, -0.285701, 0.698812, 422.255, 24.514)" fill="url(#pattern5504)">
    <path id="path3085" d="m355.298126,177.190903c0,1.43428 -0.855469,2.597 -1.910767,2.597c-1.055298,0 -1.910767,-1.16272 -1.910767,-2.597c0,-1.43428 0.855469,-2.596985 1.910767,-2.596985c1.055298,0 1.910767,1.162704 1.910767,2.596985z" fill="#7fff00"/>
    <path d="m351.790741,183.86853c0.389404,1.594696 -0.126007,3.090393 -1.151184,3.340714c-1.025177,0.25032 -2.171906,-0.839523 -2.561279,-2.434235c-0.389374,-1.594696 0.126007,-3.090393 1.151184,-3.340714c1.025177,-0.25032 2.171906,0.839523 2.561279,2.434235z" id="path3087" fill="#7fff00"/>
    <path id="path3089" d="m359.410004,184.906281c-0.502136,1.562866 -1.723633,2.568161 -2.728363,2.245361c-1.0047,-0.3228 -1.412109,-1.85144 -0.910004,-3.414322c0.502136,-1.562866 1.723663,-2.568161 2.728363,-2.245361c1.00473,0.3228 1.41214,1.85144 0.910004,3.414322z" fill="#7fff00"/>
   </g>
   <g transform="matrix(0.811134, -0.029496, 0.0320715, 0.745995, 328.689, 301.3)" id="g3091" fill="url(#pattern5504)">
    <path d="m516.93396,151.094971a1.91077,2.59699 0 1 1 -3.821533,0a1.91077,2.59699 0 1 1 3.821533,0z" id="path3093" fill="#7fff00"/>
    <path id="path3095" d="m513.426575,157.772568a1.85624,2.88747 0 1 1 -3.712463,0.906494a1.85624,2.88747 0 1 1 3.712463,-0.906494z" fill="#7fff00"/>
    <path d="m521.045837,158.810333a1.81918,2.82983 0 1 1 -3.638367,-1.168961a1.81918,2.82983 0 1 1 3.638367,1.168961z" id="path3097" fill="#7fff00"/>
   </g>
   <g transform="matrix(0.763038, -0.254775, 0.277021, 0.701761, 347.241, 448.655)" id="g3099" fill="url(#pattern5504)">
    <path d="m641.528015,175.559357c0,1.43428 -0.855469,2.597 -1.910767,2.597c-1.055298,0 -1.910767,-1.16272 -1.910767,-2.597c0,-1.43428 0.855469,-2.597 1.910767,-2.597c1.055298,0 1.910767,1.16272 1.910767,2.597z" id="path3101" fill="#7fff00"/>
    <path id="path3103" d="m638.02063,182.236969c0.389343,1.594711 -0.126038,3.090393 -1.151184,3.340714c-1.025208,0.250336 -2.171936,-0.839523 -2.561279,-2.434219c-0.389404,-1.594711 0.125977,-3.090408 1.151184,-3.340729c1.025146,-0.25032 2.171875,0.839539 2.561279,2.434235z" fill="#7fff00"/>
    <path d="m645.639954,183.274719c-0.502136,1.562881 -1.723694,2.568161 -2.728394,2.245361c-1.0047,-0.3228 -1.412109,-1.85144 -0.909973,-3.414307c0.502075,-1.562881 1.723633,-2.568161 2.728333,-2.245361c1.0047,0.3228 1.412109,1.85144 0.910034,3.414307z" id="path3105" fill="#7fff00"/>
   </g>
   <g id="g3107" transform="matrix(0.811717, 0.00838633, -0.00911861, 0.746531, 195.967, 417.578)" fill="url(#pattern5504)">
    <path id="path3109" d="m495.982483,150.79866c0,1.43428 -0.855438,2.597 -1.910736,2.597c-1.055328,0 -1.910797,-1.16272 -1.910797,-2.597c0,-1.43428 0.855469,-2.597 1.910797,-2.597c1.055298,0 1.910736,1.16272 1.910736,2.597z" fill="#7fff00"/>
    <path d="m492.475098,157.476303c0.389374,1.594696 -0.126007,3.090393 -1.151215,3.340714c-1.025177,0.25032 -2.171875,-0.839539 -2.561249,-2.434235c-0.389404,-1.594711 0.126007,-3.090393 1.151184,-3.340714c1.025177,-0.25032 2.171875,0.839523 2.561279,2.434235z" id="path3111" fill="#7fff00"/>
    <path id="path3113" d="m500.09436,158.514038c-0.502136,1.562866 -1.723633,2.568161 -2.728363,2.245361c-1.00473,-0.3228 -1.412109,-1.85144 -0.910004,-3.414322c0.502136,-1.562866 1.723663,-2.568161 2.728363,-2.245361c1.00473,0.3228 1.41214,1.85144 0.910004,3.414322z" fill="#7fff00"/>
   </g>
   <g transform="matrix(-0.799127, -0.131241, 0.142701, -0.734952, 1142.67, 1431.73)" id="g3115" fill="url(#pattern5504)">
    <path d="m573.205933,970.15741c0,1.434326 -0.855469,2.597046 -1.910767,2.597046c-1.055298,0 -1.910767,-1.16272 -1.910767,-2.597046c0,-1.434265 0.855469,-2.596985 1.910767,-2.596985c1.055298,0 1.910767,1.16272 1.910767,2.596985z" id="path3117" fill="#7fff00"/>
    <path id="path3119" d="m569.698547,976.835022c0.389404,1.594727 -0.126038,3.090454 -1.151184,3.340759c-1.025208,0.250305 -2.171936,-0.839539 -2.561279,-2.434265c-0.389404,-1.594666 0.125977,-3.090393 1.151184,-3.340698c1.025146,-0.250305 2.171875,0.839539 2.561279,2.434204z" fill="#7fff00"/>
    <path d="m577.31781,977.872803c-0.502136,1.562866 -1.723694,2.568176 -2.728394,2.245361c-1.0047,-0.322815 -1.412109,-1.85144 -0.909973,-3.414307c0.502136,-1.562866 1.723633,-2.568176 2.728333,-2.245361c1.004761,0.322815 1.412109,1.85144 0.910034,3.414307z" id="path3121" fill="#7fff00"/>
   </g>
   <g transform="matrix(-0.807959, 0.072239, -0.0785468, -0.743075, 801.576, 1332.44)" id="g3123" fill="url(#pattern5504)">
    <path d="m460.667725,974.649963c0,1.434265 -0.855469,2.596985 -1.910767,2.596985c-1.055298,0 -1.910767,-1.16272 -1.910767,-2.596985c0,-1.434326 0.855469,-2.597046 1.910767,-2.597046c1.055298,0 1.910767,1.16272 1.910767,2.597046z" id="path3125" fill="#7fff00"/>
    <path id="path3127" d="m457.160339,981.327576c0.389404,1.594666 -0.126007,3.090332 -1.151184,3.340698c-1.025177,0.250305 -2.171906,-0.839539 -2.561279,-2.434265c-0.389374,-1.594666 0.126007,-3.090332 1.151215,-3.340698c1.025177,-0.250305 2.171875,0.839539 2.561249,2.434265z" fill="#7fff00"/>
    <path d="m464.779602,982.365295c-0.502106,1.562866 -1.723633,2.568176 -2.728363,2.245361c-1.0047,-0.322815 -1.412109,-1.85144 -0.910004,-3.414307c0.502167,-1.562866 1.723694,-2.568176 2.728394,-2.245361c1.00473,0.322754 1.412109,1.85144 0.909973,3.414307z" id="path3129" fill="#7fff00"/>
   </g>
   <g transform="matrix(0.809041, -0.0611496, 0.0664891, 0.74407, -256.202, 587.087)" id="g3131" fill="url(#pattern5504)">
    <path d="m534.440491,152.160004c0,1.43428 -0.855469,2.597 -1.910767,2.597c-1.055298,0 -1.910767,-1.16272 -1.910767,-2.597c0,-1.43428 0.855469,-2.597 1.910767,-2.597c1.055298,0 1.910767,1.16272 1.910767,2.597z" id="path3133" fill="#7fff00"/>
    <path id="path3135" d="m530.933105,158.837616c0.389404,1.594711 -0.125977,3.090393 -1.151184,3.340714c-1.025146,0.25032 -2.171875,-0.839523 -2.561279,-2.434235c-0.389343,-1.594696 0.126038,-3.090393 1.151245,-3.340714c1.025146,-0.25032 2.171875,0.839523 2.561218,2.434235z" fill="#7fff00"/>
    <path d="m538.552368,159.875351c-0.502136,1.562881 -1.723633,2.568161 -2.728333,2.245361c-1.004761,-0.3228 -1.41217,-1.85144 -0.910034,-3.414307c0.502136,-1.562881 1.723694,-2.568161 2.728394,-2.245361c1.0047,0.3228 1.412109,1.85144 0.909973,3.414307z" id="path3137" fill="#7fff00"/>
   </g>
   <g transform="matrix(-0.742031, 0.302742, 0.329177, 0.682442, 573.241, 395.981)" id="g3139" fill="url(#pattern5504)">
    <path d="m435.192902,255.795563c3.274231,-1.508972 6.519348,-3.265991 9.702759,-5.264343c7.67688,-12.559998 12.370667,-26.795227 13.623718,-41.247559c0,0 0,0 0,0c1.541016,-17.810059 -2.151978,-35.849304 -10.3255,-51.358887c0,0 0,0 0,0c-3.406677,-6.464294 -7.572815,-12.494812 -12.369385,-17.929077c4.305176,5.839233 7.88324,12.157227 10.650513,18.762329c3.127197,7.462524 5.196655,15.303467 6.206299,23.221619c1.819641,8.762024 2.341614,17.825562 1.469238,26.780029c-1.644897,16.932007 -8.280762,33.506775 -18.957642,47.035889c0,0 0,0 0,0z" id="path3141" fill-rule="evenodd" fill="#7fff00"/>
    <g id="g3143" fill="url(#pattern5504)">
     <path id="path3145" d="m462.479523,217.828888c0,0 17.40918,-18.470764 25.052246,-39.276855c6.369263,19.532288 -11.252258,36.092224 -25.052246,39.276855z" fill="#7fff00"/>
     <path d="m460.503448,216.858307c0,0 13.592102,-13.279846 26.078491,-39.464966c-19.991455,1.53833 -28.603333,25.541504 -26.078491,39.464966z" id="path3147" fill="#7fff00"/>
    </g>
    <g id="g3149" transform="matrix(0.885611, -0.227989, 0.230144, 0.893982, -71.6548, 154.768)" fill="url(#pattern5504)">
     <path d="m555.500488,154.090881c0,0 17.40918,-18.470764 25.052246,-39.276848c6.369263,19.53228 -11.252258,36.092216 -25.052246,39.276848z" id="path3151" fill="#7fff00"/>
     <path id="path3153" d="m553.524414,153.1203c0,0 13.592102,-13.279846 26.078491,-39.464973c-19.991455,1.53833 -28.603333,25.541512 -26.078491,39.464973z" fill="#7fff00"/>
    </g>
    <g transform="matrix(0.337716, -0.595287, 0.555737, 0.372105, 61.1315, 669.572)" id="g3155" fill="url(#pattern5504)">
     <path id="path3157" d="m952.927063,97.686737c0,0 17.40918,-18.470764 25.052246,-39.276855c6.369263,19.532288 -11.252258,36.092232 -25.052246,39.276855z" fill="#7fff00"/>
     <path d="m950.950989,96.716164c0,0 13.592102,-13.279854 26.078491,-39.464973c-19.991455,1.53833 -28.603333,25.541496 -26.078491,39.464973z" id="path3159" fill="#7fff00"/>
    </g>
    <g transform="matrix(-0.805265, 0.444524, 0.443882, 0.809814, 859.103, -210.147)" id="g3161" fill="url(#pattern5504)">
     <path id="path3163" d="m592.308594,149.830933c0,0 17.40918,-18.470764 25.052246,-39.276855c6.369263,19.532288 -11.252258,36.092224 -25.052246,39.276855z" fill="#7fff00"/>
     <path d="m590.33252,148.860352c0,0 13.592102,-13.279846 26.078491,-39.464958c-19.991455,1.53833 -28.603333,25.541496 -26.078491,39.464958z" id="path3165" fill="#7fff00"/>
    </g>
    <g id="g3167" transform="matrix(-1.24472, 0, 0, 1, 1397.08, 12.5261)" fill="url(#pattern5504)">
     <path d="m764.432983,217.828888c0,0 17.40918,-18.470764 25.052246,-39.276855c6.369324,19.532288 -11.252197,36.092224 -25.052246,39.276855z" id="path3169" fill="#7fff00"/>
     <path id="path3171" d="m762.45697,216.858307c0,0 13.592102,-13.279846 26.07843,-39.464966c-19.991455,1.53833 -28.603271,25.541504 -26.07843,39.464966z" fill="#7fff00"/>
    </g>
   </g>
   <g transform="matrix(0.422868, 0.539675, -0.600391, 0.380104, 719.922, 432.881)" id="g3173" fill="url(#pattern5504)">
    <path d="m220.821472,364.315979c3.274231,-1.508972 6.519348,-3.265991 9.702759,-5.264343c7.67688,-12.559998 12.370667,-26.795227 13.623718,-41.247559c0,0 0,0 0,0c1.541016,-17.810059 -2.151978,-35.849304 -10.3255,-51.358887c0,0 0,0 0,0c-3.406677,-6.464294 -7.572815,-12.494812 -12.369385,-17.929077c4.305176,5.839233 7.88324,12.157227 10.650513,18.762329c3.127197,7.462524 5.196655,15.303467 6.206299,23.221619c1.819641,8.762024 2.341614,17.825562 1.469238,26.780029c-1.644897,16.932007 -8.280762,33.506775 -18.957642,47.035889c0,0 0,0 0,0z" id="path3175" fill-rule="evenodd" fill="#7fff00"/>
    <g id="g3177" fill="url(#pattern5504)">
     <path id="path3179" d="m248.108093,326.349304c0,0 17.40918,-18.470764 25.052246,-39.276855c6.369263,19.532288 -11.252258,36.092224 -25.052246,39.276855z" fill="#7fff00"/>
     <path d="m246.132019,325.378723c0,0 13.592102,-13.279846 26.078491,-39.464966c-19.991455,1.53833 -28.603333,25.541504 -26.078491,39.464966z" id="path3181" fill="#7fff00"/>
    </g>
    <g id="g3183" transform="matrix(0.885611, -0.227989, 0.230144, 0.893982, -71.6548, 154.768)" fill="url(#pattern5504)">
     <path d="m298.90033,210.041107c0,0 17.40918,-18.470764 25.052246,-39.276855c6.369263,19.532288 -11.252258,36.092224 -25.052246,39.276855z" id="path3185" fill="#7fff00"/>
     <path id="path3187" d="m296.924255,209.070526c0,0 13.592102,-13.279846 26.078491,-39.464966c-19.991455,1.53833 -28.603333,25.541504 -26.078491,39.464966z" fill="#7fff00"/>
    </g>
    <g transform="matrix(0.337716, -0.595287, 0.555737, 0.372105, 61.1315, 669.572)" id="g3189" fill="url(#pattern5504)">
     <path id="path3191" d="m646.068298,-101.58075c0,0 17.40918,-18.470764 25.052246,-39.276855c6.369263,19.532288 -11.252258,36.092224 -25.052246,39.276855z" fill="#7fff00"/>
     <path d="m644.092224,-102.551331c0,0 13.592102,-13.279846 26.078491,-39.464966c-19.991455,1.53833 -28.603333,25.541504 -26.078491,39.464966z" id="path3193" fill="#7fff00"/>
    </g>
    <g transform="matrix(-0.805265, 0.444524, 0.443882, 0.809814, 859.103, -210.147)" id="g3195" fill="url(#pattern5504)">
     <path id="path3197" d="m853.390564,140.524139c0,0 17.40918,-18.470757 25.052246,-39.276863c6.369263,19.532295 -11.252258,36.092232 -25.052246,39.276863z" fill="#7fff00"/>
     <path d="m851.41449,139.553558c0,0 13.592102,-13.279846 26.078491,-39.464966c-19.991455,1.53833 -28.603333,25.541504 -26.078491,39.464966z" id="path3199" fill="#7fff00"/>
    </g>
    <g id="g3201" transform="matrix(-1.24472, 0, 0, 1, 1397.08, 12.5261)" fill="url(#pattern5504)">
     <path d="m936.657593,326.349304c0,0 17.409119,-18.470764 25.052246,-39.276855c6.369263,19.532288 -11.252319,36.092224 -25.052246,39.276855z" id="path3203" fill="#7fff00"/>
     <path id="path3205" d="m934.681519,325.378723c0,0 13.592041,-13.279846 26.07843,-39.464966c-19.991394,1.53833 -28.603333,25.541504 -26.07843,39.464966z" fill="#7fff00"/>
    </g>
   </g>
   <g transform="matrix(0.799876, 0.13844, -0.127322, 0.735641, 443.096, 100.584)" id="g3228" fill="url(#pattern5504)">
    <path d="m520.94043,256.747345c4.302673,-1.380737 8.593811,-3.099854 12.825928,-5.148804c13.879639,-14.725281 23.481628,-33.252991 27.354858,-52.837891c4.716003,-23.879272 0.874512,-49.111694 -10.407104,-70.182007c-3.440613,-6.426147 -7.546997,-12.47332 -12.222534,-18.013916c4.294189,5.845764 7.955078,12.118103 10.913147,18.671997c5.254272,11.638062 8.209167,24.193481 8.864807,36.766846c1.185425,10.570435 0.745544,21.348267 -1.412354,31.801331c-4.700562,22.819214 -17.592834,44.097595 -35.916748,58.942444c0,0 0,0 0,0z" id="path3230" fill-rule="evenodd" fill="#7fff00"/>
    <g id="g3232" fill="url(#pattern5504)">
     <path id="path3234" d="m565.153137,188.405914c0,0 17.40918,-18.470764 25.052246,-39.276855c6.369263,19.532288 -11.252258,36.092224 -25.052246,39.276855z" fill="#7fff00"/>
     <path d="m563.177063,187.435333c0,0 13.592102,-13.279846 26.078491,-39.464966c-19.991455,1.53833 -28.603333,25.541504 -26.078491,39.464966z" id="path3236" fill="#7fff00"/>
    </g>
    <g id="g3238" transform="matrix(0.885611, -0.227989, 0.230144, 0.893982, -71.6548, 154.768)" fill="url(#pattern5504)">
     <path d="m672.251282,150.953094c0,0 17.409119,-18.470764 25.052185,-39.276855c6.369263,19.532288 -11.252197,36.092224 -25.052185,39.276855z" id="path3240" fill="#7fff00"/>
     <path id="path3242" d="m670.275146,149.982513c0,0 13.592163,-13.279846 26.078491,-39.464966c-19.991394,1.53833 -28.603271,25.541504 -26.078491,39.464966z" fill="#7fff00"/>
    </g>
    <g transform="matrix(0.337716, -0.595287, 0.555737, 0.372105, 61.1315, 669.572)" id="g3244" fill="url(#pattern5504)">
     <path id="path3246" d="m1072.441162,209.811371c0,0 17.40918,-18.470764 25.052246,-39.276855c6.369263,19.532288 -11.252197,36.092224 -25.052246,39.276855z" fill="#7fff00"/>
     <path d="m1070.465088,208.84079c0,0 13.592163,-13.279846 26.078491,-39.464966c-19.991455,1.53833 -28.603394,25.541504 -26.078491,39.464966z" id="path3248" fill="#7fff00"/>
    </g>
    <g transform="matrix(-0.805265, 0.444524, 0.443882, 0.809814, 859.103, -210.147)" id="g3250" fill="url(#pattern5504)">
     <path id="path3252" d="m479.048279,175.668884c0,0 17.40918,-18.470764 25.052246,-39.276855c6.369263,19.532288 -11.252258,36.092224 -25.052246,39.276855z" fill="#7fff00"/>
     <path d="m477.072205,174.698303c0,0 13.592102,-13.279846 26.078491,-39.464966c-19.991455,1.53833 -28.603333,25.541504 -26.078491,39.464966z" id="path3254" fill="#7fff00"/>
    </g>
    <g id="g3256" transform="matrix(-1.24472, 0, 0, 1, 1397.08, 12.5261)" fill="url(#pattern5504)">
     <path d="m681.94574,188.405914c0,0 17.40918,-18.470764 25.052246,-39.276855c6.369263,19.532288 -11.252258,36.092224 -25.052246,39.276855z" id="path3258" fill="#7fff00"/>
     <path id="path3260" d="m679.969666,187.435333c0,0 13.592102,-13.279846 26.078491,-39.464966c-19.991455,1.53833 -28.603333,25.541504 -26.078491,39.464966z" fill="#7fff00"/>
    </g>
   </g>
   <path d="m-53.447338,209.159424l2.323437,0l0,2.1203l-2.323437,0l0,-2.1203z" id="rect5261" fill="#7fff00"/>
   <rect width="2.341234" height="2.175213" x="-114.720424" y="182.555798" id="rect5320" transform="matrix(0.948076, -0.318044, 0.318044, 0.948076, 0, 0)" fill="#7fff00"/>
   <path d="m-75.719093,213.511795a0.65403,0.8371 0 1 1 -1.308067,-0.777283a0.65403,0.8371 0 1 1 1.308067,0.777283z" id="path5284" fill="#7fff00"/>
   <path id="path5286" d="m-75.361794,214.737808a0.70607,0.89947 0 1 1 -1.412148,0.732651a0.70607,0.89947 0 1 1 1.412148,-0.732651z" fill="#7fff00"/>
   <path d="m-73.720657,212.931473a0.73006,1.0731 0 1 1 -1.460136,1.106262a0.73006,1.0731 0 1 1 1.460136,-1.106262z" id="path5288" fill="#7fff00"/>
   <path id="path5290" d="m-76.249878,217.649704a0.00021,0.0003 0 1 1 -0.00042,-1.416412a0.00021,0.0003 0 1 1 0.00042,1.416412z" fill="#7fff00"/>
   <path id="path5292" d="m-73.638672,216.776764a0.49773,0.72632 0 1 1 -0.995468,-1.433701a0.49773,0.72632 0 1 1 0.995468,1.433701z" fill="#7fff00"/>
   <path id="path5294" d="m-72.054131,213.527466a0.53342,0.82253 0 1 1 -1.066841,-0.907578a0.53342,0.82253 0 1 1 1.066841,0.907578z" fill="#7fff00"/>
   <path d="m-71.860313,216.896591a0.586,0.91389 0 1 1 -1.171997,-0.583725a0.586,0.91389 0 1 1 1.171997,0.583725z" id="path5296" fill="#7fff00"/>
   <path d="m-72.4897,214.176544a0.0341,0.05024 0 1 1 -0.068199,1.181747a0.0341,0.05024 0 1 1 0.068199,-1.181747z" id="path5298" fill="#7fff00"/>
   <rect width="4" height="4" x="-50.393454" y="204.51411" id="rect5353" fill="#7fff00"/>
   <path id="path5361" d="m-54.19035,200.258682a0.59495,0.87449 0 1 1 -1.189899,0.90152a0.59495,0.87449 0 1 1 1.189899,-0.90152z" fill="#7fff00"/>
   <rect width="4.531986" height="4.508552" x="-50.633428" y="199.02886" id="rect5438" fill="#7fff00"/>
   <g id="g5406">
    <path d="m-62.343319,201.936432c-0.43626,0.000122 -0.789982,-0.234543 -0.790081,-0.524185c-0.000099,-0.289642 0.353451,-0.524521 0.789711,-0.524643c0.436249,-0.000122 0.78997,0.234558 0.79007,0.5242c0.000111,0.289642 -0.353451,0.524506 -0.7897,0.524628z" id="path5408" fill="#7fff00"/>
    <path d="m-59.307301,200.591873c-0.454479,0.316162 -0.898399,0.296829 -0.991558,-0.043228c-0.09317,-0.340057 0.199738,-0.871964 0.654217,-1.188126c0.454483,-0.316162 0.898403,-0.296829 0.991562,0.043228c0.09317,0.340057 -0.19973,0.871979 -0.654221,1.188126z" id="path5410" fill="#7fff00"/>
    <path id="path5412" d="m-60.819859,200.758347c0.326618,0.02919 0.579079,0.331131 0.563877,0.674438c-0.015198,0.343307 -0.292278,0.597916 -0.618908,0.568726c-0.32663,-0.02919 -0.579082,-0.331131 -0.563881,-0.674438c0.01519,-0.343307 0.292282,-0.597916 0.618912,-0.568726z" fill="#7fff00"/>
    <path id="path5414" d="m-59.391171,201.889557c-0.43626,0.000122 -0.789978,-0.234543 -0.790089,-0.524185c-0.000092,-0.289642 0.353458,-0.524521 0.789719,-0.524643c0.436249,-0.000122 0.78997,0.234558 0.79007,0.5242c0.000111,0.289642 -0.353451,0.524506 -0.7897,0.524628z" fill="#7fff00"/>
    <path d="m-60.342991,199.900574c0.000122,0.436249 -0.234558,0.789978 -0.524189,0.79007c-0.289639,0.000107 -0.524521,-0.353455 -0.524639,-0.789703c-0.000122,-0.436249 0.234558,-0.789978 0.524189,-0.79007c0.289639,-0.000107 0.524509,0.353439 0.524639,0.789703z" id="path5416" fill="#7fff00"/>
    <path id="path5418" d="m-60.319561,202.82933c0.000122,0.436264 -0.234558,0.789978 -0.524189,0.790085c-0.289639,0.000107 -0.524521,-0.353455 -0.524639,-0.789703c-0.000122,-0.436264 0.234558,-0.789978 0.524189,-0.790085c0.289639,-0.000107 0.524509,0.353455 0.524639,0.789703z" fill="#7fff00"/>
    <path id="path5420" d="m-62.083721,203.391785c-0.454479,0.316162 -0.898407,0.296829 -0.99157,-0.043228c-0.093159,-0.340057 0.199741,-0.871964 0.654221,-1.188126c0.454479,-0.316162 0.898399,-0.296829 0.99157,0.043228c0.093159,0.340057 -0.199738,0.871979 -0.654221,1.188126z" fill="#7fff00"/>
    <path d="m-61.636749,199.830948c0.316158,0.454483 0.29681,0.898407 -0.04324,0.991562c-0.340042,0.093155 -0.871971,-0.199738 -1.188129,-0.654221c-0.316162,-0.454483 -0.296803,-0.898407 0.04324,-0.991562c0.340038,-0.093155 0.871967,0.199738 1.188129,0.654221z" id="path5422" fill="#7fff00"/>
    <path id="path5424" d="m-58.883701,202.560562c0.316162,0.454483 0.29681,0.898407 -0.04324,0.991562c-0.340038,0.093155 -0.87196,-0.199738 -1.188129,-0.654221c-0.316151,-0.454483 -0.296799,-0.898407 0.04324,-0.991562c0.34005,-0.093155 0.871971,0.199738 1.188129,0.654221z" fill="#7fff00"/>
   </g>
   <rect width="5.734434" height="5.737327" x="-84.13768" y="202.12756" id="rect5509" fill="#7fff00"/>
   <g transform="matrix(2.33235, 0, 0, 2.53566, 61.1764, -790.391)" id="g5525" fill="#800000">
    <path d="m-52.7938,393.512909c-0.130779,0.182312 -0.36232,0.261505 -0.5172,0.176849c-0.154881,-0.084656 -0.174408,-0.301056 -0.043629,-0.483398c0.130768,-0.182312 0.362331,-0.261505 0.5172,-0.176849c0.154888,0.084656 0.174408,0.301056 0.043629,0.483398z" id="path5527" fill="#7fff00"/>
    <path id="path5529" d="m-52.640629,393.996429c0.123848,0.195923 0.088718,0.419403 -0.07848,0.499207c-0.167202,0.079773 -0.40313,-0.014343 -0.52697,-0.210266c-0.123852,-0.195923 -0.088711,-0.419403 0.07848,-0.499207c0.167198,-0.079773 0.40313,0.014343 0.52697,0.210266z" fill="#7fff00"/>
    <path d="m-51.936989,393.284058c0.162079,0.233734 0.15332,0.520844 -0.019562,0.641327c-0.172878,0.120483 -0.444389,0.028687 -0.606468,-0.205048c-0.162071,-0.233734 -0.153313,-0.520874 0.019569,-0.641357c0.172878,-0.120483 0.444389,-0.028656 0.606461,0.205078z" id="path5531" fill="#7fff00"/>
    <path id="path5533" d="m-53.021412,395.144806c-0.212498,0.000061 -0.384808,-0.124939 -0.38485,-0.279175c-0.00005,-0.154266 0.172161,-0.279358 0.38467,-0.279419c0.212502,-0.000061 0.384811,0.124908 0.384861,0.279175c0.00005,0.154236 -0.17218,0.279358 -0.384682,0.279419z" fill="#7fff00"/>
    <path id="path5535" d="m-51.90181,394.800537c-0.211582,0.158203 -0.478619,0.159882 -0.596489,0.003754c-0.117863,-0.156128 -0.041901,-0.41095 0.169678,-0.569153c0.211571,-0.158203 0.478622,-0.159882 0.596481,-0.003754c0.11787,0.156158 0.041901,0.41098 -0.16967,0.569153z" fill="#7fff00"/>
    <path id="path5537" d="m-51.222469,393.519104c-0.12674,0.179138 -0.331871,0.244263 -0.458191,0.145416c-0.126308,-0.098846 -0.125969,-0.324188 0.000782,-0.503357c0.126747,-0.179169 0.331879,-0.244263 0.458199,-0.145416c0.12632,0.098846 0.125961,0.324188 -0.00079,0.503357z" fill="#7fff00"/>
    <path d="m-51.13937,394.847809c-0.080608,0.199066 -0.25843,0.308899 -0.397202,0.2453c-0.13876,-0.063568 -0.185909,-0.276459 -0.105309,-0.475525c0.080608,-0.199036 0.25843,-0.308868 0.397202,-0.2453c0.138767,0.063568 0.185909,0.276459 0.105309,0.475525z" id="path5539" fill="#7fff00"/>
    <path d="m-51.409222,393.775085c0.173553,0.010925 0.307682,0.124115 0.29961,0.252838c-0.008068,0.128693 -0.1553,0.224152 -0.32885,0.213196c-0.173538,-0.010925 -0.307678,-0.124146 -0.29961,-0.252838c0.008083,-0.128693 0.1553,-0.224152 0.32885,-0.213196z" id="path5541" fill="#7fff00"/>
   </g>
  </g>
 </g>
</svg>