<?xml version="1.0" encoding="UTF-8"?>
<!DOCTYPE svg PUBLIC "-//W3C//DTD SVG 1.1//EN" "http://www.w3.org/Graphics/SVG/1.1/DTD/svg11.dtd">
<svg xmlns="http://www.w3.org/2000/svg" version="1.1" width="1969px" height="1419px" style="shape-rendering:geometricPrecision; text-rendering:geometricPrecision; image-rendering:optimizeQuality; fill-rule:evenodd; clip-rule:evenodd" xmlns:xlink="http://www.w3.org/1999/xlink">
<g><path style="opacity:0.72" fill="#5e7c0c" d="M 219.5,-0.5 C 225.5,-0.5 231.5,-0.5 237.5,-0.5C 240.808,2.63517 244.308,5.63517 248,8.5C 261.386,29.0321 262.386,50.3654 251,72.5C 249.692,74.6414 248.192,76.6414 246.5,78.5C 306.044,112.874 355.211,158.54 394,215.5C 398.903,224.741 404.236,233.741 410,242.5C 411.118,244.765 411.951,247.099 412.5,249.5C 412.987,250.473 413.487,251.473 414,252.5C 414.5,243.506 414.666,234.506 414.5,225.5C 419.194,142.579 455.194,77.4126 522.5,30C 543.414,16.5403 565.747,6.37366 589.5,-0.5C 627.5,-0.5 665.5,-0.5 703.5,-0.5C 770.96,19.1216 818.126,61.4549 845,126.5C 870.491,202.697 857.825,271.697 807,333.5C 756.664,387.946 694.831,409.113 621.5,397C 569.981,384.14 534.814,352.974 516,303.5C 503.823,259.719 512.657,220.886 542.5,187C 574.516,157.664 610.849,150.664 651.5,166C 685.328,184.156 698.161,211.989 690,249.5C 688.301,252.921 686.135,255.921 683.5,258.5C 681.5,259.833 679.5,259.833 677.5,258.5C 677.784,256.585 677.451,254.919 676.5,253.5C 685.306,216.942 672.306,191.775 637.5,178C 596.075,169.135 564.242,182.635 542,218.5C 519.825,271.299 530.991,315.799 575.5,352C 613.917,377.919 655.584,384.586 700.5,372C 766.982,350.519 809.148,306.019 827,238.5C 840.591,155.877 812.424,92.0441 742.5,47C 680.514,14.5088 618.18,13.8421 555.5,45C 488.906,84.0079 451.739,142.175 444,219.5C 443.333,235.833 443.333,252.167 444,268.5C 449.198,315.886 454.865,363.219 461,410.5C 469.555,500.401 467.555,590.068 455,679.5C 454.513,686.268 453.013,692.768 450.5,699C 459.937,824.582 431.271,940.582 364.5,1047C 365.908,1047.32 367.241,1046.98 368.5,1046C 424.097,1010.36 481.763,978.025 541.5,949C 622.173,885.976 674.507,804.642 698.5,705C 697.521,703.221 697.854,701.555 699.5,700C 698.975,699.308 698.308,698.808 697.5,698.5C 691.922,701.115 686.755,701.115 682,698.5C 661.544,694.854 646.877,683.521 638,664.5C 636.584,658.865 635.751,653.698 635.5,649C 636.916,646.165 638.583,643.498 640.5,641C 643.208,639.931 645.875,638.764 648.5,637.5C 664.692,638.231 678.692,645.231 690.5,658.5C 694.933,664.78 698.766,671.446 702,678.5C 703.042,672.964 704.209,667.798 705.5,663C 696.018,642.833 698.018,623.667 711.5,605.5C 727.29,590.169 738.124,593.503 744,615.5C 745.403,637.828 736.57,654.995 717.5,667C 717.259,668.562 717.759,670.062 719,671.5C 732.876,653.108 750.876,643.441 773,642.5C 776.487,643.239 779.987,644.073 783.5,645C 785.687,646.025 787.354,647.525 788.5,649.5C 788.557,650.609 788.89,651.609 789.5,652.5C 790.711,657.52 790.044,662.354 787.5,667C 783.746,675.653 777.746,682.986 769.5,689C 764.167,691.667 758.833,694.333 753.5,697C 747.513,698.121 741.68,699.621 736,701.5C 732.016,700.484 728.016,700.484 724,701.5C 721.12,699.714 718.286,699.547 715.5,701C 704.283,783.479 668.95,856.146 609.5,919C 729.859,870.408 854.525,837.408 983.5,820C 1046.06,799.073 1101.39,766.407 1149.5,722C 1176.15,698.133 1199.15,671.3 1218.5,641.5C 1198.87,636.042 1185.37,623.708 1178,604.5C 1174.29,593.563 1174.96,582.897 1180,572.5C 1185.54,566.158 1192.04,564.991 1199.5,569C 1216.54,577.543 1226.38,591.376 1229,610.5C 1229.33,614.5 1229.67,618.5 1230,622.5C 1233,618.167 1236,613.833 1239,609.5C 1238.81,583.669 1250.31,565.502 1273.5,555C 1287.06,550.94 1294.06,555.94 1294.5,570C 1294.43,577.004 1292.6,583.504 1289,589.5C 1279.94,603.906 1267.11,612.739 1250.5,616C 1248.66,617.851 1247.83,620.017 1248,622.5C 1269.71,607.875 1292.54,605.708 1316.5,616C 1322.06,620.009 1323.56,625.176 1321,631.5C 1311.75,645.702 1298.59,653.869 1281.5,656C 1268.53,657.446 1255.86,656.113 1243.5,652C 1240.44,650.939 1237.94,649.106 1236,646.5C 1193.15,718.189 1134.65,773.189 1060.5,811.5C 1059.53,811.987 1058.53,812.487 1057.5,813C 1060.04,813.796 1062.37,813.629 1064.5,812.5C 1097.8,810.395 1131.13,809.061 1164.5,808.5C 1163.74,809.268 1162.74,809.768 1161.5,810C 1166.74,810.694 1171.74,810.194 1176.5,808.5C 1190.48,807.682 1204.48,807.349 1218.5,807.5C 1217.39,808.29 1216.06,808.79 1214.5,809C 1221.07,809.758 1227.4,809.258 1233.5,807.5C 1296.12,806.885 1358.45,802.385 1420.5,794C 1487.48,784.451 1550.15,762.784 1608.5,729C 1658.53,698.969 1697.7,658.469 1726,607.5C 1758.61,545.952 1763.61,482.285 1741,416.5C 1709.82,341.069 1653.48,300.402 1572,294.5C 1513.79,295.759 1468.79,320.425 1437,368.5C 1413.53,409.562 1410.2,452.228 1427,496.5C 1456.42,555.133 1503.92,580.633 1569.5,573C 1580.74,570.529 1591.74,567.363 1602.5,563.5C 1604.55,563.598 1606.22,562.931 1607.5,561.5C 1610.33,561.238 1612.66,561.904 1614.5,563.5C 1613.16,565.529 1611.82,567.529 1610.5,569.5C 1609.74,571.262 1608.4,572.262 1606.5,572.5C 1604.33,572.75 1602.66,573.75 1601.5,575.5C 1550.2,598.046 1501.87,592.879 1456.5,560C 1405.74,515.828 1388.9,460.995 1406,395.5C 1425.73,338.771 1464.23,301.271 1521.5,283C 1609.55,263.795 1680.72,289.962 1735,361.5C 1761.46,399.977 1775.29,442.643 1776.5,489.5C 1775.5,495.685 1775,502.018 1775,508.5C 1775.38,507.944 1775.88,507.611 1776.5,507.5C 1770.81,574.189 1745.98,632.522 1702,682.5C 1664.73,722.544 1621.23,753.877 1571.5,776.5C 1665.01,791.203 1728.85,842.536 1763,930.5C 1788.02,1012.7 1774.02,1087.36 1721,1154.5C 1660.84,1220.55 1586.67,1245.05 1498.5,1228C 1418.19,1207.03 1365.03,1157.19 1339,1078.5C 1325.85,1028.52 1333.19,981.856 1361,938.5C 1386.14,903.502 1420.31,883.836 1463.5,879.5C 1464.31,882.087 1465.64,882.587 1467.5,881C 1472.35,880.826 1477.02,880.326 1481.5,879.5C 1530.23,884.259 1564.4,908.926 1584,953.5C 1596.6,988.78 1592.27,1021.78 1571,1052.5C 1567.13,1057.54 1562.3,1061.21 1556.5,1063.5C 1555.58,1063.46 1554.92,1063.12 1554.5,1062.5C 1553.63,1060.28 1553.3,1057.95 1553.5,1055.5C 1562.39,1042.72 1568.89,1028.72 1573,1013.5C 1579.65,969.967 1564.48,936.467 1527.5,913C 1476.26,889.248 1430.76,897.415 1391,937.5C 1361.13,972.141 1350.13,1012.14 1358,1057.5C 1372.4,1118.89 1407.9,1163.39 1464.5,1191C 1530.74,1219.25 1594.74,1214.92 1656.5,1178C 1725.46,1129.9 1755.96,1063.73 1748,979.5C 1735.65,904.608 1695.15,851.108 1626.5,819C 1600.78,808.123 1573.95,802.623 1546,802.5C 1528.19,803.725 1510.36,804.559 1492.5,805C 1424.55,821.952 1355.55,831.285 1285.5,833C 1232.17,834.718 1178.83,836.385 1125.5,838C 1018.01,841.971 912.339,857.971 808.5,886C 919.635,904.522 1000.8,963.689 1052,1063.5C 1088.17,1142.59 1092.17,1223.26 1064,1305.5C 1043.75,1359.58 1006.92,1397.25 953.5,1418.5C 923.5,1418.5 893.5,1418.5 863.5,1418.5C 816.072,1399.87 790.072,1365.03 785.5,1314C 790.57,1252.26 823.57,1215.93 884.5,1205C 916.514,1201.11 943.68,1210.61 966,1233.5C 987.898,1261.53 988.898,1290.19 969,1319.5C 946.607,1342.94 921.107,1347.1 892.5,1332C 868.446,1313.94 862.113,1291.11 873.5,1263.5C 874.906,1263.03 875.573,1262.03 875.5,1260.5C 882.366,1257.16 885.032,1259.49 883.5,1267.5C 877.327,1292.53 885.661,1310.7 908.5,1322C 935.283,1328.03 953.45,1318.19 963,1292.5C 967.038,1260.76 953.871,1239.59 923.5,1229C 918.216,1227.51 912.883,1226.35 907.5,1225.5C 905.366,1223.97 902.866,1223.3 900,1223.5C 896.85,1223.36 894.017,1224.03 891.5,1225.5C 849.942,1231.57 823.109,1254.57 811,1294.5C 805.103,1343.87 825.27,1377.71 871.5,1396C 919.45,1408.51 961.45,1397.85 997.5,1364C 1026.01,1335.16 1044.18,1300.66 1052,1260.5C 1069.9,1159.73 1044.24,1072.07 975,997.5C 906.16,930.329 823.66,902.162 727.5,913C 719.967,913.811 712.634,915.477 705.5,918C 635.992,942.755 568.659,972.421 503.5,1007C 513.787,1006.49 523.787,1005.33 533.5,1003.5C 535.64,1004.11 537.807,1003.77 540,1002.5C 544.097,1003.37 548.43,1003.03 553,1001.5C 553.725,1002.06 554.558,1002.39 555.5,1002.5C 562.385,1001.89 569.219,1001.22 576,1000.5C 586.577,1001.26 597.577,1001.26 609,1000.5C 613.333,1001.17 617.667,1001.83 622,1002.5C 624.592,1002.4 627.259,1002.07 630,1001.5C 633.648,1003.07 636.981,1003.41 640,1002.5C 642.667,1003.17 645.333,1003.83 648,1004.5C 650.361,1003.49 653.028,1003.82 656,1005.5C 656.333,1005.17 656.667,1004.83 657,1004.5C 661.062,1005.22 665.062,1006.22 669,1007.5C 671.897,1006.38 675.064,1006.71 678.5,1008.5C 679.086,1008.29 679.586,1007.96 680,1007.5C 682.213,1008.8 684.546,1009.8 687,1010.5C 690,1010.5 693,1010.5 696,1010.5C 697.667,1011.5 699.333,1012.5 701,1013.5C 733.315,1019.02 764.815,1030.35 795.5,1047.5C 796.29,1048.4 797.29,1049.07 798.5,1049.5C 799.552,1049.65 800.552,1049.48 801.5,1049C 808.246,1041.39 816.246,1035.39 825.5,1031C 841.522,1023.2 857.855,1020.86 874.5,1024C 881.096,1025.12 886.096,1028.45 889.5,1034C 889.189,1036.83 888.022,1039.67 886,1042.5C 873.753,1053.04 859.92,1059.87 844.5,1063C 859.648,1063.76 872.315,1069.59 882.5,1080.5C 885.123,1086.22 884.79,1091.39 881.5,1096C 878.455,1098.02 875.288,1099.85 872,1101.5C 864.194,1101.89 856.527,1101.89 849,1101.5C 834.307,1097.79 823.473,1089.29 816.5,1076C 813.438,1074.8 810.438,1073.63 807.5,1072.5C 814.07,1092.13 809.403,1108.63 793.5,1122C 783.499,1128.51 774.832,1126.68 767.5,1116.5C 766.773,1114.05 765.773,1111.71 764.5,1109.5C 762.064,1103.61 761.897,1097.28 764,1090.5C 767.777,1078.26 774.943,1068.6 785.5,1061.5C 781.672,1059.05 777.672,1056.89 773.5,1055C 736.858,1040.18 699.691,1030.68 662,1026.5C 655.073,1024.73 648.073,1023.4 641,1022.5C 638.639,1023.51 635.972,1023.18 633,1021.5C 627.93,1022.55 622.263,1022.21 616,1020.5C 599.191,1020.66 582.691,1020.66 566.5,1020.5C 559.846,1022.17 553.679,1022.51 548,1021.5C 546.333,1022.17 544.667,1022.83 543,1023.5C 509.223,1025.57 475.056,1031.73 440.5,1042C 289.646,1132.14 158.98,1246.14 48.5,1384C 43.9112,1385.71 39.5779,1385.04 35.5,1382C 30.3333,1377.5 25.1667,1373 20,1368.5C 17.9142,1364.33 18.2475,1360.33 21,1356.5C 92.3867,1268.44 172.887,1189.94 262.5,1121C 373.609,1010.76 427.443,876.93 424,719.5C 421.966,652.7 407.632,588.7 381,527.5C 357.477,474.237 321.644,431.404 273.5,399C 239.272,377.608 201.938,367.108 161.5,367.5C 162.609,366.71 163.942,366.21 165.5,366C 164,365.833 162.5,365.667 161,365.5C 158.456,365.336 156.29,366.003 154.5,367.5C 99.0522,371.948 56.8855,397.615 28,444.5C 10.0336,479.807 7.70025,516.141 21,553.5C 42.5454,600.2 79.0454,624.867 130.5,627.5C 180.818,625.443 215.984,601.443 236,555.5C 242.573,535.599 244.239,515.266 241,494.5C 239.057,486.842 237.224,479.175 235.5,471.5C 233.669,463.591 236.003,461.924 242.5,466.5C 243.167,466.5 243.5,466.833 243.5,467.5C 243.427,469.027 244.094,470.027 245.5,470.5C 263.599,510.791 260.766,549.791 237,587.5C 206.432,629.69 164.932,648.523 112.5,644C 57.1071,634.095 19.4405,602.929 -0.5,550.5C -0.5,520.167 -0.5,489.833 -0.5,459.5C 22.6996,399.854 65.6996,363.02 128.5,349C 191.643,338.535 249.31,351.869 301.5,389C 345.656,422.474 379.489,464.307 403,514.5C 416.443,543.494 427.109,573.494 435,604.5C 441.333,512.324 436.5,420.99 420.5,330.5C 415.531,316.82 410.697,302.82 406,288.5C 399.547,275.072 392.714,261.905 385.5,249C 385.833,248.667 386.167,248.333 386.5,248C 375.359,229.614 363.525,212.114 351,195.5C 326.132,165.468 299.298,138.468 270.5,114.5C 259.792,107.108 249.126,99.7751 238.5,92.5C 238.19,91.2617 237.69,91.2617 237,92.5C 236.505,94.4727 236.338,96.4727 236.5,98.5C 236.509,100.308 236.009,101.975 235,103.5C 231.492,106.675 228.325,110.175 225.5,114C 219.352,117.831 213.185,121.665 207,125.5C 206.667,125.167 206.333,124.833 206,124.5C 191.254,131.213 176.42,131.046 161.5,124C 154.99,117.069 154.99,109.903 161.5,102.5C 168.781,93.2997 177.947,87.6331 189,85.5C 196.001,82.3974 203.168,81.0641 210.5,81.5C 210.369,82.2389 210.536,82.9056 211,83.5C 214.907,83.0901 217.407,82.4234 218.5,81.5C 214.68,78.5298 210.68,75.6964 206.5,73C 185.417,71.7081 167.75,63.3748 153.5,48C 153.833,47.6667 154.167,47.3333 154.5,47C 151.094,43.8746 149.427,40.208 149.5,36C 145.877,27.3888 148.543,21.5554 157.5,18.5C 178.94,17.98 195.773,26.98 208,45.5C 211.024,51.2096 213.19,57.2096 214.5,63.5C 216.059,64.0736 217.559,64.7402 219,65.5C 219.667,64.1667 219.667,62.8333 219,61.5C 216.584,58.3372 214.418,55.0039 212.5,51.5C 212.709,50.914 213.043,50.414 213.5,50C 210.04,44.8377 208.707,39.3377 209.5,33.5C 209.613,28.482 209.947,23.482 210.5,18.5C 212.305,11.6213 215.305,5.28793 219.5,-0.5 Z M 826.5,1064.5 C 825.614,1065.78 824.614,1065.78 823.5,1064.5C 824.425,1063.44 825.425,1063.44 826.5,1064.5 Z"/></g>
<g><path style="opacity:0.004" fill="#0a0200" d="M 210.5,18.5 C 209.947,23.482 209.613,28.482 209.5,33.5C 208.174,28.421 208.507,23.421 210.5,18.5 Z"/></g>
<g><path style="opacity:0.004" fill="#76feff" d="M 210.5,81.5 C 213.167,81.5 215.833,81.5 218.5,81.5C 217.407,82.4234 214.907,83.0901 211,83.5C 210.536,82.9056 210.369,82.2389 210.5,81.5 Z"/></g>
<g><path style="opacity:0.004" fill="#000000" d="M 238.5,92.5 C 237.952,94.6264 237.285,96.6264 236.5,98.5C 236.338,96.4727 236.505,94.4727 237,92.5C 237.69,91.2617 238.19,91.2617 238.5,92.5 Z"/></g>
<g><path style="opacity:0.004" fill="#000000" d="M 414.5,225.5 C 414.666,234.506 414.5,243.506 414,252.5C 413.487,251.473 412.987,250.473 412.5,249.5C 413.167,241.5 413.833,233.5 414.5,225.5 Z"/></g>
<g><path style="opacity:0.004" fill="#24a218" d="M 676.5,253.5 C 677.451,254.919 677.784,256.585 677.5,258.5C 677.167,258.5 676.833,258.5 676.5,258.5C 675.167,256.833 675.167,255.167 676.5,253.5 Z"/></g>
<g><path style="opacity:0.004" fill="#000000" d="M 676.5,258.5 C 676.833,258.5 677.167,258.5 677.5,258.5C 679.5,259.833 681.5,259.833 683.5,258.5C 681.167,262.5 678.833,262.5 676.5,258.5 Z"/></g>
<g><path style="opacity:0.736" fill="#5f7d0c" d="M 1159.5,355.5 C 1159.43,357.027 1160.09,358.027 1161.5,358.5C 1162.79,359.058 1163.62,360.058 1164,361.5C 1168.83,380.866 1164.83,398.199 1152,413.5C 1141.4,424.552 1128.9,432.719 1114.5,438C 1110.47,438.35 1106.63,438.517 1103,438.5C 1097.83,460.003 1089,479.836 1076.5,498C 1069.1,503.871 1060.77,507.204 1051.5,508C 1046.96,506.287 1045.46,503.12 1047,498.5C 1054.79,488.035 1061.79,477.035 1068,465.5C 1068.67,464.5 1068.67,463.5 1068,462.5C 1042.72,457.04 1022.39,444.04 1007,423.5C 998.105,409.414 997.438,395.08 1005,380.5C 1009.92,375.798 1015.76,374.298 1022.5,376C 1049.54,381.056 1069.04,395.889 1081,420.5C 1084.46,400.34 1083.29,380.34 1077.5,360.5C 1052.97,364.932 1030.97,359.432 1011.5,344C 1003.81,336.788 999.144,327.955 997.5,317.5C 997.431,309.402 1001.43,304.902 1009.5,304C 1027.14,300.495 1043.47,303.661 1058.5,313.5C 1058.83,313.167 1059.17,312.833 1059.5,312.5C 1056.17,306.833 1052.83,301.167 1049.5,295.5C 1030.07,285.303 1019.07,269.303 1016.5,247.5C 1018.31,227.262 1027.98,222.429 1045.5,233C 1063.17,248.173 1068.83,267.006 1062.5,289.5C 1067.19,295.023 1071.69,300.689 1076,306.5C 1077.96,288.413 1085.79,273.58 1099.5,262C 1117.57,250.445 1128.73,255.278 1133,276.5C 1135.58,301.845 1126.75,322.345 1106.5,338C 1102.96,340.269 1099.29,342.269 1095.5,344C 1100.02,356.262 1103.52,368.762 1106,381.5C 1117.42,363.061 1133.92,353.561 1155.5,353C 1156.98,353.662 1158.32,354.496 1159.5,355.5 Z"/></g>
<g><path style="opacity:0.435" fill="#5f7f0c" d="M 1338.5,249.5 C 1347.25,251.4 1350.25,256.566 1347.5,265C 1352.43,270.852 1352.77,277.018 1348.5,283.5C 1345.72,285.706 1342.55,287.039 1339,287.5C 1332.62,284.297 1326.12,282.13 1319.5,281C 1314.12,275.9 1313.62,270.066 1318,263.5C 1320.1,261.262 1322.44,260.262 1325,260.5C 1327.98,254.667 1332.48,251 1338.5,249.5 Z"/></g>
<g><path style="opacity:0.418" fill="#607b0c" d="M 158.5,272.5 C 168.789,272.416 172.956,277.416 171,287.5C 169.58,289.444 168.08,291.277 166.5,293C 168.637,295.25 168.971,297.75 167.5,300.5C 161.501,309.177 153.834,310.844 144.5,305.5C 143.833,300.167 140.833,297.167 135.5,296.5C 134.026,293.832 133.359,291.165 133.5,288.5C 135.495,278.176 141.495,274.51 151.5,277.5C 153.809,275.647 156.142,273.98 158.5,272.5 Z"/></g>
<g><path style="opacity:0.016" fill="#76ce00" d="M 1958.5,295.5 C 1958.5,299.5 1958.5,303.5 1958.5,307.5C 1957.68,304.695 1957.18,301.695 1957,298.5C 1955.39,297.344 1955.39,296.011 1957,294.5C 1957.38,295.056 1957.88,295.389 1958.5,295.5 Z"/></g>
<g><path style="opacity:0.73" fill="#5f7d0c" d="M 1888.5,296.5 C 1885.81,297.591 1885.14,299.257 1886.5,301.5C 1891.06,307.614 1894.9,314.281 1898,321.5C 1902.86,295.981 1917.86,280.314 1943,274.5C 1953.25,277.606 1958.42,284.606 1958.5,295.5C 1957.88,295.389 1957.38,295.056 1957,294.5C 1955.39,296.011 1955.39,297.344 1957,298.5C 1957.18,301.695 1957.68,304.695 1958.5,307.5C 1952.78,334.221 1936.78,351.221 1910.5,358.5C 1913.07,371.362 1914.57,384.362 1915,397.5C 1929.79,381.216 1947.62,374.883 1968.5,378.5C 1968.5,392.833 1968.5,407.167 1968.5,421.5C 1962.76,429.08 1956.09,435.913 1948.5,442C 1942.09,444.763 1935.92,447.93 1930,451.5C 1929.67,451.167 1929.33,450.833 1929,450.5C 1925.73,451.984 1922.4,453.318 1919,454.5C 1916.27,454.699 1913.43,454.699 1910.5,454.5C 1909.07,454.977 1907.74,455.643 1906.5,456.5C 1892.11,501.497 1865.11,536.664 1825.5,562C 1816.54,563.431 1807.54,563.765 1798.5,563C 1791.52,559.37 1790.86,554.703 1796.5,549C 1830.36,531.307 1856.03,505.473 1873.5,471.5C 1873.19,470.692 1872.69,470.025 1872,469.5C 1868.99,471.926 1865.82,472.093 1862.5,470C 1842.51,461.863 1826.18,449.196 1813.5,432C 1814.26,430.636 1813.76,429.469 1812,428.5C 1805.64,416.625 1803.98,404.291 1807,391.5C 1809.1,385.409 1812.93,380.909 1818.5,378C 1820.7,377.627 1822.86,377.127 1825,376.5C 1859.11,385.904 1879.11,407.237 1885,440.5C 1890.11,417.778 1892.11,394.778 1891,371.5C 1866.59,373.26 1845.75,364.593 1828.5,345.5C 1820.22,335.912 1817.05,324.912 1819,312.5C 1821.79,308.1 1825.79,305.434 1831,304.5C 1849.03,303.653 1865.2,309.986 1879.5,323.5C 1879.83,323.167 1880.17,322.833 1880.5,322.5C 1877.99,316.157 1875.49,309.823 1873,303.5C 1855,289.031 1847.17,270.531 1849.5,248C 1850.85,241.311 1854.52,236.311 1860.5,233C 1864.38,232.346 1867.88,233.179 1871,235.5C 1878.41,238.903 1884.07,244.57 1888,252.5C 1891.55,259.568 1893.05,267.068 1892.5,275C 1892.1,279.207 1892.1,283.207 1892.5,287C 1891.39,290.314 1890.05,293.48 1888.5,296.5 Z"/></g>
<g><path style="opacity:0.005" fill="#000000" d="M 1888.5,296.5 C 1888.94,296.435 1889.27,296.601 1889.5,297C 1887.86,298.129 1886.86,299.629 1886.5,301.5C 1885.14,299.257 1885.81,297.591 1888.5,296.5 Z"/></g>
<g><path style="opacity:0.004" fill="#000000" d="M 1159.5,355.5 C 1160.91,355.973 1161.57,356.973 1161.5,358.5C 1160.09,358.027 1159.43,357.027 1159.5,355.5 Z"/></g>
<g><path style="opacity:0.012" fill="#4dc300" d="M 161.5,367.5 C 159.167,367.5 156.833,367.5 154.5,367.5C 156.29,366.003 158.456,365.336 161,365.5C 162.5,365.667 164,365.833 165.5,366C 163.942,366.21 162.609,366.71 161.5,367.5 Z"/></g>
<g><path style="opacity:0.004" fill="#42ff00" d="M 525.5,410.5 C 527.851,412.417 527.851,414.084 525.5,415.5C 525.5,413.833 525.5,412.167 525.5,410.5 Z"/></g>
<g><path style="opacity:0.428" fill="#5f7c0c" d="M 525.5,415.5 C 527.851,414.084 527.851,412.417 525.5,410.5C 527.79,403.019 532.79,400.185 540.5,402C 545.671,404.091 548.004,407.924 547.5,413.5C 553.462,414.157 556.796,417.49 557.5,423.5C 555.19,434.605 548.857,438.605 538.5,435.5C 531.569,438.929 525.735,437.595 521,431.5C 519,427.167 519,422.833 521,418.5C 522.129,416.859 523.629,415.859 525.5,415.5 Z"/></g>
<g><path style="opacity:0.004" fill="#000000" d="M 242.5,466.5 C 236.003,461.924 233.669,463.591 235.5,471.5C 233.547,468.76 233.214,465.76 234.5,462.5C 238.707,460.701 241.374,462.034 242.5,466.5 Z"/></g>
<g><path style="opacity:0.004" fill="#000000" d="M 243.5,467.5 C 244.906,467.973 245.573,468.973 245.5,470.5C 244.094,470.027 243.427,469.027 243.5,467.5 Z"/></g>
<g><path style="opacity:0.012" fill="#97ddff" d="M 1776.5,489.5 C 1776.5,495.5 1776.5,501.5 1776.5,507.5C 1775.88,507.611 1775.38,507.944 1775,508.5C 1775,502.018 1775.5,495.685 1776.5,489.5 Z"/></g>
<g><path style="opacity:0.004" fill="#000000" d="M 1610.5,569.5 C 1611.82,567.529 1613.16,565.529 1614.5,563.5C 1612.66,561.904 1610.33,561.238 1607.5,561.5C 1610.33,559.334 1613.17,559.334 1616,561.5C 1616.37,565.64 1614.53,568.307 1610.5,569.5 Z"/></g>
<g><path style="opacity:0.004" fill="#000000" d="M 1607.5,561.5 C 1606.22,562.931 1604.55,563.598 1602.5,563.5C 1603.78,562.069 1605.45,561.402 1607.5,561.5 Z"/></g>
<g><path style="opacity:0.004" fill="#000000" d="M 1606.5,572.5 C 1605.34,574.25 1603.67,575.25 1601.5,575.5C 1602.66,573.75 1604.33,572.75 1606.5,572.5 Z"/></g>
<g><path style="opacity:0.397" fill="#5f7c0c" d="M 869.5,596.5 C 879.148,595.482 884.148,599.815 884.5,609.5C 889.94,610.785 892.607,614.285 892.5,620C 890.705,631.12 884.538,634.62 874,630.5C 860.846,634.244 854.846,629.244 856,615.5C 857.309,613.024 859.142,611.024 861.5,609.5C 861.919,603.639 864.586,599.306 869.5,596.5 Z"/></g>
<g><path style="opacity:0.004" fill="#000000" d="M 788.5,649.5 C 790.382,650.221 790.715,651.221 789.5,652.5C 788.89,651.609 788.557,650.609 788.5,649.5 Z"/></g>
<g><path style="opacity:0.432" fill="#617e0d" d="M 1605.5,638.5 C 1615.56,636.44 1621.39,640.44 1623,650.5C 1626.06,650.574 1628.39,652.24 1630,655.5C 1630.67,659.5 1630.67,663.5 1630,667.5C 1625.01,673.005 1619.18,674.672 1612.5,672.5C 1606.41,675.2 1600.91,674.2 1596,669.5C 1593.28,664.086 1593.28,658.752 1596,653.5C 1599.8,651.388 1601.8,648.054 1602,643.5C 1602.7,641.416 1603.86,639.749 1605.5,638.5 Z"/></g>
<g><path style="opacity:0.454" fill="#607d0c" d="M 1935.5,662.5 C 1941.47,663.573 1946.3,666.573 1950,671.5C 1952.43,672.479 1954.93,673.145 1957.5,673.5C 1961.24,679.662 1961.41,685.996 1958,692.5C 1954.6,695.09 1950.93,695.757 1947,694.5C 1935.84,703.026 1928,700.526 1923.5,687C 1924.73,683.81 1926.06,680.643 1927.5,677.5C 1924.95,669.715 1927.62,664.715 1935.5,662.5 Z"/></g>
<g><path style="opacity:0.012" fill="#4bc700" d="M 1218.5,807.5 C 1223.5,807.5 1228.5,807.5 1233.5,807.5C 1227.4,809.258 1221.07,809.758 1214.5,809C 1216.06,808.79 1217.39,808.29 1218.5,807.5 Z"/></g>
<g><path style="opacity:0.012" fill="#4bc800" d="M 1164.5,808.5 C 1168.5,808.5 1172.5,808.5 1176.5,808.5C 1171.74,810.194 1166.74,810.694 1161.5,810C 1162.74,809.768 1163.74,809.268 1164.5,808.5 Z"/></g>
<g><path style="opacity:0.004" fill="#000000" d="M 1060.5,811.5 C 1061.57,812.434 1062.9,812.768 1064.5,812.5C 1062.37,813.629 1060.04,813.796 1057.5,813C 1058.53,812.487 1059.53,811.987 1060.5,811.5 Z"/></g>
<g><path style="opacity:0.016" fill="#83ceff" d="M 1463.5,879.5 C 1469.5,879.5 1475.5,879.5 1481.5,879.5C 1477.02,880.326 1472.35,880.826 1467.5,881C 1465.64,882.587 1464.31,882.087 1463.5,879.5 Z"/></g>
<g><path style="opacity:0.427" fill="#5f7c0c" d="M 183.5,871.5 C 188.302,871.579 192.302,873.412 195.5,877C 207.593,876.435 212.759,882.269 211,894.5C 209.165,898.466 205.998,900.632 201.5,901C 193.625,911.101 185.791,910.934 178,900.5C 175.867,897.173 176.034,894.006 178.5,891C 171.953,882.279 173.62,875.779 183.5,871.5 Z"/></g>
<g><path style="opacity:0.434" fill="#5f7c0d" d="M 1224.5,971.5 C 1233.65,970.313 1238.65,974.313 1239.5,983.5C 1248.9,989.381 1249.9,996.548 1242.5,1005C 1240.22,1005.99 1237.89,1006.82 1235.5,1007.5C 1230.83,1004.83 1226.17,1004.83 1221.5,1007.5C 1212.07,1004.98 1208.57,998.982 1211,989.5C 1213.7,986.425 1216.2,983.259 1218.5,980C 1218.17,978.497 1218.17,977.164 1218.5,976C 1220.68,974.637 1222.68,973.137 1224.5,971.5 Z"/></g>
<g><path style="opacity:0.004" fill="#000000" d="M 795.5,1047.5 C 797.179,1047.29 798.179,1047.95 798.5,1049.5C 797.29,1049.07 796.29,1048.4 795.5,1047.5 Z"/></g>
<g><path style="opacity:0.004" fill="#000000" d="M 1553.5,1055.5 C 1553.3,1057.95 1553.63,1060.28 1554.5,1062.5C 1550.87,1060.72 1550.53,1058.38 1553.5,1055.5 Z"/></g>
<g><path style="opacity:0.004" fill="#8cffff" d="M 840.5,1061.5 C 841.692,1062.57 841.359,1063.4 839.5,1064C 838.056,1064.78 836.723,1064.61 835.5,1063.5C 837.291,1062.83 838.958,1062.16 840.5,1061.5 Z"/></g>
<g><path style="opacity:0.004" fill="#000000" d="M 764.5,1109.5 C 765.773,1111.71 766.773,1114.05 767.5,1116.5C 765.694,1114.91 764.361,1112.91 763.5,1110.5C 763.624,1109.89 763.957,1109.56 764.5,1109.5 Z"/></g>
<g><path style="opacity:0.005" fill="#000000" d="M 470.5,1185.5 C 472.957,1188.75 474.624,1192.42 475.5,1196.5C 473.043,1193.25 471.376,1189.58 470.5,1185.5 Z"/></g>
<g><path style="opacity:0.735" fill="#5f7e0c" d="M 520.5,1267.5 C 519.342,1264.87 518.342,1265.03 517.5,1268C 514.768,1268.41 512.101,1269.08 509.5,1270C 508.177,1270.82 507.511,1271.98 507.5,1273.5C 505.323,1273.59 503.323,1274.25 501.5,1275.5C 500.914,1275.29 500.414,1274.96 500,1274.5C 499.799,1277.51 500.132,1280.51 501,1283.5C 505.698,1300.57 512.864,1316.57 522.5,1331.5C 522.021,1304.09 534.354,1282.59 559.5,1267C 565.17,1264.13 571.17,1264.47 577.5,1268C 580.724,1270.72 583.391,1273.89 585.5,1277.5C 585.924,1280.92 587.258,1283.92 589.5,1286.5C 591.387,1291.84 592.387,1297.18 592.5,1302.5C 588.571,1329.01 575.238,1349.84 552.5,1365C 562.718,1374.3 574.051,1381.96 586.5,1388C 593.153,1396.15 591.32,1400.99 581,1402.5C 577.472,1402.11 574.139,1402.11 571,1402.5C 568.667,1401.83 566.333,1401.17 564,1400.5C 563.667,1400.83 563.333,1401.17 563,1401.5C 542.535,1389.37 524.869,1374.03 510,1355.5C 507.32,1358.5 503.987,1360.17 500,1360.5C 496.26,1360.33 492.593,1360.33 489,1360.5C 468.73,1359 450.897,1351.34 435.5,1337.5C 426.879,1328.44 421.879,1318.27 420.5,1307C 421.662,1304.18 422.829,1301.35 424,1298.5C 426.781,1296.46 429.781,1294.79 433,1293.5C 433.414,1293.96 433.914,1294.29 434.5,1294.5C 436.709,1293.89 438.876,1293.23 441,1292.5C 444.422,1292.75 447.755,1292.75 451,1292.5C 455.372,1293.71 459.705,1295.04 464,1296.5C 464.333,1296.17 464.667,1295.83 465,1295.5C 470.756,1298.59 476.589,1301.59 482.5,1304.5C 483.347,1302.94 483.014,1301.44 481.5,1300C 480.37,1292.79 478.704,1285.46 476.5,1278C 476.833,1277.67 477.167,1277.33 477.5,1277C 476.604,1273.57 475.938,1270.07 475.5,1266.5C 446.873,1264.41 426.04,1250.41 413,1224.5C 411.766,1219.73 410.932,1214.9 410.5,1210C 409.628,1202.92 412.294,1197.26 418.5,1193C 437.542,1191.4 453.542,1197.57 466.5,1211.5C 470.243,1215.99 473.743,1220.65 477,1225.5C 477.416,1222.72 478.249,1220.06 479.5,1217.5C 479.291,1216.91 478.957,1216.41 478.5,1216C 479.957,1212.39 481.291,1208.72 482.5,1205C 479.6,1202.57 477.267,1199.74 475.5,1196.5C 474.624,1192.42 472.957,1188.75 470.5,1185.5C 467.844,1177.29 467.011,1168.63 468,1159.5C 469.875,1150.69 474.375,1143.19 481.5,1137C 490.347,1133.17 497.513,1135.67 503,1144.5C 507.819,1151.59 509.986,1159.43 509.5,1168C 509.883,1181.6 505.55,1194.1 496.5,1205.5C 496.608,1206.44 496.941,1207.28 497.5,1208C 495.874,1214.42 494.874,1220.42 494.5,1226C 498.971,1221.85 503.305,1217.18 507.5,1212C 513.858,1207.49 520.525,1203.49 527.5,1200C 534.06,1198.52 540.227,1197.69 546,1197.5C 552.456,1201.9 555.956,1208.07 556.5,1216C 555.101,1239.58 543.101,1256.74 520.5,1267.5 Z"/></g>
<g><path style="opacity:0.012" fill="#41a70e" d="M 907.5,1225.5 C 902.167,1225.5 896.833,1225.5 891.5,1225.5C 894.017,1224.03 896.85,1223.36 900,1223.5C 902.866,1223.3 905.366,1223.97 907.5,1225.5 Z"/></g>
<g><path style="opacity:0.405" fill="#5f7d0c" d="M 1775.5,1242.5 C 1775.74,1241.21 1775.4,1240.21 1774.5,1239.5C 1774.76,1231.56 1779.09,1226.89 1787.5,1225.5C 1790.52,1226.43 1793.36,1227.76 1796,1229.5C 1805.23,1226.49 1810.06,1229.99 1810.5,1240C 1810.41,1242.38 1810.07,1244.71 1809.5,1247C 1807.56,1249.31 1805.23,1251.14 1802.5,1252.5C 1798.94,1263.36 1792.44,1265.7 1783,1259.5C 1780.23,1255.77 1779.4,1251.77 1780.5,1247.5C 1777.17,1247.5 1775.5,1245.83 1775.5,1242.5 Z"/></g>
<g><path style="opacity:0.719" fill="#5f7d0c" d="M 1403.5,1265.5 C 1402.25,1265.58 1401.42,1266.24 1401,1267.5C 1400.51,1269.13 1400.34,1270.8 1400.5,1272.5C 1399.23,1274.99 1398.56,1277.66 1398.5,1280.5C 1404.4,1279.61 1410.24,1277.61 1416,1274.5C 1417.3,1274.97 1418.8,1274.97 1420.5,1274.5C 1420.43,1274.94 1420.6,1275.27 1421,1275.5C 1423.61,1274.88 1426.11,1274.21 1428.5,1273.5C 1438.19,1272.89 1447.19,1275.06 1455.5,1280C 1459.07,1283.43 1460.57,1287.6 1460,1292.5C 1453.86,1304.81 1444.36,1313.31 1431.5,1318C 1417.84,1322.07 1404.51,1323.07 1391.5,1321C 1386.19,1320.28 1381.36,1318.45 1377,1315.5C 1370.32,1323.34 1363.16,1330.68 1355.5,1337.5C 1354.61,1338.32 1354.28,1339.32 1354.5,1340.5C 1372.21,1339.06 1387.38,1344.73 1400,1357.5C 1401.46,1363.8 1399.62,1369.3 1394.5,1374C 1391.96,1375.75 1389.62,1377.75 1387.5,1380C 1363.55,1391.8 1338.89,1391.3 1313.5,1378.5C 1308.98,1375.14 1305.15,1371.81 1302,1368.5C 1299.01,1370.37 1295.84,1371.87 1292.5,1373C 1278.74,1376.48 1264.9,1379.31 1251,1381.5C 1240.24,1381.57 1230.4,1378.23 1221.5,1371.5C 1219.16,1368.01 1219.5,1365.18 1222.5,1363C 1224.76,1361.31 1227.26,1360.14 1230,1359.5C 1235.46,1359.61 1240.79,1359.95 1246,1360.5C 1248,1359.83 1250,1359.17 1252,1358.5C 1252.33,1358.83 1252.67,1359.17 1253,1359.5C 1257.11,1358.65 1261.27,1357.99 1265.5,1357.5C 1262.81,1350.91 1260.81,1344.08 1259.5,1337C 1260.5,1335.23 1260.17,1333.57 1258.5,1332C 1259.82,1328.35 1259.82,1324.68 1258.5,1321C 1260.05,1297.14 1271.89,1280.97 1294,1272.5C 1296.55,1272.87 1299.22,1272.87 1302,1272.5C 1304.09,1273.79 1306.25,1274.96 1308.5,1276C 1322.72,1295.97 1323.05,1317.8 1309.5,1341.5C 1309.83,1341.83 1310.17,1342.17 1310.5,1342.5C 1312.53,1341.44 1314.53,1340.44 1316.5,1339.5C 1318.03,1339.57 1319.03,1338.91 1319.5,1337.5C 1331.29,1330.45 1341.95,1321.95 1351.5,1312C 1339.58,1299.99 1332.58,1285.82 1330.5,1269.5C 1330.59,1257.09 1334.92,1246.26 1343.5,1237C 1351.6,1231.17 1359.26,1231.84 1366.5,1239C 1372.94,1245.34 1377.44,1252.5 1380,1260.5C 1380.89,1265.22 1381.72,1269.56 1382.5,1273.5C 1385.87,1268.22 1388.87,1262.72 1391.5,1257C 1390.83,1256 1390.17,1255 1389.5,1254C 1390.6,1236.47 1398.27,1222.47 1412.5,1212C 1428.59,1203.4 1437.92,1207.4 1440.5,1224C 1436.36,1245.29 1424.03,1259.13 1403.5,1265.5 Z"/></g>
<g><path style="opacity:0.406" fill="#5f7c0c" d="M 636.5,1220.5 C 648.609,1220.84 653.109,1227.17 650,1239.5C 648.649,1241.02 647.149,1242.35 645.5,1243.5C 646.062,1247.02 645.229,1250.35 643,1253.5C 637.078,1258.43 631.078,1257.76 625,1251.5C 624.667,1249.83 624.333,1248.17 624,1246.5C 615.476,1243.26 612.476,1237.26 615,1228.5C 618.009,1223.45 622.509,1221.12 628.5,1221.5C 631.428,1222.76 634.094,1222.43 636.5,1220.5 Z"/></g>
<g><path style="opacity:0.004" fill="#000000" d="M 1774.5,1239.5 C 1775.4,1240.21 1775.74,1241.21 1775.5,1242.5C 1773.52,1241.89 1773.19,1240.89 1774.5,1239.5 Z"/></g>
<g><path style="opacity:0.004" fill="#000000" d="M 883.5,1267.5 C 885.032,1259.49 882.366,1257.16 875.5,1260.5C 877.448,1257.01 880.114,1256.18 883.5,1258C 884.818,1261.27 884.818,1264.44 883.5,1267.5 Z"/></g>
<g><path style="opacity:0.004" fill="#000000" d="M 875.5,1260.5 C 875.573,1262.03 874.906,1263.03 873.5,1263.5C 873.427,1261.97 874.094,1260.97 875.5,1260.5 Z"/></g>
<g><path style="opacity:0.004" fill="#000000" d="M 1403.5,1265.5 C 1402.34,1267.85 1401.34,1270.19 1400.5,1272.5C 1400.34,1270.8 1400.51,1269.13 1401,1267.5C 1401.42,1266.24 1402.25,1265.58 1403.5,1265.5 Z"/></g>
<g><path style="opacity:0.02" fill="#544f0c" d="M 520.5,1267.5 C 516.626,1270.27 512.293,1272.27 507.5,1273.5C 507.511,1271.98 508.177,1270.82 509.5,1270C 512.101,1269.08 514.768,1268.41 517.5,1268C 518.342,1265.03 519.342,1264.87 520.5,1267.5 Z"/></g>
<g><path style="opacity:0.004" fill="#000000" d="M 1428.5,1273.5 C 1426.11,1274.21 1423.61,1274.88 1421,1275.5C 1420.6,1275.27 1420.43,1274.94 1420.5,1274.5C 1422.95,1273.53 1425.61,1273.19 1428.5,1273.5 Z"/></g>
<g><path style="opacity:0.005" fill="#160e02" d="M 585.5,1277.5 C 587.266,1280.19 588.933,1283.02 590.5,1286C 590.272,1286.4 589.938,1286.57 589.5,1286.5C 587.258,1283.92 585.924,1280.92 585.5,1277.5 Z"/></g>
<g><path style="opacity:0.439" fill="#5e7c0c" d="M 213.5,1299.5 C 222.111,1299.12 227.111,1303.12 228.5,1311.5C 237.119,1313.48 239.952,1318.82 237,1327.5C 233.859,1333.9 228.859,1335.9 222,1333.5C 216.002,1336.18 210.169,1336.01 204.5,1333C 203.299,1332.1 202.465,1330.93 202,1329.5C 200.873,1326.55 200.373,1323.72 200.5,1321C 201.226,1318.11 202.893,1315.94 205.5,1314.5C 205.551,1307.95 208.218,1302.95 213.5,1299.5 Z"/></g>
<g><path style="opacity:0.005" fill="#000000" d="M 1319.5,1337.5 C 1319.03,1338.91 1318.03,1339.57 1316.5,1339.5C 1316.97,1338.09 1317.97,1337.43 1319.5,1337.5 Z"/></g>
</svg>
